<?xml version="1.0" standalone="no"?>
<!DOCTYPE svg PUBLIC "-//W3C//DTD SVG 20010904//EN"
 "http://www.w3.org/TR/2001/REC-SVG-20010904/DTD/svg10.dtd">
<svg version="1.0" xmlns="http://www.w3.org/2000/svg"
 width="700.000000pt" height="700.000000pt" viewBox="0 0 700.000000 700.000000"
 preserveAspectRatio="xMidYMid meet">
<metadata>
Created by potrace 1.11, written by Peter Selinger 2001-2013
</metadata>
<g transform="translate(0.000000,700.000000) scale(0.100000,-0.100000)"
fill="#000000" stroke="none">
<path d="M5225 4543 c-84 -17 -170 -61 -234 -119 -53 -48 -150 -166 -520 -637
l-53 -68 -45 58 c-25 32 -133 171 -240 310 -107 139 -215 273 -239 298 -59 60
-135 109 -214 136 -93 32 -240 32 -330 0 -330 -119 -457 -503 -261 -790 22
-31 47 -65 58 -76 10 -11 119 -146 243 -300 123 -154 226 -282 229 -285 3 -3
95 -116 204 -252 109 -136 222 -268 250 -294 209 -187 542 -169 729 40 20 22
91 109 158 191 67 83 138 170 158 194 40 48 297 363 352 431 19 24 50 62 69
84 18 23 48 59 66 81 19 22 59 72 90 110 31 39 63 78 70 87 83 102 114 317 66
457 -89 257 -340 399 -606 344z"/>
<path d="M1505 4508 c-69 -13 -181 -68 -237 -118 -132 -116 -195 -302 -163
-477 18 -96 67 -183 184 -323 58 -70 162 -196 231 -280 69 -84 130 -157 135
-164 6 -6 62 -74 125 -151 63 -77 122 -149 132 -160 71 -86 189 -229 218 -266
73 -91 137 -147 212 -183 40 -19 87 -37 103 -41 278 -55 532 99 610 369 26 89
17 230 -20 316 -33 78 -47 98 -199 282 -65 78 -131 159 -147 178 -15 19 -56
69 -91 111 -35 42 -88 107 -118 144 -30 38 -62 76 -70 84 -8 9 -40 48 -70 86
-30 39 -57 72 -60 75 -4 3 -67 79 -141 170 -74 90 -152 183 -174 206 -50 53
-141 109 -211 129 -67 19 -183 25 -249 13z"/>
</g>
</svg>
