<svg width="104" height="69" viewBox="0 0 104 69" fill="none" xmlns="http://www.w3.org/2000/svg">
<path d="M53.0816 12.705H45.302C44.6706 12.7063 44.0469 12.5667 43.4763 12.2964C42.9057 12.026 42.4026 11.6317 42.0037 11.1422C41.6049 10.6528 41.3202 10.0804 41.1707 9.46699C41.0211 8.85355 41.0102 8.21446 41.139 7.59631C41.2678 6.97817 41.5328 6.39654 41.9149 5.89385C42.297 5.39116 42.7865 4.98008 43.3476 4.69057C43.9087 4.40106 44.5274 4.24042 45.1585 4.22037C45.7896 4.20032 46.4172 4.32136 46.9956 4.57467C47.3259 3.44152 47.9654 2.42281 48.8423 1.6328C49.7193 0.842783 50.799 0.312708 51.9603 0.102023C53.1217 -0.108662 54.3188 0.00837685 55.4173 0.440012C56.5159 0.871647 57.4725 1.60081 58.1798 2.54571C58.8871 3.49062 59.3172 4.6139 59.4218 5.78957C59.5264 6.96524 59.3014 8.1468 58.772 9.20173C58.2426 10.2567 57.4298 11.1433 56.4247 11.762C55.4196 12.3808 54.2619 12.7074 53.0816 12.705ZM53.0816 1.38928C52.0107 1.38731 50.9686 1.73627 50.1148 2.38276C49.261 3.02926 48.6426 3.93767 48.354 4.96902C48.298 5.16209 48.2014 5.34099 48.0707 5.49379C47.94 5.64659 47.7783 5.76977 47.5962 5.85513C47.4142 5.94048 47.216 5.98605 47.015 5.98879C46.814 5.99154 46.6147 5.95139 46.4304 5.87103C46.045 5.70308 45.6271 5.62315 45.207 5.63707C44.7869 5.65098 44.3752 5.75839 44.0018 5.95146C43.6285 6.14454 43.3028 6.41843 43.0486 6.7532C42.7945 7.08798 42.6181 7.47521 42.5324 7.88672C42.4468 8.29824 42.4539 8.72367 42.5534 9.13207C42.6528 9.54047 42.8421 9.92156 43.1074 10.2476C43.3727 10.5736 43.7073 10.8364 44.087 11.0169C44.4666 11.1973 44.8817 11.2908 45.302 11.2906H53.0816C54.3946 11.2906 55.6538 10.769 56.5823 9.84056C57.5107 8.91213 58.0323 7.65292 58.0323 6.33992C58.0323 5.02693 57.5107 3.76772 56.5823 2.83929C55.6538 1.91087 54.3946 1.38928 53.0816 1.38928Z" fill="#0026E6"/>
<path d="M61.3696 40.1654L59.8636 40.1654C59.6882 40.1654 59.52 40.2351 59.396 40.3591C59.272 40.4831 59.2023 40.6513 59.2023 40.8267L59.2023 40.9182C59.2023 41.0937 59.272 41.262 59.3961 41.3861C59.5202 41.5102 59.6885 41.5799 59.864 41.5799L61.37 41.5799C61.5454 41.5799 61.7136 41.5102 61.8376 41.3862C61.9616 41.2622 62.0313 41.094 62.0313 40.9186L62.0313 40.8271C62.0313 40.7402 62.0141 40.6542 61.9809 40.5739C61.9476 40.4936 61.8989 40.4207 61.8374 40.3592C61.776 40.2978 61.7031 40.2491 61.6228 40.2158C61.5425 40.1826 61.4565 40.1654 61.3696 40.1654Z" fill="#0026E6"/>
<path d="M61.3696 33.0931L59.8636 33.0931C59.6882 33.0931 59.52 33.1628 59.396 33.2868C59.272 33.4108 59.2023 33.579 59.2023 33.7544L59.2023 33.8459C59.2023 34.0214 59.272 34.1897 59.3961 34.3138C59.5202 34.4379 59.6885 34.5076 59.864 34.5076L61.37 34.5076C61.5454 34.5076 61.7136 34.4379 61.8376 34.3139C61.9616 34.1899 62.0313 34.0217 62.0313 33.8463L62.0313 33.7548C62.0313 33.6679 62.0141 33.5819 61.9809 33.5016C61.9476 33.4213 61.8989 33.3484 61.8374 33.2869C61.776 33.2255 61.7031 33.1767 61.6228 33.1435C61.5425 33.1102 61.4565 33.0931 61.3696 33.0931Z" fill="#0026E6"/>
<path d="M55.7114 33.0931L44.3041 33.0931C44.1287 33.0931 43.9605 33.1628 43.8365 33.2868C43.7125 33.4108 43.6428 33.579 43.6428 33.7544L43.6428 33.8459C43.6428 34.0214 43.7125 34.1897 43.8366 34.3138C43.9607 34.4379 44.129 34.5076 44.3045 34.5076L55.7118 34.5076C55.8872 34.5076 56.0554 34.4379 56.1794 34.3139C56.3034 34.1899 56.373 34.0217 56.373 33.8463L56.373 33.7548C56.373 33.6679 56.3559 33.5819 56.3227 33.5016C56.2894 33.4213 56.2407 33.3484 56.1792 33.2869C56.1178 33.2255 56.0449 33.1767 55.9646 33.1435C55.8843 33.1102 55.7983 33.0931 55.7114 33.0931Z" fill="#0026E6"/>
<path d="M64.5483 45.9559L46.8748 45.9559C46.6994 45.9559 46.5312 46.0256 46.4072 46.1496C46.2832 46.2736 46.2135 46.4418 46.2135 46.6172L46.2135 46.7087C46.2135 46.8842 46.2832 47.0525 46.4073 47.1766C46.5314 47.3007 46.6997 47.3704 46.8752 47.3704L64.5487 47.3704C64.7241 47.3704 64.8923 47.3007 65.0163 47.1767C65.1403 47.0527 65.21 46.8845 65.21 46.7091L65.21 46.6176C65.21 46.5307 65.1928 46.4447 65.1596 46.3644C65.1263 46.2841 65.0776 46.2112 65.0162 46.1497C64.9547 46.0883 64.8818 46.0396 64.8015 46.0063C64.7212 45.973 64.6352 45.9559 64.5483 45.9559Z" fill="#0026E6"/>
<path d="M59.9095 51.4813L61.324 51.4813C61.5116 51.4813 61.6915 51.5558 61.8241 51.6884C61.9567 51.821 62.0313 52.0009 62.0313 52.1885C62.0313 52.3761 61.9567 52.556 61.8241 52.6886C61.6915 52.8212 61.5116 52.8957 61.324 52.8957L59.9095 52.8957C59.722 52.8957 59.5421 52.8212 59.4095 52.6886C59.2768 52.556 59.2023 52.3761 59.2023 52.1885C59.2023 52.0009 59.2768 51.821 59.4095 51.6884C59.5421 51.5558 59.722 51.4813 59.9095 51.4813Z" fill="#0026E6"/>
<path d="M59.9095 21.7774L61.324 21.7774C61.5116 21.7774 61.6915 21.8519 61.8241 21.9845C61.9567 22.1172 62.0313 22.297 62.0313 22.4846C62.0313 22.6722 61.9567 22.8521 61.8241 22.9847C61.6915 23.1173 61.5116 23.1918 61.324 23.1918L59.9095 23.1918C59.722 23.1918 59.5421 23.1173 59.4095 22.9847C59.2768 22.8521 59.2023 22.6722 59.2023 22.4846C59.2023 22.297 59.2768 22.1172 59.4095 21.9845C59.5421 21.8519 59.722 21.7774 59.9095 21.7774Z" fill="#0026E6"/>
<rect x="40.7305" y="15.4079" width="24.2817" height="52.4798" rx="1.56656" stroke="#0026E6" stroke-width="1.56656"/>
<line x1="21.1485" y1="59.5293" x2="64.229" y2="59.5293" stroke="#0026E6" stroke-width="1.56656" stroke-linecap="round"/>
<line x1="41.7491" y1="27.4148" x2="82.4797" y2="27.4148" stroke="#0026E6" stroke-width="1.56656" stroke-linecap="round"/>
<path d="M0.195197 62.8296H1.26453L1.71434 61.5311H4.17551L4.6338 62.8296H5.70314L3.44564 56.804H2.4442L0.195197 62.8296ZM2.02835 60.6485L2.93644 58.0346H2.95341L3.86999 60.6485H2.02835ZM8.05381 62.8296H9.08071V60.6825H10.1161C11.4146 60.6825 12.2972 60.0629 12.2972 58.756C12.2972 57.6357 11.6777 56.804 10.2349 56.804H8.05381V62.8296ZM9.08071 59.7574V57.7206H10.0906C10.829 57.7206 11.2364 58.1025 11.2364 58.739C11.2364 59.3331 10.8545 59.7574 10.0143 59.7574H9.08071ZM14.8396 62.8296H15.8665V56.804H14.8396V62.8296Z" fill="#0026E6"/>
<path d="M87.139 30.7152H88.2084L88.6582 29.4167H91.1194L91.5776 30.7152H92.647L90.3895 24.6895H89.388L87.139 30.7152ZM88.9722 28.5341L89.8803 25.9201H89.8973L90.8138 28.5341H88.9722ZM94.9977 30.7152H96.0246V28.568H97.0599C98.3584 28.568 99.2411 27.9485 99.2411 26.6415C99.2411 25.5213 98.6215 24.6895 97.1788 24.6895H94.9977V30.7152ZM96.0246 27.643V25.6061H97.0345C97.7728 25.6061 98.1802 25.988 98.1802 26.6245C98.1802 27.2186 97.7983 27.643 96.9581 27.643H96.0246ZM101.783 30.7152H102.81V24.6895H101.783V30.7152Z" fill="#0026E6"/>
</svg>
