<svg width="43" height="36" viewBox="0 0 43 36" fill="none" xmlns="http://www.w3.org/2000/svg">
<g clip-path="url(#clip0)">
<path d="M40.5882 5.59145H37.0588V2.06204C37.0588 1.59401 36.8729 1.14515 36.542 0.814203C36.211 0.483256 35.7621 0.297333 35.2941 0.297333H1.76471C1.29668 0.297333 0.847817 0.483256 0.51687 0.814203C0.185924 1.14515 0 1.59401 0 2.06204L0 28.5326C0 29.0006 0.185924 29.4495 0.51687 29.7804C0.847817 30.1114 1.29668 30.2973 1.76471 30.2973H5.29412V33.8267C5.29412 34.2947 5.48004 34.7436 5.81099 35.0746C6.14193 35.4055 6.59079 35.5914 7.05882 35.5914H40.5882C41.0563 35.5914 41.5051 35.4055 41.8361 35.0746C42.167 34.7436 42.3529 34.2947 42.3529 33.8267V7.35615C42.3529 6.88812 42.167 6.43926 41.8361 6.10832C41.5051 5.77737 41.0563 5.59145 40.5882 5.59145ZM1.76471 28.5326V25.0032H30.8824C31.1164 25.0032 31.3408 24.9102 31.5063 24.7448C31.6717 24.5793 31.7647 24.3549 31.7647 24.1208C31.7647 23.8868 31.6717 23.6624 31.5063 23.4969C31.3408 23.3315 31.1164 23.2385 30.8824 23.2385H28.2353V6.4738C28.2353 6.23978 28.1423 6.01535 27.9769 5.84988C27.8114 5.68441 27.587 5.59145 27.3529 5.59145C27.1189 5.59145 26.8945 5.68441 26.729 5.84988C26.5635 6.01535 26.4706 6.23978 26.4706 6.4738V23.2385H22.9412V18.8267C22.9412 18.5927 22.8482 18.3683 22.6827 18.2028C22.5173 18.0373 22.2928 17.9444 22.0588 17.9444C21.8248 17.9444 21.6004 18.0373 21.4349 18.2028C21.2694 18.3683 21.1765 18.5927 21.1765 18.8267V23.2385H17.6471V15.2973C17.6471 15.0633 17.5541 14.8389 17.3886 14.6734C17.2232 14.5079 16.9987 14.415 16.7647 14.415C16.5307 14.415 16.3063 14.5079 16.1408 14.6734C15.9753 14.8389 15.8824 15.0633 15.8824 15.2973V23.2385H12.3529V10.0032C12.3529 9.76919 12.26 9.54476 12.0945 9.37929C11.929 9.21382 11.7046 9.12086 11.4706 9.12086C11.2366 9.12086 11.0121 9.21382 10.8467 9.37929C10.6812 9.54476 10.5882 9.76919 10.5882 10.0032V23.2385H7.05882V18.8267C7.05882 18.5927 6.96586 18.3683 6.80039 18.2028C6.63491 18.0373 6.41048 17.9444 6.17647 17.9444C5.94246 17.9444 5.71803 18.0373 5.55255 18.2028C5.38708 18.3683 5.29412 18.5927 5.29412 18.8267V23.2385H1.76471V2.06204H35.2941V28.5326H1.76471ZM40.5882 33.8267H7.05882V30.2973H35.2941C35.7621 30.2973 36.211 30.1114 36.542 29.7804C36.8729 29.4495 37.0588 29.0006 37.0588 28.5326V7.35615H40.5882V33.8267Z" fill="#0026E6"/>
</g>
<defs>
<clipPath id="clip0">
<rect width="42.353" height="36" fill="white"/>
</clipPath>
</defs>
</svg>
