<svg width="42" height="42" viewBox="0 0 42 42" fill="none" xmlns="http://www.w3.org/2000/svg">
<g clip-path="url(#clip0)">
<path d="M26.04 38.64H23.52V33.6H24.36C24.5828 33.6 24.7964 33.5115 24.954 33.354C25.1115 33.1964 25.2 32.9828 25.2 32.76C25.2 32.5372 25.1115 32.3236 24.954 32.166C24.7964 32.0085 24.5828 31.92 24.36 31.92H2.52C2.29722 31.92 2.08356 31.8315 1.92603 31.674C1.7685 31.5164 1.68 31.3028 1.68 31.08V26.88H24.36C24.5828 26.88 24.7964 26.7915 24.954 26.634C25.1115 26.4764 25.2 26.2628 25.2 26.04C25.2 25.8172 25.1115 25.6036 24.954 25.446C24.7964 25.2885 24.5828 25.2 24.36 25.2H1.68V2.52C1.68 2.29722 1.7685 2.08356 1.92603 1.92603C2.08356 1.7685 2.29722 1.68 2.52 1.68H36.12C36.3428 1.68 36.5564 1.7685 36.714 1.92603C36.8715 2.08356 36.96 2.29722 36.96 2.52V15.96C36.96 16.1828 37.0485 16.3964 37.206 16.554C37.3636 16.7115 37.5772 16.8 37.8 16.8C38.0228 16.8 38.2364 16.7115 38.394 16.554C38.5515 16.3964 38.64 16.1828 38.64 15.96V2.52C38.6393 1.85187 38.3736 1.21131 37.9011 0.738877C37.4287 0.266439 36.7881 0.000711531 36.12 0L2.52 0C1.85187 0.000711531 1.21131 0.266439 0.738877 0.738877C0.266439 1.21131 0.000711531 1.85187 0 2.52L0 31.08C0.000711531 31.7481 0.266439 32.3887 0.738877 32.8611C1.21131 33.3336 1.85187 33.5993 2.52 33.6H15.12V38.64H12.6C12.3772 38.64 12.1636 38.7285 12.006 38.886C11.8485 39.0436 11.76 39.2572 11.76 39.48C11.76 39.7028 11.8485 39.9164 12.006 40.074C12.1636 40.2315 12.3772 40.32 12.6 40.32H26.04C26.2628 40.32 26.4764 40.2315 26.634 40.074C26.7915 39.9164 26.88 39.7028 26.88 39.48C26.88 39.2572 26.7915 39.0436 26.634 38.886C26.4764 38.7285 26.2628 38.64 26.04 38.64ZM21.84 38.64H16.8V33.6H21.84V38.64Z" fill="#0026E6"/>
<path d="M40.3201 20.16H30.2401C29.7945 20.16 29.3672 20.337 29.0521 20.6521C28.7371 20.9672 28.5601 21.3945 28.5601 21.84V38.64C28.5601 39.0856 28.7371 39.5129 29.0521 39.828C29.3672 40.143 29.7945 40.32 30.2401 40.32H40.3201C40.7656 40.32 41.1929 40.143 41.508 39.828C41.8231 39.5129 42.0001 39.0856 42.0001 38.64V21.84C42.0001 21.3945 41.8231 20.9672 41.508 20.6521C41.1929 20.337 40.7656 20.16 40.3201 20.16ZM40.3201 38.64H30.2401V21.84H40.3201V38.64Z" fill="#0026E6"/>
<path d="M34.4401 36.96H36.1201C36.3429 36.96 36.5565 36.8715 36.7141 36.714C36.8716 36.5565 36.9601 36.3428 36.9601 36.12C36.9601 35.8972 36.8716 35.6836 36.7141 35.5261C36.5565 35.3685 36.3429 35.28 36.1201 35.28H34.4401C34.2173 35.28 34.0037 35.3685 33.8461 35.5261C33.6886 35.6836 33.6001 35.8972 33.6001 36.12C33.6001 36.3428 33.6886 36.5565 33.8461 36.714C34.0037 36.8715 34.2173 36.96 34.4401 36.96Z" fill="#0026E6"/>
<path d="M16.6087 18.2037C16.4051 18.4078 16.1633 18.5698 15.8971 18.6803C15.6308 18.7909 15.3454 18.8477 15.0571 18.8477C14.7689 18.8477 14.4834 18.7909 14.2172 18.6803C13.951 18.5698 13.7091 18.4078 13.5056 18.2037L13.2398 17.8819L9.30154 13.1056C9.11124 12.8875 8.96603 12.6339 8.87427 12.3593C8.78252 12.0848 8.74605 11.7948 8.76696 11.5061C8.78787 11.2174 8.86575 10.9357 8.9961 10.6772C9.12646 10.4187 9.30671 10.1887 9.52645 10.0002C9.74619 9.81181 10.0011 9.66877 10.2764 9.57936C10.5517 9.48995 10.842 9.45595 11.1305 9.47933C11.419 9.5027 11.7001 9.58298 11.9574 9.71553C12.2147 9.84809 12.4433 10.0303 12.6298 10.2516L16.6087 15.1035C17.0198 15.5146 17.2507 16.0722 17.2507 16.6536C17.2507 17.235 17.0198 17.7926 16.6087 18.2037Z" fill="#0026E6"/>
<path d="M28.6753 12.9797L24.8125 17.7112C24.7548 17.7917 24.6902 17.867 24.6195 17.9365C24.4114 18.1458 24.164 18.312 23.8915 18.4254C23.619 18.5388 23.3267 18.5972 23.0316 18.5972C22.7364 18.5972 22.4442 18.5388 22.1716 18.4254C21.8991 18.312 21.6517 18.1458 21.4437 17.9365C21.3692 17.8678 21.3013 17.7924 21.2408 17.7112H21.2296C21.2296 17.7112 17.4998 13.0846 17.4998 13.0818C17.0965 12.6444 16.8835 12.0646 16.9076 11.4701C16.9196 11.1757 16.9894 10.8865 17.1131 10.6192C17.2368 10.3518 17.4119 10.1113 17.6285 9.91163C17.8451 9.71192 18.099 9.55684 18.3755 9.45522C18.6521 9.35361 18.9459 9.30746 19.2403 9.31942C19.8348 9.34355 20.3954 9.60288 20.7987 10.0403C20.8631 10.1047 20.9806 10.246 20.9806 10.246L23.0232 12.8832L25.1441 10.2082C25.1875 10.1551 25.235 10.1019 25.284 10.0529C25.6721 9.6036 26.2228 9.32684 26.815 9.28355C27.4072 9.24026 27.9923 9.43398 28.4416 9.82209C28.8909 10.2102 29.1677 10.7609 29.211 11.3531C29.2543 11.9453 29.0606 12.5304 28.6725 12.9797H28.6753Z" fill="#0026E6"/>
</g>
<defs>
<clipPath id="clip0">
<rect width="42" height="42" fill="white"/>
</clipPath>
</defs>
</svg>
