<?xml version="1.0" encoding="UTF-8" standalone="no"?>
<!-- Created with Keyshape -->
<svg xmlns="http://www.w3.org/2000/svg" width="51" height="51" viewBox="0 0 51 51" fill="none">
    <defs>
        <clipPath id="ClipPath-6">
            <rect width="0.520543" height="7.55488" fill="#2781ff" fill-opacity="1" stroke="none" transform="translate(25.9092,33.5941) scale(1.42857,1.42857) translate(-17.3873,-3.77744)" style="animation: 2s linear 4s both a0_t, 2s linear 4s both a0_w;"/>
        </clipPath>
        <clipPath id="ClipPath-7">
            <path d="M-25.8866,21.3314L-25.8866,27.2198L-27.1087,26.9976L-28.553,26.9976L-28.553,21.5536L-26.9976,21.5536C-26.9976,21.5536,-25.8866,21.3314,-25.8866,21.3314Z" fill="#2781ff" fill-opacity="1" stroke="none" transform="translate(45.6466,8.20248) scale(1.42857,1.42857)" style="animation: 2s linear 4s both a1_t, 2s linear 4s both a1_d;"/>
        </clipPath>
        <clipPath id="ClipPath-1">
            <rect width="3.04027" height="0.637061" fill="#2781ff" stroke="none" transform="translate(26.2532,0.868842) rotate(90) translate(-1.52014,3.07522)" style="animation: 2s linear 4s both a3_t, 2s linear 4s both a3_h;"/>
        </clipPath>
        <clipPath id="ClipPath-4">
            <rect width="2.79285" height="0.498719" fill="#2781ff" stroke="none" transform="translate(25.9228,0.671335) rotate(90) translate(-1.39643,2.81779)" style="animation: 2s linear 4s both a4_t, 2s linear 4s both a4_h;"/>
        </clipPath>
        <clipPath id="ClipPath-2">
            <rect width="3.59081" height="0.19946" fill="#2781ff" stroke="none" transform="translate(21.9217,0.714167) rotate(90) translate(-1.79541,7.08188)" style="animation: 2s linear 4s both a5_t, 2s linear 4s both a5_h;"/>
        </clipPath>
        <clipPath id="ClipPath-5">
            <rect width="3.74043" height="0.349122" fill="#2781ff" stroke="none" transform="translate(20.2906,0.656685) rotate(90) translate(-1.87021,8.77754)" style="animation: 2s linear 4s both a6_t, 2s linear 4s both a6_h;"/>
        </clipPath>
        <clipPath id="ClipPath-3">
            <rect width="2.94247" height="0.398983" fill="#2781ff" stroke="none" transform="translate(24.6111,0.615757) rotate(90) translate(-1.47123,4.83762)" style="animation: 2s linear 4s both a7_t, 2s linear 4s both a7_h;"/>
        </clipPath>
    </defs>
    <style>
@keyframes a0_t { 0% { transform: translate(25.9092px,33.5941px) scale(1.42857,1.42857) translate(-17.3873px,-3.77744px); } 70% { transform: translate(25.9092px,33.5941px) scale(1.42857,1.42857) translate(-17.3873px,-3.77744px); } 100% { transform: translate(25.9092px,33.5941px) scale(1.42857,1.42857) translate(-17.3873px,-3.77744px); } }
@keyframes a0_w { 0% { width: 0.520543px; } 55% { width: 0.520543px; } 70% { width: 0.999943px; animation-timing-function: cubic-bezier(0,0,0,1); } 90% { width: 33.7748px; } 100% { width: 33.7748px; } }
@keyframes a1_t { 0% { transform: translate(45.6466px,8.20248px) scale(1.42857,1.42857) translate(0px,0px); } 70% { transform: translate(45.6466px,8.20248px) scale(1.42857,1.42857) translate(0px,0px); } 100% { transform: translate(45.6466px,8.20248px) scale(1.42857,1.42857) translate(0px,0px); } }
@keyframes a1_d { 0% { d: path('M-25.8866,21.3314L-25.8866,27.2198L-27.1087,26.9976L-28.553,26.9976L-28.553,21.5536L-26.9976,21.5536C-26.9976,21.5536,-25.8866,21.3314,-25.8866,21.3314Z'); } 70% { d: path('M-25.8866,21.3314L-25.8866,27.2198L-27.1087,26.9976L-28.553,26.9976L-28.553,21.5536L-26.9976,21.5536C-26.9976,21.5536,-25.8866,21.3314,-25.8866,21.3314Z'); animation-timing-function: cubic-bezier(0.42,0,1,1); } 85% { d: path('M2.1134,21.3314L6.44386,26.5532L5.44395,26.6643L-28.553,26.9976L-28.553,21.5536L1.0024,21.5536C1.0024,21.5536,2.1134,21.3314,2.1134,21.3314Z'); animation-timing-function: cubic-bezier(0,0,0.58,1); } 100% { d: path('M1.77761,0.222172L6.55496,0.333273L5.44395,26.6643L-28.553,26.9976L-28.553,21.5536L1.0024,21.5536C1.0024,21.5536,1.77761,0.222172,1.77761,0.222172Z'); } }
@keyframes a2_t { 0% { transform: translate(24.7759px,26.7241px) scale(0.7,0.7) translate(-28px,-23.5px); } 40% { transform: translate(24.7759px,26.7241px) scale(0.7,0.7) translate(-28px,-23.5px); animation-timing-function: cubic-bezier(0.42,0,1,1); } 55% { transform: translate(24.7759px,26.7241px) scale(0.8,0.8) translate(-28px,-23.5px); animation-timing-function: cubic-bezier(0,0,0.58,1); } 70% { transform: translate(24.7759px,26.7241px) scale(0.7,0.7) translate(-28px,-23.5px); } 100% { transform: translate(24.7759px,26.7241px) scale(0.7,0.7) translate(-28px,-23.5px); } }
@keyframes horizontal-bar_d { 0% { d: path('M27.3223,0L0.037844,0L0.037844,1.65392L27.2894,1.65392C27.3042,1.65471,27.3191,1.65511,27.334,1.65511C27.7904,1.65511,28.1603,1.2847,28.1603,0.827771C28.1603,0.370845,27.7904,0.000433924,27.334,0.000433924L27.3223,0.000514882Z'); } 40% { d: path('M27.3223,0L0.037844,0L0.037844,1.65392L27.2894,1.65392C27.3042,1.65471,27.3191,1.65511,27.334,1.65511C27.7904,1.65511,28.1603,1.2847,28.1603,0.827771C28.1603,0.370845,27.7904,0.000433924,27.334,0.000433924L27.3223,0.000514882Z'); animation-timing-function: cubic-bezier(0.42,0,1,1); } 55% { d: path('M27.248,0L-2.45503,0L-2.45503,1.65392L27.2122,1.65392C27.2283,1.65471,27.2445,1.65511,27.2608,1.65511C27.7576,1.65511,28.1603,1.2847,28.1603,0.827771C28.1603,0.370845,27.7576,0.000433924,27.2608,0.000433924L27.248,0.000514882Z'); animation-timing-function: cubic-bezier(0,0,0.58,1); } 70% { d: path('M27.3194,0L-0.0580334,0L-0.0580334,1.65392L27.2864,1.65392C27.3013,1.65471,27.3162,1.65511,27.3312,1.65511C27.7891,1.65511,28.1603,1.2847,28.1603,0.827771C28.1603,0.370845,27.7891,0.000433924,27.3312,0.000433924L27.3194,0.000514882Z'); } 100% { d: path('M27.3194,0L-0.0580334,0L-0.0580334,1.65392L27.2864,1.65392C27.3013,1.65471,27.3162,1.65511,27.3312,1.65511C27.7891,1.65511,28.1603,1.2847,28.1603,0.827771C28.1603,0.370845,27.7891,0.000433924,27.3312,0.000433924L27.3194,0.000514882Z'); } }
@keyframes a3_t { 0% { transform: translate(26.2532px,0.868842px) rotate(90deg) translate(-1.52014px,3.075216px); } 15% { transform: translate(26.2532px,0.868842px) rotate(90deg) translate(-1.52014px,-2.074328px); } 100% { transform: translate(26.2532px,0.868842px) rotate(90deg) translate(-1.52014px,-2.074328px); } }
@keyframes a3_h { 0% { height: 0.637061px; animation-timing-function: cubic-bezier(0,0,0,1); } 15% { height: 5.7866px; } 100% { height: 5.7866px; } }
@keyframes a4_t { 0% { transform: translate(25.9228px,0.671335px) rotate(90deg) translate(-1.39643px,2.817791px); } 20% { transform: translate(25.9228px,0.671335px) rotate(90deg) translate(-1.39643px,2.817791px); } 40% { transform: translate(25.9228px,0.671335px) rotate(90deg) translate(-1.39643px,-2.718042px); } 100% { transform: translate(25.9228px,0.671335px) rotate(90deg) translate(-1.39643px,-2.718042px); } }
@keyframes a4_h { 0% { height: 0.498719px; } 20% { height: 0.498719px; animation-timing-function: cubic-bezier(0,0,0,1); } 40% { height: 6.03455px; } 100% { height: 6.03455px; } }
@keyframes a5_t { 0% { transform: translate(21.9217px,0.714167px) rotate(90deg) translate(-1.79541px,7.08188px); } 10% { transform: translate(21.9217px,0.714167px) rotate(90deg) translate(-1.79541px,7.08188px); } 30% { transform: translate(21.9217px,0.714167px) rotate(90deg) translate(-1.79541px,-6.633019px); } 100% { transform: translate(21.9217px,0.714167px) rotate(90deg) translate(-1.79541px,-6.633019px); } }
@keyframes a5_h { 0% { height: 0.19946px; } 10% { height: 0.19946px; animation-timing-function: cubic-bezier(0,0,0,1); } 30% { height: 13.9144px; } 100% { height: 13.9144px; } }
@keyframes a6_t { 0% { transform: translate(20.2906px,0.656685px) rotate(90deg) translate(-1.87021px,8.777538px); } 20% { transform: translate(20.2906px,0.656685px) rotate(90deg) translate(-1.87021px,-8.328682px); } 100% { transform: translate(20.2906px,0.656685px) rotate(90deg) translate(-1.87021px,-8.328682px); } }
@keyframes a6_h { 0% { height: 0.349122px; animation-timing-function: cubic-bezier(0,0,0,1.03); } 20% { height: 17.4553px; } 100% { height: 17.4553px; } }
@keyframes a7_t { 0% { transform: translate(24.6111px,0.615757px) rotate(90deg) translate(-1.47123px,4.837617px); } 5% { transform: translate(24.6111px,0.615757px) rotate(90deg) translate(-1.47123px,4.837617px); } 20% { transform: translate(24.6111px,0.615757px) rotate(90deg) translate(-1.47123px,-4.089536px); } 100% { transform: translate(24.6111px,0.615757px) rotate(90deg) translate(-1.47123px,-4.089536px); } }
@keyframes a7_h { 0% { height: 0.398983px; } 5% { height: 0.398983px; animation-timing-function: cubic-bezier(0,0,0,1); } 20% { height: 9.32614px; } 100% { height: 9.32614px; } }
    </style>
    <path d="M49.1791,30.5498L2.3335,30.5498L2.3335,37.0188L49.1791,37.0188L49.1791,30.5498Z" fill="#2781FF" fill-opacity="0.2" clip-path="url(#ClipPath-6)" transform="translate(21.1784,35.9337) scale(0.7,0.7) translate(-24.5002,-35.2498)"/>
    <path d="M53.6668,44.6499L9.3335,44.6499L9.3335,39.9499L46.6668,39.9499C48.0668,39.9499,49.0002,39.0099,49.0002,37.5999L49.0002,9.3999L53.6668,9.3999L53.6668,44.6499Z" fill="#2781FF" fill-opacity="0.2" clip-path="url(#ClipPath-7)" transform="translate(27.2053,29.1743) scale(0.7,0.7) translate(-31.5002,-27.0249)"/>
    <path d="M53.6667,7.05L49,7.05L49,2.35C49,0.94,48.0667,0,46.6667,0L2.33333,0C0.933333,0,0,0.94,0,2.35L0,37.6C0,39.01,0.933333,39.95,2.33333,39.95L7,39.95L7,44.65C7,46.06,7.93333,47,9.33333,47L53.6667,47C55.0667,47,56,46.06,56,44.65L56,9.4C56,7.99,55.0667,7.05,53.6667,7.05ZM2.33333,2.35L46.6667,2.35L46.6667,37.6L2.33333,37.6L2.33333,37.6M53.6667,44.65L9.33333,44.65L9.33333,39.95L46.6667,39.95C48.0667,39.95,49,39.01,49,37.6L49,9.4L53.6667,9.4L53.6667,44.65Z" fill="#2781FF" transform="translate(24.7759,26.7241) scale(0.7,0.7) translate(-28,-23.5)" style="animation: 2s linear 4s both a2_t;"/>
    <path id="horizontal-bar" fill="#2781ff" stroke="none" stroke-linecap="butt" d="M27.3223,0L0.037844,0L0.037844,1.65392L27.2894,1.65392C27.3042,1.65471,27.3191,1.65511,27.334,1.65511C27.7904,1.65511,28.1603,1.2847,28.1603,0.827771C28.1603,0.370845,27.7904,0.000433924,27.334,0.000433924L27.3223,0.000514882Z" fill-rule="evenodd" transform="translate(9.95957,31.9995) translate(-3.38917,-0.339521)" style="animation: 2s linear 4s both horizontal-bar_d;"/>
    <path id="bar-1" fill="#2781ff" stroke="none" stroke-linecap="butt" d="M27.3281,0L23.1536,-0.00585946L23.1536,1.64806L27.2954,1.65392C27.3101,1.65471,27.3249,1.65511,27.3397,1.65511C27.793,1.65511,28.1603,1.2847,28.1603,0.827771C28.1603,0.370845,27.793,0.000433924,27.3397,0.000433924L27.3281,0.000514882Z" fill-rule="evenodd" clip-path="url(#ClipPath-1)" transform="translate(10.3912,51.4846) rotate(-90) translate(-3.38917,-0.339521)"/>
    <path id="bar-4" fill="#2781ff" stroke="none" stroke-linecap="butt" d="M27.3281,0L23.1731,0L23.1731,1.65392L27.2954,1.65392C27.3101,1.65471,27.3249,1.65511,27.3397,1.65511C27.793,1.65511,28.1603,1.2847,28.1603,0.827771C28.1603,0.370845,27.793,0.000433924,27.3397,0.000433924L27.3281,0.000514882Z" fill-rule="evenodd" clip-path="url(#ClipPath-4)" transform="translate(25.153,51.4846) rotate(-90) translate(-3.38917,-0.339521)"/>
    <path id="bar-2" fill="#2781ff" stroke="none" stroke-linecap="butt" d="M27.3281,0L14.9861,0L14.9861,1.65392L27.2954,1.65392C27.3101,1.65471,27.3249,1.65511,27.3397,1.65511C27.793,1.65511,28.1603,1.2847,28.1603,0.827771C28.1603,0.370845,27.793,0.000433924,27.3397,0.000433924L27.3281,0.000514882Z" fill-rule="evenodd" clip-path="url(#ClipPath-2)" transform="translate(15.2853,43.2692) rotate(-90) translate(-3.38917,-0.339521)"/>
    <path id="bar-5" fill="#2781ff" stroke="none" stroke-linecap="butt" d="M27.3281,0L11.6042,0L11.6042,1.65392L27.2954,1.65392C27.3101,1.65471,27.3249,1.65511,27.3397,1.65511C27.793,1.65511,28.1603,1.2847,28.1603,0.827771C28.1603,0.370845,27.793,0.000433924,27.3397,0.000433924L27.3281,0.000514882Z" fill-rule="evenodd" clip-path="url(#ClipPath-5)" transform="translate(30.08,39.8926) rotate(-90) translate(-3.38917,-0.339521)"/>
    <path id="bar-3" fill="#2781ff" stroke="none" stroke-linecap="butt" d="M27.3281,0L19.917,0L19.917,1.65392L27.2954,1.65392C27.3101,1.65471,27.3249,1.65511,27.3397,1.65511C27.793,1.65511,28.1603,1.2847,28.1603,0.827771C28.1603,0.370845,27.793,0.000433924,27.3397,0.000433924L27.3281,0.000514882Z" fill-rule="evenodd" clip-path="url(#ClipPath-3)" transform="translate(20.1964,48.2029) rotate(-90) translate(-3.38917,-0.339521)"/>
</svg>
