<svg width="41" height="41" viewBox="0 0 41 41" fill="none" xmlns="http://www.w3.org/2000/svg">
<path d="M30.7484 16.5116L31.3784 15.8991C31.7384 15.5491 31.7384 15.0241 31.3784 14.6741L30.1184 13.4491L30.7484 12.7491C31.1084 12.3991 31.1084 11.8741 30.7484 11.5241L30.1184 10.9116C29.9384 10.7366 29.6684 10.6491 29.4884 10.6491C29.3084 10.6491 29.0384 10.7366 28.8584 10.9116L28.2284 11.5241L26.9684 10.2991C26.7884 10.1241 26.5184 10.0366 26.3384 10.0366C26.1584 10.0366 25.8884 10.1241 25.7084 10.2991L24.9884 10.9116L24.3584 10.2991C24.1784 10.1241 23.9984 10.0366 23.7284 10.0366C23.4584 10.0366 23.2784 10.1241 23.0984 10.2991L22.4684 10.9116C22.1084 11.2616 22.1084 11.7866 22.4684 12.1366L24.9884 14.5866L13.8284 25.4366L11.3084 22.9866C11.1284 22.8116 10.8584 22.7241 10.6784 22.7241C10.4984 22.7241 10.2284 22.8116 10.0484 22.9866L9.41844 23.5991C9.05844 23.9491 9.05844 24.4741 9.41844 24.8241L10.0484 25.4366L9.41844 26.0491C9.05844 26.3991 9.05844 26.9241 9.41844 27.2741L10.6784 28.4991L10.0484 29.1991C9.68844 29.5491 9.68844 30.0741 10.0484 30.4241L10.6784 31.0366C10.8584 31.2116 11.1284 31.2991 11.3084 31.2991C11.4884 31.2991 11.7584 31.2116 11.9384 31.0366L12.5684 30.4241L13.8284 31.6491C14.0084 31.8241 14.2784 31.9116 14.4584 31.9116C14.6384 31.9116 14.9084 31.8241 15.0884 31.6491L15.8084 31.0366L16.4384 31.6491C16.6184 31.8241 16.7984 31.9116 17.0684 31.9116C17.3384 31.9116 17.5184 31.8241 17.6984 31.6491L18.3284 31.0366C18.6884 30.6866 18.6884 30.1616 18.3284 29.8116L15.8084 27.3616L26.9684 16.5116L29.4884 18.9616C29.6684 19.1366 29.9384 19.2241 30.1184 19.2241C30.2984 19.2241 30.5684 19.1366 30.7484 18.9616L31.3784 18.3491C31.7384 17.9991 31.7384 17.4741 31.3784 17.1241L30.7484 16.5116ZM11.3084 30.4241L10.6784 29.8116L11.3084 29.1991L11.9384 29.8116L11.3084 30.4241ZM14.4584 31.0366L12.6584 29.2866L11.3084 27.9741L10.0484 26.7491L10.6784 26.1366L15.1784 30.4241L14.4584 31.0366ZM17.0684 31.0366L10.0484 24.2116L10.6784 23.5991L17.6984 30.4241L17.0684 31.0366ZM15.1784 26.7491L14.5484 26.1366L25.6184 15.2866L26.2484 15.8991L15.1784 26.7491ZM29.4884 11.5241L30.1184 12.1366L29.4884 12.7491L28.8584 12.1366L29.4884 11.5241ZM25.6184 11.5241L26.2484 10.9116L30.7484 15.2866L30.1184 15.8991L28.5884 14.4116L25.6184 11.5241ZM30.1184 18.3491L23.0984 11.5241L23.7284 10.9116L30.7484 17.7366L30.1184 18.3491Z" fill="white"/>
</svg>
