<svg width="38" height="31" viewBox="0 0 38 31" fill="none" xmlns="http://www.w3.org/2000/svg">
<path d="M1.65217 17.9474L36.3478 21.2105V25.9421L0 21.2105L1.65217 17.9474Z" fill="#1F1F1F" fill-opacity="0.2"/>
<path d="M37.1739 0C36.6783 0 36.3478 0.326316 36.3478 0.815789V1.79474L2.14783 6.2C0.991304 6.36316 0 7.50526 0 8.64737V20.7211C0 22.0263 0.991304 23.0053 2.14783 23.1684L9.91304 24.1474V28.5526C9.91304 28.8789 10.2435 29.2053 10.5739 29.3684L18.8348 31H19C19.4957 31 19.8261 30.6737 19.8261 30.1842V25.4526L36.3478 27.5737V28.5526C36.3478 29.0421 36.6783 29.3684 37.1739 29.3684C37.6696 29.3684 38 29.0421 38 28.5526V0.815789C38 0.326316 37.6696 0 37.1739 0ZM1.65217 20.7211V8.64737C1.65217 8.1579 1.98261 7.83158 2.31304 7.83158L28.087 4.56842V24.8L2.31304 21.5368C1.98261 21.3737 1.65217 21.0474 1.65217 20.7211ZM18.1739 29.2053L11.5652 27.9V24.3105L18.1739 25.1263V29.2053ZM29.7391 24.9632V4.40526L36.3478 3.58947V25.9421L29.7391 24.9632Z" fill="#1F1F1F"/>
</svg>
