<svg width="32" height="16" viewBox="0 0 32 16" fill="none" xmlns="http://www.w3.org/2000/svg">
<path d="M31.104 1.6C30.336 0.933333 29.312 0.933333 28.416 1.46667L19.072 7.33333L17.024 6.93333C18.048 5.86667 18.176 4.13333 17.152 2.93333C16.896 2.66667 16.512 2.4 16 2.26667L9.856 0C9.728 0 9.6 0 9.472 0L5.12 1.2C4.992 0.533333 4.48 0 3.84 0H0.64C0.256 0 0 0.266667 0 0.666667C0 1.06667 0.256 1.33333 0.64 1.33333H3.84V13.3333H0.64C0.256 13.3333 0 13.6 0 14C0 14.4 0.256 14.6667 0.64 14.6667H3.84C4.608 14.6667 5.12 14.1333 5.12 13.3333V13.0667L7.04 12L17.536 15.7333C18.688 16.1333 19.84 15.8667 20.736 14.9333L31.232 5.06667C32.128 4.13333 32.256 2.66667 31.36 1.6C31.232 1.73333 31.232 1.6 31.104 1.6ZM30.464 4.26667L19.968 14.1333C19.456 14.6667 18.688 14.8 18.048 14.5333L7.296 10.6667C7.168 10.6667 6.912 10.6667 6.784 10.6667L5.12 11.6V2.53333L9.6 1.33333L15.744 3.46667C16.384 3.73333 16.768 4.53333 16.64 5.33333C16.384 6 15.744 6.4 15.104 6.4L12.928 6.13333C12.544 6.13333 12.288 6.26667 12.16 6.66667C12.16 7.06667 12.288 7.33333 12.672 7.46667L19.072 8.8C19.2 8.8 19.328 8.8 19.584 8.66667L29.184 2.66667C29.696 2.26667 30.336 2.4 30.592 2.93333C30.592 3.06667 30.72 3.2 30.72 3.46667C30.72 3.73333 30.592 4 30.464 4.26667Z" fill="white"/>
</svg>
