<svg width="41" height="41" viewBox="0 0 41 41" fill="none" xmlns="http://www.w3.org/2000/svg">
<path d="M24.2074 23.3984C28.9444 23.3984 31.9099 17.9875 31.9099 14.6711C30.8986 15.4891 29.6094 15.8755 28.3186 15.7475C26.9611 15.7475 25.5361 15.5535 24.3711 15.5535C23.9937 15.5455 23.6164 15.5747 23.2446 15.6408C22.1338 15.8531 21.135 16.4585 20.4287 17.3477C19.7224 18.2369 19.3552 19.3512 19.3934 20.4893V27.2771C18.0781 27.3959 16.8546 28.0061 15.9637 28.9878C15.0728 29.9694 14.5789 31.2514 14.5794 32.5814V33.0953H25.1702V32.6105C25.1707 31.2805 24.6769 29.9985 23.7859 29.0168C22.895 28.0352 21.6715 27.4249 20.3562 27.3062V22.1668C21.4708 22.9923 22.8242 23.4251 24.2074 23.3984ZM23.4276 16.6105C23.7456 16.557 24.068 16.5343 24.3904 16.5426C24.9103 16.5426 25.5168 16.5426 26.1523 16.6299C26.7877 16.7171 27.5965 16.7365 28.3379 16.7365C29.1331 16.7498 29.9265 16.6552 30.6967 16.4553C29.9265 19.1608 27.6061 22.4481 24.2267 22.4481C21.993 22.4481 20.3755 21.2941 20.3755 20.5087C20.3514 19.602 20.6436 18.7156 21.2012 18.0034C21.7588 17.2912 22.5466 16.7984 23.4276 16.6105ZM24.1785 32.1256H15.6192C15.7417 31.0626 16.2478 30.0819 17.0413 29.3701C17.8348 28.6583 18.8603 28.265 19.9229 28.265C20.9855 28.265 22.0111 28.6583 22.8046 29.3701C23.5981 30.0819 24.1042 31.0626 24.2267 32.1256H24.1785ZM18.4017 21.459C18.4017 11.762 10.6993 13.4978 10.6993 8.85291C9.72684 9.8226 9.20692 11.7038 8.94696 13.6238C8.82501 14.5362 8.88863 15.4641 9.13395 16.351C9.37927 17.2379 9.80116 18.0653 10.374 18.7828C10.9468 19.5003 11.6585 20.0929 12.4659 20.5246C13.2733 20.9564 14.1594 21.2182 15.0704 21.2941C16.2258 21.3911 17.3908 21.459 18.4306 21.459H18.4017ZM11.094 18.1426C10.6083 17.5329 10.2517 16.8295 10.0464 16.0756C9.84106 15.3218 9.79128 14.5335 9.90014 13.7596C10.0035 12.8987 10.1938 12.0506 10.4682 11.2287C11.1686 12.1146 12.0356 12.8528 13.0196 13.4008C15.0608 14.7196 17.1693 16.0868 17.4389 20.4893C16.7457 20.4893 15.9851 20.4117 15.1571 20.3438C14.366 20.2777 13.5969 20.0482 12.8979 19.6694C12.1988 19.2907 11.5848 18.771 11.094 18.1426Z" fill="white"/>
</svg>
