<svg width="96" height="96" viewBox="0 0 96 96" fill="none" xmlns="http://www.w3.org/2000/svg">
<path opacity="0.2" d="M42.4321 52.5714C41.7361 52.5714 41.2721 52.8 41.0401 53.4857C41.0401 54.1714 41.2721 54.6286 41.9681 54.8571L48.9281 56.2286C49.1601 56 49.1601 55.5428 49.1601 55.3143C49.1601 54.4 50.7841 53.4857 49.8561 53.0286C49.3921 53.2571 48.9281 53.2571 48.4641 53.2571L42.4321 52.5714Z" fill="#1F1F1F"/>
<path opacity="0.2" d="M72.5921 48.6858L54.9601 64.2287C54.0321 65.1429 52.6401 65.3715 51.4801 64.9144L32.2241 58.2858C31.9921 58.2858 31.5281 58.2858 31.2961 58.2858L28.2801 59.8858V64.4572L31.2961 63.0858C31.5281 62.8572 31.7601 62.8572 32.2241 62.8572L51.7121 69.4858C52.8721 69.9429 54.2641 69.4858 55.1921 68.8001L74.2161 51.8858C74.6801 51.4286 74.9121 50.9715 74.6801 50.5144C74.6801 49.3715 73.7521 48.6858 72.5921 48.6858Z" fill="#1F1F1F"/>
<path d="M59.6002 40H54.9602C54.2642 40 53.8002 40.4571 53.8002 41.1429C53.8002 41.8286 54.2642 42.2857 54.9602 42.2857H58.4402V43.4286C58.4402 44.1143 58.9042 44.5714 59.6002 44.5714C60.2962 44.5714 60.7602 44.1143 60.7602 43.4286V42.2857H63.0802C64.4722 42.2857 65.4002 41.3714 65.4002 40V35.4286C65.4002 34.0571 64.4722 33.1429 63.0802 33.1429H56.1202V28.5714H64.2402C64.9362 28.5714 65.4002 28.1143 65.4002 27.4286C65.4002 26.7429 64.9362 26.2857 64.2402 26.2857H60.7602V25.1429C60.7602 24.4571 60.2962 24 59.6002 24C58.9042 24 58.4402 24.4571 58.4402 25.1429V26.2857H56.1202C54.7282 26.2857 53.8002 27.2 53.8002 28.5714V33.1429C53.8002 34.5143 54.7282 35.4286 56.1202 35.4286H63.0802V40H59.6002Z" fill="#1F1F1F"/>
<path d="M75.376 47.3143C73.984 46.1714 72.128 46.1714 70.504 47.0857L53.568 57.1428L49.856 56.4571C51.712 54.6286 51.944 51.6571 50.088 49.6C49.624 49.1428 48.928 48.6857 48 48.4571L36.864 44.5714C36.632 44.5714 36.4 44.5714 36.168 44.5714L28.28 46.6286C28.048 45.4857 27.12 44.5714 25.96 44.5714H20.16C19.464 44.5714 19 45.0286 19 45.7143C19 46.4 19.464 46.8571 20.16 46.8571H25.96V67.4286H20.16C19.464 67.4286 19 67.8857 19 68.5714C19 69.2571 19.464 69.7143 20.16 69.7143H25.96C27.352 69.7143 28.28 68.8 28.28 67.4286V66.9714L31.76 65.1428L50.784 71.5428C52.872 72.2285 54.96 71.7714 56.584 70.1714L75.608 53.2571C77.232 51.6571 77.464 49.1428 75.84 47.3143C75.608 47.5428 75.608 47.3143 75.376 47.3143ZM74.216 51.8857L55.192 68.8C54.264 69.7143 52.872 69.9428 51.712 69.4857L32.224 62.8571C31.992 62.8571 31.528 62.8571 31.296 62.8571L28.28 64.4571V48.9143L36.4 46.8571L47.536 50.5143C48.928 50.9714 49.624 52.3428 49.16 53.7143C48.696 54.8571 47.536 55.5428 46.376 55.3143L42.432 54.8571C41.736 54.8571 41.272 55.0857 41.04 55.7714C41.04 56.4571 41.272 56.9143 41.968 57.1428L53.568 59.4286C53.8 59.4286 54.032 59.4286 54.496 59.2L71.896 48.9143C72.824 48.2286 73.984 48.6857 74.448 49.3714C74.68 49.6 74.68 50.0571 74.68 50.2857C74.68 50.9714 74.448 51.4286 74.216 51.8857Z" fill="#1F1F1F"/>
</svg>
