<svg width="41" height="41" viewBox="0 0 41 41" fill="none" xmlns="http://www.w3.org/2000/svg">
<path d="M26.2096 13.7014H22.8952V10.3075C22.8952 9.92168 22.7455 9.55171 22.4791 9.27893C22.2128 9.00615 21.8515 8.85291 21.4747 8.85291H18.6338C18.2571 8.85291 17.8958 9.00615 17.6294 9.27893C17.363 9.55171 17.2134 9.92168 17.2134 10.3075V13.7014H13.899C13.5222 13.7014 13.1609 13.8546 12.8946 14.1274C12.6282 14.4002 12.4785 14.7702 12.4785 15.1559V29.7014C12.4785 30.0872 12.6282 30.4571 12.8946 30.7299C13.1609 31.0027 13.5222 31.1559 13.899 31.1559H26.2096C26.5863 31.1559 26.9476 31.0027 27.214 30.7299C27.4804 30.4571 27.63 30.0872 27.63 29.7014V15.1559C27.63 14.7702 27.4804 14.4002 27.214 14.1274C26.9476 13.8546 26.5863 13.7014 26.2096 13.7014ZM18.1603 10.3075C18.1603 10.1789 18.2102 10.0555 18.299 9.96461C18.3878 9.87368 18.5082 9.8226 18.6338 9.8226H21.4747C21.6003 9.8226 21.7207 9.87368 21.8095 9.96461C21.8983 10.0555 21.9482 10.1789 21.9482 10.3075V13.7014H18.1603V10.3075ZM26.6831 29.7014C26.6831 29.83 26.6332 29.9533 26.5444 30.0442C26.4556 30.1352 26.3352 30.1862 26.2096 30.1862H13.899C13.7734 30.1862 13.653 30.1352 13.5642 30.0442C13.4754 29.9533 13.4255 29.83 13.4255 29.7014V15.1559C13.4255 15.0273 13.4754 14.904 13.5642 14.8131C13.653 14.7222 13.7734 14.6711 13.899 14.6711H26.2096C26.3352 14.6711 26.4556 14.7222 26.5444 14.8131C26.6332 14.904 26.6831 15.0273 26.6831 15.1559V29.7014ZM16.2664 31.1559C16.4537 31.1559 16.6368 31.2128 16.7925 31.3194C16.9482 31.4259 17.0696 31.5774 17.1413 31.7545C17.213 31.9317 17.2317 32.1267 17.1952 32.3148C17.1586 32.5029 17.0684 32.6757 16.936 32.8113C16.8036 32.9469 16.6348 33.0393 16.4511 33.0767C16.2674 33.1141 16.077 33.0949 15.904 33.0215C15.731 32.9481 15.5831 32.8238 15.479 32.6644C15.375 32.5049 15.3194 32.3174 15.3194 32.1256C15.3194 31.8685 15.4192 31.6218 15.5968 31.44C15.7744 31.2581 16.0152 31.1559 16.2664 31.1559ZM23.8422 31.1559C24.0294 31.1559 24.2125 31.2128 24.3683 31.3194C24.524 31.4259 24.6454 31.5774 24.717 31.7545C24.7887 31.9317 24.8075 32.1267 24.7709 32.3148C24.7344 32.5029 24.6442 32.6757 24.5118 32.8113C24.3793 32.9469 24.2106 33.0393 24.0269 33.0767C23.8432 33.1141 23.6528 33.0949 23.4798 33.0215C23.3067 32.9481 23.1588 32.8238 23.0548 32.6644C22.9507 32.5049 22.8952 32.3174 22.8952 32.1256C22.8952 31.8685 22.995 31.6218 23.1725 31.44C23.3501 31.2581 23.591 31.1559 23.8422 31.1559Z" fill="white"/>
</svg>
