<svg width="41" height="41" viewBox="0 0 41 41" fill="none" xmlns="http://www.w3.org/2000/svg">
<path d="M29.0283 17.3626H23.7061C23.7229 17.1759 23.7321 16.9868 23.7321 16.7957C23.7321 13.3524 20.9306 10.551 17.4873 10.551C16.3905 10.551 15.3116 10.8396 14.3671 11.3853C14.1862 11.4898 14.1243 11.7213 14.2288 11.9023C14.3334 12.0833 14.5649 12.1451 14.7459 12.0406C15.5753 11.5612 16.5232 11.3079 17.4873 11.3079C20.5133 11.3079 22.9753 13.7697 22.9753 16.7957C22.9753 19.8217 20.5133 22.2837 17.4873 22.2837C16.2206 22.2837 15.0307 21.864 14.0461 21.0702C13.9473 20.9907 13.8165 20.9669 13.6974 21.0034L12.6929 21.2661L13.0864 20.4014C13.143 20.2772 13.1283 20.1323 13.048 20.0219C12.3621 19.0798 11.9995 17.9642 11.9995 16.7957C11.9995 15.8291 12.2542 14.8788 12.7361 14.0476C12.8409 13.8666 12.7793 13.6352 12.5985 13.5304C12.4177 13.4255 12.1862 13.487 12.0813 13.668C11.5327 14.6143 11.2427 15.6959 11.2427 16.7957C11.2427 18.0506 11.6103 19.2522 12.308 20.2847L11.6745 21.6767C11.6139 21.8096 11.6353 21.9654 11.7293 22.0772C11.8233 22.1889 11.9732 22.2365 12.1145 22.1996L13.7238 21.7789C14.8026 22.5938 16.1314 23.0405 17.4873 23.0405C17.7825 23.0405 18.0727 23.0194 18.3569 22.9796V26.2933C18.3569 27.1696 19.0699 27.8827 19.9461 27.8827H25.2982L27.6913 29.8406C27.7602 29.8971 27.8452 29.926 27.9309 29.926C27.986 29.926 28.0413 29.9141 28.0929 29.8897C28.2251 29.827 28.3093 29.6939 28.3093 29.5476V27.8827H29.0283C29.9047 27.8827 30.6177 27.1696 30.6177 26.2933V18.952C30.6177 18.0755 29.9047 17.3626 29.0283 17.3626ZM29.8608 26.2933C29.8608 26.7523 29.4874 27.1259 29.0283 27.1259H27.9309C27.7219 27.1259 27.5525 27.2953 27.5525 27.5043V28.7491L25.6835 27.2199C25.5804 27.1259 25.4903 27.1259 25.2876 27.1259H19.9461C19.4872 27.1259 19.1138 26.7523 19.1138 26.2933V22.8252C21.3522 22.2207 23.0962 20.4005 23.5903 18.1194H29.0283C29.4874 18.1194 29.8608 18.4928 29.8608 18.952V26.2933Z" fill="white"/>
<path d="M26.3543 23.8868C26.4897 23.8226 26.5836 23.6843 26.5836 23.5235C26.5836 23.3016 26.4048 23.1214 26.1843 23.1214H26.0209L24.7333 20.1666C24.6695 20.0204 24.526 19.926 24.3676 19.926C24.2091 19.926 24.0656 20.0204 24.002 20.1666L22.7144 23.1214H22.551C22.3305 23.1214 22.1517 23.3016 22.1517 23.5235C22.1517 23.6843 22.2456 23.8226 22.381 23.8868L21.9014 24.9874C21.8128 25.1907 21.9047 25.4279 22.1065 25.5171C22.3085 25.6063 22.544 25.5138 22.6325 25.3104L23.2361 23.9255H25.4992L26.1027 25.3104C26.1684 25.4611 26.3148 25.551 26.4686 25.551C26.5221 25.551 26.5765 25.5401 26.6288 25.5171C26.8306 25.4279 26.9226 25.1907 26.8339 24.9874L26.3543 23.8868ZM23.5864 23.1214L24.3676 21.3287L25.1488 23.1214H23.5864Z" fill="white"/>
<path d="M13.4302 13.051C13.5123 13.051 13.5929 13.0176 13.6511 12.9595C13.7092 12.9014 13.7427 12.8208 13.7427 12.7385C13.7427 12.6564 13.7092 12.5758 13.6511 12.5176C13.5929 12.4595 13.5123 12.426 13.4302 12.426C13.3477 12.426 13.2673 12.4595 13.2092 12.5176C13.1511 12.5758 13.1177 12.6564 13.1177 12.7385C13.1177 12.8208 13.1511 12.9014 13.2092 12.9595C13.2673 13.0177 13.3479 13.051 13.4302 13.051Z" fill="white"/>
<path d="M15.1928 19.1893C15.0062 19.2935 14.9379 19.532 15.0402 19.7221C15.1104 19.8523 15.2423 19.926 15.3784 19.926C15.441 19.926 15.5045 19.9104 15.5634 19.8776C16.4226 19.3976 17.0836 18.651 17.4702 17.7706C17.857 18.651 18.5179 19.3976 19.3771 19.8776C19.436 19.9104 19.4995 19.926 19.5621 19.926C19.6981 19.926 19.8301 19.8523 19.9003 19.7221C20.0026 19.532 19.9343 19.2935 19.7477 19.1893C18.7418 18.6274 18.0649 17.6233 17.8968 16.4888H19.6074C19.8202 16.4888 19.9927 16.3131 19.9927 16.0963C19.9927 15.8795 19.8202 15.7039 19.6074 15.7039H17.8555V14.0685C17.8555 13.8517 17.6831 13.676 17.4702 13.676C17.2574 13.676 17.085 13.8517 17.085 14.0685V15.7039H15.6931C15.4803 15.7039 15.3078 15.8795 15.3078 16.0963C15.3078 16.3131 15.4803 16.4888 15.6931 16.4888H17.0437C16.8756 17.6233 16.1986 18.6276 15.1928 19.1893Z" fill="white"/>
</svg>
