<svg width="28" height="19" viewBox="0 0 28 19" fill="none" xmlns="http://www.w3.org/2000/svg">
<path d="M10.1044 5.81875C10.2261 5.7 10.2261 5.58125 10.3478 5.4625L12.2957 3.5625H10.1044C9.73913 4.275 9.73913 5.10625 10.1044 5.81875Z" fill="#1F1F1F" fill-opacity="0.2"/>
<path d="M20.087 9.38123L15.7043 14.4875C14.7304 15.4375 13.2696 15.675 12.0522 15.0812C10.3478 14.1312 8.88696 13.0625 7.54783 11.7562C7.18261 11.5187 6.93913 11.2812 6.81739 11.0437C6.45217 10.8062 6.08696 10.6875 5.6 10.6875H1.21739V13.0625H5.6C6.08696 13.0625 6.45217 13.1812 6.81739 13.5375C6.93913 13.6562 7.30435 13.8937 7.54783 14.1312C8.88696 15.4375 10.3478 16.625 12.0522 17.4562C13.2696 18.05 14.7304 17.8125 15.7043 16.8625L20.4522 11.4C20.8174 10.925 20.9391 10.3312 20.5739 9.85623L20.087 9.38123Z" fill="#1F1F1F" fill-opacity="0.2"/>
<path d="M27.3913 2.375H23.4956C23.3739 2.375 23.2522 2.375 23.1304 2.25625L19.8435 0.11875C19.7217 0 19.6 0 19.4783 0H15.8261C15.7043 0 15.4609 0.11875 15.3391 0.2375L13.3913 2.375H7.66957C7.30435 2.375 6.93913 2.49375 6.69565 2.73125L3.65217 4.63125C3.53043 4.75 3.4087 4.75 3.28696 4.75H0.608696C0.243478 4.75 0 4.9875 0 5.34375V13.6562C0 14.0125 0.243478 14.25 0.608696 14.25H5.6C5.72174 14.25 5.84348 14.25 5.96522 14.3688C6.08696 14.4875 6.33043 14.725 6.69565 14.9625C8.15652 16.3875 9.73913 17.575 11.4435 18.525C12.0522 18.7625 12.6609 19 13.3913 19C14.6087 19 15.7043 18.525 16.5565 17.6938L20.5739 13.0625H20.6957H27.3913C27.7565 13.0625 28 12.825 28 12.4688V2.96875C28 2.6125 27.7565 2.375 27.3913 2.375ZM15.7043 16.8625C14.7304 17.8125 13.2696 18.05 12.0522 17.4562C10.4696 16.5063 8.88696 15.4375 7.54783 14.1312C7.30435 13.8937 7.06087 13.6562 6.81739 13.5375C6.45217 13.1812 6.08696 13.0625 5.6 13.0625H1.21739V5.9375H3.28696C3.65217 5.9375 4.01739 5.81875 4.26087 5.58125L7.30435 3.68125C7.42609 3.5625 7.54783 3.5625 7.66957 3.5625H12.1739L10.4696 5.4625C9.61739 6.4125 9.61739 7.8375 10.5913 8.7875C11.5652 9.61875 13.0261 9.61875 13.8783 8.66875L17.0435 5.58125L20.4522 9.85625C20.8174 10.3313 20.8174 11.0438 20.3304 11.4L15.7043 16.8625ZM26.7826 11.875H21.5478C22.1565 11.0437 22.0348 9.85625 21.4261 9.14375L17.5304 4.39375C17.4087 4.275 17.287 4.15625 17.0435 4.15625H16.9217C16.8 4.15625 16.6783 4.275 16.5565 4.275L12.9043 7.8375C12.4174 8.3125 11.687 8.3125 11.3217 7.8375C10.9565 7.48125 10.9565 6.76875 11.3217 6.29375L16.0696 1.1875H19.2348L22.4 3.20625C22.7652 3.44375 23.1304 3.5625 23.4956 3.5625H26.7826V11.875Z" fill="#1F1F1F"/>
</svg>
