<svg width="41" height="41" viewBox="0 0 41 41" fill="none" xmlns="http://www.w3.org/2000/svg">
<path d="M31.5459 16.278C31.3618 15.2657 30.2576 14.5296 28.6011 14.1615C26.4846 13.7013 24.184 13.9774 22.2515 14.8976C21.4233 12.5971 19.4908 10.7566 17.1902 9.92838C15.4418 9.19219 13.5093 9.37624 11.9449 10.2965C11.8529 10.3885 11.7609 10.4805 11.7609 10.6646C11.7609 10.7566 11.7609 10.9406 11.9449 11.0327L15.0737 14.0694C15.1657 14.1615 15.4418 14.2535 15.6258 14.1615L16.086 13.9774L16.178 14.6216C16.178 14.7136 16.27 14.8976 16.362 14.9897H16.4541C14.5216 14.6216 12.497 14.7136 10.5646 15.3578C9.64432 15.6338 8.81611 16.278 8.54004 17.1982C8.54004 17.4743 8.63206 17.7504 8.90813 17.7504L12.6811 18.5786C12.8651 18.5786 12.9572 18.5786 13.1412 18.4866L13.5093 18.1185L13.7854 18.6706C13.8774 18.7626 13.9694 18.8547 14.0614 18.9467L17.1902 19.5908H17.2823C17.5583 19.9589 17.9264 20.235 18.2945 20.327C17.0982 22.5356 14.4295 28.7932 14.0614 31.5539H11.7609C11.4848 31.5539 11.3007 31.7379 11.3007 32.014C11.3007 32.2901 11.4848 32.4741 11.7609 32.4741H27.4048C27.6809 32.4741 27.865 32.2901 27.865 32.014C27.865 31.7379 27.6809 31.5539 27.4048 31.5539H24.8282C25.3803 30.7257 25.1043 29.5294 24.184 29.0693C23.3558 28.5171 22.1595 28.7932 21.6994 29.7134C21.3313 30.2656 21.3313 31.0017 21.6994 31.5539H19.5828C19.7669 28.241 20.4111 25.0202 21.5153 21.8914C21.8834 22.1675 22.3436 22.3515 22.8037 22.3515C24.092 22.3515 25.1043 21.3393 25.1043 20.051C25.1043 19.4068 24.8282 18.7626 24.3681 18.3025L26.0245 18.0264C26.1165 18.0264 26.3006 17.9344 26.3006 17.8424L26.5766 17.2903L26.9447 17.6583C27.1288 17.6583 27.3128 17.7504 27.4048 17.7504L31.1778 16.8301C31.4539 16.8301 31.6379 16.5541 31.5459 16.278ZM23.2638 29.7134C23.8159 29.7134 24.184 30.0815 24.184 30.6337C24.184 31.1858 23.8159 31.5539 23.2638 31.5539C22.7116 31.5539 22.3436 31.1858 22.3436 30.6337C22.3436 30.0815 22.8037 29.7134 23.2638 29.7134ZM16.8221 18.2105C16.8221 18.3025 16.8221 18.4866 16.8221 18.5786L14.5216 18.0264L14.0614 17.1062C13.9694 16.9222 13.8774 16.8301 13.6934 16.8301C13.5093 16.8301 13.4173 16.8301 13.3253 17.0142L12.5891 17.6583L9.64432 17.0142C10.0124 16.6461 10.3805 16.37 10.8406 16.186C13.1412 15.4498 15.5338 15.5418 17.7424 16.37C17.1902 16.8301 16.8221 17.4743 16.8221 18.2105ZM17.7424 18.2105C17.7424 17.4743 18.3865 16.8301 19.1227 16.8301C19.8589 16.8301 20.5031 17.4743 20.5031 18.2105C20.5031 18.9467 19.8589 19.5908 19.1227 19.5908C18.3865 19.5908 17.7424 19.0387 17.7424 18.2105ZM18.6626 31.5539H14.9817C15.0737 30.9097 15.1657 30.3576 15.3498 29.7134H18.7546C18.7546 30.4496 18.6626 31.0938 18.6626 31.5539ZM18.9387 28.7932H15.7179C15.9019 28.241 16.178 27.5969 16.362 26.9527H19.2148C19.1227 27.5969 19.0307 28.241 18.9387 28.7932ZM19.3988 26.0325H16.6381C16.9142 25.3883 17.1902 24.7442 17.3743 24.192H19.7669C19.6749 24.8362 19.5828 25.3883 19.3988 26.0325ZM20.043 23.2718H17.8344C18.2945 22.3515 18.7546 21.4313 19.3068 20.5111C19.7669 20.4191 20.135 20.327 20.4111 20.051C20.4111 20.4191 20.5031 20.8792 20.7792 21.2473C20.5031 21.8914 20.227 22.5356 20.043 23.2718ZM20.4111 16.278C20.135 16.094 19.8589 16.0019 19.4908 15.9099L17.0982 14.3455L17.0062 13.2412C17.0062 12.9652 16.7301 12.7811 16.5461 12.7811C16.4541 12.7811 16.4541 12.7811 16.362 12.7811L15.5338 13.1492L12.9572 10.7566C14.2455 10.2965 15.6258 10.2965 16.8221 10.7566C19.0307 11.4928 20.6871 13.1492 21.4233 15.3578C21.0552 15.6338 20.6871 16.0019 20.4111 16.278ZM22.8037 21.4313C22.0675 21.4313 21.4233 20.7871 21.4233 20.051C21.4233 19.3148 22.0675 18.6706 22.8037 18.6706C23.5399 18.6706 24.184 19.3148 24.184 20.051C24.184 20.7871 23.5399 21.4313 22.8037 21.4313ZM27.4969 16.7381L26.8527 16.094C26.7607 15.9099 26.5766 15.9099 26.3926 15.9099C26.2085 15.9099 26.1165 16.0019 26.0245 16.186L25.5644 17.1062L22.7116 17.7504C22.2515 17.7504 21.7914 17.9344 21.4233 18.2105C21.4233 17.7504 21.3313 17.2903 21.0552 16.9222C22.7116 14.9897 25.9325 14.5296 28.3251 14.9897C29.0613 15.0817 29.7974 15.4498 30.4416 16.0019L27.4969 16.7381Z" fill="white"/>
</svg>
