<svg width="96" height="96" viewBox="0 0 96 96" fill="none" xmlns="http://www.w3.org/2000/svg">
<path d="M48 37.36C55.544 41.408 58.488 50.976 54.44 58.52C51.68 63.672 46.344 66.8 40.64 66.8C48.184 70.848 57.752 67.904 61.8 60.36C65.848 52.816 62.904 43.248 55.36 39.2C53.152 37.912 50.576 37.36 48 37.36Z" fill="#1F1F1F" fill-opacity="0.2"/>
<path d="M48 44.72C43.4 44.72 39.72 48.4 39.72 53C39.72 57.6 43.4 61.28 48 61.28C52.6 61.28 56.28 57.6 56.28 53C56.28 48.4 52.6 44.72 48 44.72ZM48 59.44C44.504 59.44 41.56 56.496 41.56 53C41.56 49.504 44.504 46.56 48 46.56C51.496 46.56 54.44 49.504 54.44 53C54.44 56.496 51.496 59.44 48 59.44Z" fill="#1F1F1F"/>
<path d="M70.08 52.08H65.48C64.928 43.248 57.936 36.072 48.92 35.52V30.92C48.92 30.368 48.552 30 48 30C47.448 30 47.08 30.368 47.08 30.92V35.52C38.248 36.072 31.072 43.064 30.52 52.08H25.92C25.368 52.08 25 52.448 25 53C25 53.552 25.368 53.92 25.92 53.92H30.52C31.072 62.752 38.064 69.928 47.08 70.48V75.08C47.08 75.632 47.448 76 48 76C48.552 76 48.92 75.632 48.92 75.08V70.48C57.752 69.928 64.928 62.936 65.48 53.92H70.08C70.632 53.92 71 53.552 71 53C71 52.448 70.632 52.08 70.08 52.08ZM48 68.64C39.352 68.64 32.36 61.648 32.36 53C32.36 44.352 39.352 37.36 48 37.36C56.648 37.36 63.64 44.352 63.64 53C63.64 61.648 56.648 68.64 48 68.64Z" fill="#1F1F1F"/>
</svg>
