<svg width="39" height="30" viewBox="0 0 39 30" fill="none" xmlns="http://www.w3.org/2000/svg">
<g clip-path="url(#clip0)">
<path d="M20.28 18.9474L35.88 3.1579L38.064 5.68421L24.804 19.7368L20.28 18.9474Z" fill="#1F1F1F" fill-opacity="0.2"/>
<path d="M38.376 4.1053L35.1 0.789506C34.164 -0.157863 32.76 -0.157863 31.824 0.789506L19.5 13.2632C19.032 13.579 18.72 14.2106 18.72 14.8421V18.9474C18.72 19.8948 19.344 20.5263 20.28 20.5263H24.336C24.96 20.5263 25.584 20.2106 26.052 19.8948L38.376 7.42108C39.156 6.47372 39.156 4.89477 38.376 4.1053ZM24.96 18.7895C24.804 18.9474 24.648 18.9474 24.336 18.9474H20.28V14.8421C20.28 14.6842 20.436 14.3685 20.436 14.2106L29.952 4.57898L34.32 9.00003L24.96 18.7895ZM37.284 6.31582L35.568 7.89477L31.2 3.47372L32.76 1.73687C33.072 1.42108 33.54 1.42108 33.852 1.73687L37.128 5.05266C37.44 5.52635 37.44 6.00003 37.284 6.31582Z" fill="#1F1F1F"/>
<path d="M19.032 23.8422C17.316 24.7895 15.288 25.4211 13.26 25.2632C12.48 25.2632 11.856 24.9474 11.232 24.6316C12.792 22.8948 13.884 20.5264 14.04 18.158C14.196 16.1053 12.48 14.3685 10.452 14.2106C10.296 14.2106 10.296 14.2106 10.14 14.2106C8.112 14.0527 6.396 15.6316 6.24 17.6843C6.24 17.8422 6.24 18.0001 6.24 18.158C6.24 20.6843 7.176 23.0527 8.892 24.7895C6.708 27.0001 3.9 28.2632 0.78 28.4211C0.312 28.4211 0 28.7369 0 29.2106C0 29.6843 0.312 30.0001 0.78 30.0001C4.368 29.8422 7.644 28.4211 10.14 25.7369C11.076 26.3685 12.168 26.6843 13.26 26.8422C15.6 27.0001 17.94 26.3685 19.968 25.1053C20.28 24.7895 20.436 24.3159 20.124 24.0001C19.812 23.6843 19.344 23.5264 19.032 23.8422ZM9.984 23.6843C8.58 22.1053 7.8 20.2106 7.8 18.158C7.644 17.0527 8.58 15.9474 9.672 15.7895C9.828 15.7895 9.984 15.7895 10.14 15.7895C11.388 15.6316 12.324 16.579 12.48 17.8422C12.48 18.0001 12.48 18.0001 12.48 18.158C12.168 20.2106 11.388 22.1053 9.984 23.6843Z" fill="#1F1F1F"/>
</g>
<defs>
<clipPath id="clip0">
<rect width="39" height="30" fill="white"/>
</clipPath>
</defs>
</svg>
