<svg width="41" height="41" viewBox="0 0 41 41" fill="none" xmlns="http://www.w3.org/2000/svg">
<path d="M22.1316 12.5163L22.1319 12.5159C22.7271 11.743 23.4345 11.3574 23.9929 11.1634C24.1578 11.1061 24.3094 11.0656 24.4405 11.0371C24.4343 11.1449 24.4222 11.2673 24.4008 11.4012C24.3158 11.9317 24.0845 12.6414 23.4905 13.3431L23.4899 13.3438C22.8578 14.0933 22.1988 14.3907 21.7144 14.5083C21.5661 14.5443 21.4325 14.5639 21.3192 14.5737C21.3221 14.4887 21.3295 14.3914 21.3445 14.2836C21.406 13.8408 21.596 13.2104 22.1316 12.5163Z" stroke="white"/>
<path d="M27.8925 17.15C27.676 17.3109 27.4093 17.5371 27.1424 17.8349C26.5314 18.5168 25.9183 19.578 25.9183 21.0677C25.9183 22.7505 26.6845 23.8927 27.4431 24.6026C27.8198 24.9551 28.1955 25.2026 28.4776 25.3625C28.491 25.3701 28.5042 25.3775 28.5172 25.3847C28.472 25.4945 28.4177 25.6225 28.355 25.7646C28.1411 26.2493 27.8312 26.8918 27.4454 27.5307C27.0574 28.1734 26.6052 28.7914 26.1123 29.2432C25.6158 29.6983 25.1279 29.9403 24.6585 29.9403C24.1692 29.9403 23.726 29.7793 23.1772 29.5769L23.1681 29.5736C22.6432 29.38 22.0245 29.1518 21.3024 29.1518C20.5704 29.1518 19.8628 29.3857 19.2871 29.5895C19.2199 29.6132 19.1549 29.6365 19.0919 29.659C18.873 29.7373 18.6773 29.8073 18.4916 29.8633C18.2516 29.9358 18.0745 29.9698 17.943 29.9698C17.5273 29.969 17.0133 29.7412 16.4451 29.2433C15.8854 28.7528 15.3243 28.0438 14.8238 27.1945C13.8199 25.491 13.1104 23.3102 13.1104 21.3962C13.1104 17.648 15.4499 15.8322 17.4924 15.8319C18.1682 15.8334 18.7817 16.026 19.3601 16.2405C19.4453 16.2721 19.5324 16.3052 19.6197 16.3384C19.816 16.4129 20.0134 16.488 20.1928 16.5472C20.4543 16.6335 20.7405 16.709 21.0224 16.709C21.2886 16.709 21.5686 16.6225 21.8137 16.5341C21.9531 16.4838 22.1185 16.4183 22.2865 16.3516C22.4074 16.3037 22.5296 16.2552 22.6445 16.2115C23.2381 15.9858 23.9022 15.7793 24.6385 15.7793C25.938 15.7793 26.8248 16.232 27.3858 16.6728C27.5996 16.8407 27.7673 17.0081 27.8925 17.15Z" stroke="white"/>
</svg>
