<svg width="41" height="41" viewBox="0 0 41 41" fill="none" xmlns="http://www.w3.org/2000/svg">
<g clip-path="url(#clip0)">
<path fill-rule="evenodd" clip-rule="evenodd" d="M31.3447 13.5423C31.3447 15.4423 29.5437 17.2434 27.3864 17.8174C27.4359 18.045 27.5546 18.4309 27.6635 18.7575C28.0685 19.9529 28.3082 21.1981 28.376 22.4585C28.3953 24.1518 27.9977 25.8239 27.2182 27.3272C26.771 28.1621 26.492 29.0766 26.3968 30.0189L29.0192 30.8996C29.1167 30.9326 29.2015 30.9951 29.2618 31.0784C29.3221 31.1618 29.3549 31.2619 29.3557 31.3647V32.3543C29.3557 32.4856 29.3035 32.6114 29.2107 32.7042C29.118 32.797 28.9921 32.8491 28.8609 32.8491H23.913C23.8205 32.8482 23.73 32.8218 23.6515 32.773C23.5729 32.7241 23.5094 32.6546 23.4676 32.572C22.8451 31.2641 22.495 29.8434 22.4385 28.396C22.4981 26.9479 22.8516 25.5271 23.4775 24.22C23.5353 24.1018 23.6376 24.0115 23.7619 23.9688C23.8863 23.9262 24.0225 23.9346 24.1406 23.9924C24.2587 24.0501 24.349 24.1524 24.3917 24.2767C24.4344 24.4011 24.4259 24.5373 24.3682 24.6554C23.8108 25.8279 23.4912 27.0993 23.4281 28.396C23.4764 29.5915 23.7518 30.767 24.2395 31.8595H28.376V31.721L25.7437 30.87C25.6413 30.8355 25.5529 30.7685 25.4922 30.6792C25.4314 30.5898 25.4016 30.4831 25.4072 30.3752C25.4312 29.1647 25.7433 27.9774 26.3176 26.9116C27.034 25.5375 27.401 24.0081 27.3864 22.4585C27.3026 21.296 27.0595 20.1506 26.664 19.0543C26.5574 18.7094 26.4683 18.3593 26.3968 18.0054H25.902C25.7708 18.0054 25.6449 17.9532 25.5521 17.8604C25.4594 17.7677 25.4072 17.6418 25.4072 17.5106C25.4072 17.3794 25.4594 17.2535 25.5521 17.1607C25.6449 17.0679 25.7708 17.0158 25.902 17.0158C27.99 17.0158 30.0385 15.5314 30.3551 13.9283C29.6212 13.4966 28.9545 12.9598 28.376 12.3351C27.2281 11.3356 25.8921 10.0887 24.9124 10.0887C22.9333 10.0887 21.4489 11.1772 21.4489 12.5627V17.0158C21.4489 17.2782 21.5532 17.5299 21.7387 17.7155C21.9243 17.9011 22.176 18.0054 22.4385 18.0054C22.7009 18.0054 22.9526 17.9011 23.1382 17.7155C23.3238 17.5299 23.4281 17.2782 23.4281 17.0158V13.5522C23.4281 13.421 23.4802 13.2952 23.573 13.2024C23.6658 13.1096 23.7916 13.0575 23.9229 13.0575C24.0541 13.0575 24.1799 13.1096 24.2727 13.2024C24.3655 13.2952 24.4176 13.421 24.4176 13.5522V17.0158C24.4158 17.3825 24.3121 17.7415 24.1182 18.0527C23.9242 18.3639 23.6476 18.6152 23.3192 18.7783C22.9908 18.9415 22.6235 19.0102 22.2583 18.9769C21.8931 18.9435 21.5443 18.8093 21.251 18.5892C20.4593 20.9741 17.1838 23.2403 15.7192 23.9429C14.8266 24.3144 14.056 24.9284 13.4946 25.7155C12.9331 26.5025 12.6034 27.4311 12.5426 28.396C12.5426 29.8804 13.0077 31.8595 16.9958 31.8595H21.4489V31.7408L18.3416 30.87C18.3088 30.8753 18.2754 30.8753 18.2426 30.87L18.1734 30.8205C18.1734 30.8205 18.1734 30.771 18.114 30.7512L18.0546 30.672C18.05 30.6425 18.05 30.6125 18.0546 30.583C18.05 30.5501 18.05 30.5168 18.0546 30.484C18.0546 30.484 18.0546 30.4345 18.0546 30.4147C18.0546 30.395 18.0546 30.4147 18.0546 30.3455C18.0546 30.2762 18.0546 30.3455 18.0546 30.3455C18.065 30.3128 18.0818 30.2825 18.1041 30.2564C18.1168 30.2248 18.1334 30.1948 18.1536 30.1674H18.213L18.3119 30.0981H18.3614L18.4801 29.8804C18.8716 29.8804 19.2542 29.7643 19.5797 29.5468C19.9052 29.3293 20.1589 29.0202 20.3087 28.6586C20.4585 28.297 20.4976 27.899 20.4213 27.5151C20.3449 27.1312 20.1564 26.7785 19.8796 26.5017C19.6028 26.2249 19.2502 26.0364 18.8663 25.9601C18.4823 25.8837 18.0844 25.9229 17.7227 26.0727C17.3611 26.2225 17.052 26.4762 16.8345 26.8016C16.6171 27.1271 16.501 27.5098 16.501 27.9012C16.501 28.0324 16.4488 28.1583 16.3561 28.2511C16.2633 28.3439 16.1374 28.396 16.0062 28.396C15.875 28.396 15.7491 28.3439 15.6563 28.2511C15.5635 28.1583 15.5114 28.0324 15.5114 27.9012C15.5111 27.3899 15.6428 26.8872 15.8938 26.4418C16.1449 25.9964 16.5067 25.6234 16.9442 25.3588C17.3817 25.0943 17.8802 24.9473 18.3912 24.932C18.9023 24.9167 19.4086 25.0336 19.8612 25.2714C20.3138 25.5093 20.6973 25.86 20.9745 26.2896C21.2518 26.7192 21.4134 27.2131 21.4437 27.7235C21.474 28.2338 21.3719 28.7434 21.1475 29.2028C20.923 29.6621 20.5837 30.0557 20.1624 30.3455L22.0822 30.8897C22.185 30.9197 22.2753 30.9822 22.3395 31.0679C22.4038 31.1535 22.4385 31.2577 22.4385 31.3647V32.3543C22.4385 32.4856 22.3863 32.6114 22.2936 32.7042C22.2008 32.797 22.0749 32.8491 21.9437 32.8491H11.0583C9.33639 32.8491 7.59473 31.3153 7.59473 28.396C7.59473 26.4168 8.97025 24.9325 10.0687 23.7252C10.8307 22.8939 11.5531 22.1022 11.5531 21.4689C11.5531 21.3377 11.6052 21.2118 11.698 21.119C11.7908 21.0262 11.9166 20.9741 12.0479 20.9741C12.1791 20.9741 12.3049 21.0262 12.3977 21.119C12.4905 21.2118 12.5426 21.3377 12.5426 21.4689C12.5426 22.4585 11.7015 23.4481 10.801 24.4377C9.76191 25.5361 8.58431 26.8226 8.58431 28.396C8.58431 30.9392 10.0687 31.8595 11.0583 31.8595H13.1364C12.6099 31.4553 12.1903 30.9283 11.9143 30.3245C11.6383 29.7208 11.5143 29.0587 11.5531 28.396C11.5923 27.2251 11.9665 26.09 12.6312 25.1254C13.296 24.1607 14.2234 23.4069 15.3036 22.9533C17.1244 22.1814 20.4593 19.4798 20.4593 17.5106C20.4499 17.4549 20.4499 17.398 20.4593 17.3424C20.4593 17.2335 20.4593 17.1246 20.4593 17.0158V12.5627C20.4593 10.5835 22.4385 9.09912 24.9124 9.09912C26.2781 9.09912 27.713 10.4351 28.9697 11.6127C29.4059 12.0467 29.8686 12.4532 30.3551 12.8299C30.4244 12.3944 30.6619 12.0679 30.8994 12.0679C31.3447 12.0679 31.3447 12.9684 31.3447 13.5127V13.5423Z" fill="white"/>
</g>
<defs>
<clipPath id="clip0">
<rect width="23.75" height="23.75" fill="white" transform="translate(7.59473 9.09912)"/>
</clipPath>
</defs>
</svg>
