<svg width="31" height="32" viewBox="0 0 31 32" fill="none" xmlns="http://www.w3.org/2000/svg">
<path d="M27.4979 10.368C26.0711 13.568 23.2176 16.64 19.3264 16.64C18.0293 16.64 16.7322 16.384 15.5648 15.744C15.954 16.768 18.0293 17.92 20.6234 17.92C25.1632 17.92 28.2761 13.568 29.3138 9.98401C28.795 10.24 28.1464 10.24 27.4979 10.368Z" fill="#1F1F1F" fill-opacity="0.2"/>
<path d="M14.7866 25.6C14.1381 25.6 13.4895 25.728 12.841 25.984C14.9163 26.752 16.4728 28.544 16.7322 30.72H20.6234C20.2343 27.776 17.7699 25.6 14.7866 25.6Z" fill="#1F1F1F" fill-opacity="0.2"/>
<path d="M9.72804 13.312C7.52302 13.184 5.57741 12.032 4.28034 10.368C2.98327 8.70402 2.33474 6.65602 2.72386 4.60802C2.72386 4.35202 2.85357 4.09602 2.85357 3.96802C2.59415 3.71202 2.33474 3.45602 2.07532 3.07202C1.81591 4.22402 1.55649 5.37602 1.42679 6.52802C1.03767 8.57602 1.6862 10.624 2.98327 12.288C4.28034 13.952 6.35566 14.976 8.43097 15.232C9.59834 15.232 10.636 15.36 11.5439 15.36C11.5439 14.72 11.4142 14.08 11.2845 13.44C10.7657 13.312 10.2469 13.312 9.72804 13.312Z" fill="#1F1F1F" fill-opacity="0.2"/>
<path d="M20.6234 19.2001C26.9791 19.2001 31 12.0321 31 7.68005C29.5732 8.70405 27.887 9.21605 26.2008 9.08805C24.3849 9.08805 22.4393 8.83205 20.8829 8.83205C20.364 8.83205 19.8452 8.83205 19.3264 8.96005C16.2134 9.60005 14.0084 12.2881 14.1381 15.3601V24.3201C10.5063 24.7041 7.65273 27.6481 7.65273 31.3601V32.0001H21.9205V31.3601C21.9205 27.7761 19.067 24.7041 15.4352 24.3201V17.5361C16.9916 18.6881 18.8075 19.2001 20.6234 19.2001ZM19.5858 10.2401C19.9749 10.1121 20.364 10.1121 20.8829 10.1121C21.5314 10.1121 22.4393 10.1121 23.2176 10.2401C24.1255 10.3681 25.1632 10.3681 26.2008 10.3681C27.2385 10.3681 28.4059 10.2401 29.4435 9.98405C28.4059 13.5681 25.2929 17.9201 20.7531 17.9201C17.7699 17.9201 15.5649 16.3841 15.5649 15.3601C15.3054 12.9281 17.1213 10.7521 19.5858 10.2401ZM20.6234 30.7201H8.9498C9.33892 27.5201 12.1925 25.3441 15.4352 25.6001C18.159 25.9841 20.364 28.0321 20.6234 30.7201Z" fill="#1F1F1F"/>
<path d="M12.841 16.64C12.841 3.84 2.46444 6.144 2.46444 0C1.16737 1.28 0.389126 3.712 4.96209e-06 6.272C-0.648531 11.136 2.85356 15.744 7.78243 16.384C7.91214 16.384 8.04185 16.384 8.17155 16.384C9.85775 16.512 11.4142 16.64 12.841 16.64ZM2.98327 12.288C1.6862 10.624 1.03766 8.576 1.42678 6.528C1.55649 5.376 1.8159 4.224 2.20503 3.2C3.11298 4.352 4.28034 5.376 5.70712 6.016C8.30126 7.808 11.1548 9.6 11.5439 15.36C10.636 15.36 9.59833 15.232 8.43097 15.232C6.35565 14.976 4.28034 13.952 2.98327 12.288Z" fill="#1F1F1F"/>
</svg>
