<svg width="41" height="41" viewBox="0 0 41 41" fill="none" xmlns="http://www.w3.org/2000/svg">
<g clip-path="url(#clip0)">
<path d="M29.7448 30.7278C29.7289 30.666 29.7008 30.6079 29.6622 30.5569C29.6237 30.5059 29.5753 30.4629 29.52 30.4305C29.4646 30.398 29.4034 30.3768 29.3398 30.3679C29.2762 30.359 29.2114 30.3627 29.1492 30.3787L27.7334 30.7569L26.2101 25.1133C27.2131 24.7869 28.0522 24.0916 28.5552 23.1701C29.0582 22.2486 29.1869 21.1709 28.9149 20.1581L26.962 12.6915C26.9329 12.5607 26.8768 12.4374 26.7973 12.3292C26.7179 12.2211 26.6167 12.1304 26.5002 12.063C26.3837 11.9956 26.2544 11.9529 26.1204 11.9375C25.9865 11.9222 25.8508 11.9346 25.7219 11.9739L22.7926 12.7496L16.2017 11.0042C16.0773 10.9705 15.9475 10.9616 15.8196 10.9781C15.6918 10.9945 15.5684 11.0359 15.4568 11.0999C15.3451 11.1639 15.2473 11.2493 15.1691 11.351C15.0908 11.4527 15.0336 11.5689 15.0007 11.6927L13.0479 19.1593C12.7758 20.1721 12.9045 21.2498 13.4075 22.1713C13.9105 23.0928 14.7496 23.7881 15.7526 24.1145L14.2 29.7872L12.7842 29.4284C12.6547 29.395 12.5172 29.414 12.4018 29.4813C12.2865 29.5486 12.2027 29.6586 12.1691 29.7872C12.1354 29.9158 12.1545 30.0524 12.2223 30.167C12.2901 30.2815 12.4009 30.3647 12.5303 30.3981L16.2994 31.3678C16.3635 31.3844 16.4302 31.3882 16.4959 31.3792C16.5615 31.3701 16.6246 31.3483 16.6818 31.3149C16.7389 31.2816 16.7888 31.2375 16.8288 31.185C16.8687 31.1325 16.8979 31.0727 16.9145 31.009C16.9312 30.9454 16.9351 30.8791 16.9259 30.8139C16.9168 30.7487 16.8948 30.686 16.8613 30.6293C16.8277 30.5725 16.7833 30.5229 16.7304 30.4833C16.6776 30.4436 16.6174 30.4147 16.5532 30.3981L15.0984 30.0393L16.6606 24.3957C17.3863 24.543 18.1384 24.4949 18.8389 24.2561C19.5394 24.0174 20.1628 23.5969 20.6445 23.0381C21.0313 23.889 21.6989 24.5834 22.5368 25.0065C23.3748 25.4296 24.333 25.5562 25.2532 25.3654L26.8155 31.009L25.3606 31.3678C25.2965 31.3844 25.2363 31.4133 25.1835 31.453C25.1306 31.4926 25.0862 31.5422 25.0526 31.599C25.0191 31.6557 24.9971 31.7184 24.988 31.7836C24.9788 31.8487 24.9827 31.9151 24.9994 31.9787C25.016 32.0424 25.0452 32.1022 25.0851 32.1547C25.125 32.2072 25.175 32.2513 25.2321 32.2846C25.2892 32.318 25.3524 32.3398 25.418 32.3488C25.4836 32.3579 25.5504 32.3541 25.6145 32.3375L29.3835 31.3678C29.4522 31.3539 29.5171 31.3254 29.5737 31.2843C29.6303 31.2433 29.6773 31.1906 29.7116 31.1299C29.7459 31.0692 29.7666 31.0018 29.7723 30.9324C29.7781 30.8631 29.7687 30.7933 29.7448 30.7278ZM15.9479 11.9739L20.8886 13.283L19.1115 13.7581C18.8521 13.8749 18.6429 14.0794 18.5212 14.3352C18.3996 14.591 18.3735 14.8813 18.4475 15.1545L19.2872 18.2478C18.6318 18.28 17.975 18.2246 17.3344 18.083C16.7495 17.9048 16.21 17.6039 15.7526 17.2005C15.4488 16.9392 15.122 16.7055 14.7761 16.5024L15.9479 11.9739ZM20.2734 21.8939C19.9326 22.5105 19.3932 22.9957 18.7417 23.2717C18.0902 23.5477 17.3643 23.5986 16.6802 23.4163L16.192 23.2902C15.7881 23.1824 15.4096 22.9963 15.0784 22.7428C14.7471 22.4892 14.4696 22.1731 14.2618 21.8126C14.054 21.4521 13.92 21.0544 13.8675 20.6423C13.815 20.2303 13.8451 19.812 13.9559 19.4115L14.493 17.4721C14.7272 17.6235 14.9522 17.7887 15.1667 17.9666C15.7283 18.4617 16.3962 18.8232 17.1196 19.0236C17.9229 19.2051 18.7483 19.2704 19.5704 19.2175L20.293 21.9036L20.2734 21.8939ZM20.5566 19.2272L19.3654 14.6987L25.966 12.9436L27.167 17.4818C26.8211 17.6849 26.4943 17.9186 26.1906 18.1799C25.7331 18.5833 25.1937 18.8842 24.6088 19.0624C23.7894 19.2232 22.9521 19.2754 22.1189 19.2175C21.5623 19.1981 21.0546 19.1884 20.5566 19.2272ZM25.2337 24.386C24.8304 24.4988 24.4085 24.5307 23.9927 24.4797C23.5769 24.4288 23.1754 24.2961 22.8118 24.0893C22.4482 23.8826 22.1297 23.606 21.8749 23.2757C21.6202 22.9453 21.4342 22.5679 21.328 22.1654L20.791 20.226C21.1718 20.226 21.5916 20.226 22.0115 20.226C22.9404 20.293 23.8742 20.2277 24.7846 20.0321C25.5079 19.8317 26.1758 19.4702 26.7374 18.9751C26.9522 18.8005 27.1768 18.6357 27.4112 18.4805L27.9482 20.4199C28.059 20.8204 28.0891 21.2388 28.0366 21.6508C27.9841 22.0629 27.8501 22.4606 27.6423 22.8211C27.4345 23.1815 27.157 23.4977 26.8258 23.7512C26.4945 24.0048 26.1161 24.1909 25.7122 24.2987L25.2337 24.386ZM22.9098 9.54964V8.57994C22.9098 8.45135 22.9612 8.32803 23.0528 8.2371C23.1444 8.14617 23.2685 8.09509 23.398 8.09509C23.5275 8.09509 23.6517 8.14617 23.7432 8.2371C23.8348 8.32803 23.8862 8.45135 23.8862 8.57994V9.54964C23.8862 9.67823 23.8348 9.80155 23.7432 9.89248C23.6517 9.9834 23.5275 10.0345 23.398 10.0345C23.2685 10.0345 23.1444 9.9834 23.0528 9.89248C22.9612 9.80155 22.9098 9.67823 22.9098 9.54964ZM25.0091 11.266C24.9634 11.2209 24.9271 11.1673 24.9023 11.1082C24.8775 11.0491 24.8647 10.9858 24.8647 10.9218C24.8647 10.8578 24.8775 10.7944 24.9023 10.7353C24.9271 10.6762 24.9634 10.6226 25.0091 10.5775L26.3859 9.21024C26.4313 9.1648 26.4853 9.12873 26.5448 9.10412C26.6043 9.0795 26.6681 9.06683 26.7325 9.06683C26.797 9.06683 26.8608 9.0795 26.9203 9.10412C26.9798 9.12873 27.0338 9.1648 27.0792 9.21024C27.1686 9.30088 27.2187 9.42273 27.2187 9.54964C27.2187 9.67655 27.1686 9.7984 27.0792 9.88903L25.6926 11.266C25.6014 11.3548 25.4787 11.4046 25.3509 11.4046C25.2231 11.4046 25.1004 11.3548 25.0091 11.266ZM20.127 9.88903C20.0803 9.8455 20.0431 9.79293 20.0176 9.73455C19.9922 9.67618 19.979 9.61325 19.979 9.54964C19.979 9.48603 19.9922 9.4231 20.0176 9.36472C20.0431 9.30635 20.0803 9.25377 20.127 9.21024C20.1708 9.16386 20.2237 9.1269 20.2825 9.10163C20.3413 9.07635 20.4047 9.06332 20.4687 9.06332C20.5328 9.06332 20.5961 9.07635 20.6549 9.10163C20.7137 9.1269 20.7666 9.16386 20.8105 9.21024L22.197 10.5775C22.2889 10.6688 22.3406 10.7926 22.3406 10.9218C22.3406 11.0509 22.2889 11.1747 22.197 11.266C22.1051 11.3573 21.9804 11.4086 21.8504 11.4086C21.7204 11.4086 21.5957 11.3573 21.5037 11.266L20.127 9.88903Z" fill="white"/>
</g>
<defs>
<clipPath id="clip0">
<rect width="20.19" height="24.2424" fill="white" transform="translate(10.8364 8.09509)"/>
</clipPath>
</defs>
</svg>
