<svg width="41" height="41" viewBox="0 0 41 41" fill="none" xmlns="http://www.w3.org/2000/svg">
<path d="M29.5847 20.4698C29.2692 20.2323 28.9387 20.0164 28.5951 19.8237C28.7178 19.3988 28.7477 18.9516 28.6826 18.5137C28.6176 18.0758 28.4592 17.6577 28.2186 17.289C27.978 16.9203 27.661 16.6099 27.2901 16.3798C26.9191 16.1496 26.5032 16.0052 26.0717 15.9569L25.0029 15.8458C25.0295 15.4934 24.9327 15.1427 24.7297 14.8562C24.5268 14.5697 24.2309 14.3658 23.8946 14.2809C22.6483 13.8978 21.3564 13.6906 20.055 13.665C18.7536 13.6906 17.4617 13.8978 16.2154 14.2809C15.8827 14.3653 15.5895 14.5661 15.387 14.8484C15.1844 15.1307 15.0854 15.4765 15.1071 15.8256L13.8008 15.9569C13.3533 16.0016 12.9219 16.1517 12.5408 16.3952C12.1596 16.6387 11.8389 16.969 11.604 17.3602C11.3693 17.7415 11.2209 18.1713 11.1696 18.6184C11.1182 19.0654 11.1652 19.5186 11.3071 19.9448C11.0355 20.1022 10.7744 20.2776 10.5253 20.4698C9.10032 21.6107 7.51699 24.1549 8.46699 26.2146C8.54791 26.3879 8.67562 26.5341 8.83512 26.6361C8.99462 26.738 9.1793 26.7914 9.36751 26.79C9.46927 26.8045 9.57252 26.8045 9.67428 26.79C13.0446 25.7794 16.5422 25.2794 20.055 25.3059C23.5681 25.2757 27.0662 25.7758 30.4357 26.79C30.5352 26.8215 30.6384 26.8385 30.7425 26.8405C30.9307 26.8419 31.1154 26.7885 31.2749 26.6866C31.4344 26.5846 31.5621 26.4384 31.643 26.265C32.593 24.1549 31.0097 21.6107 29.5847 20.4698ZM9.36751 25.7804C8.6748 24.2862 9.95136 22.2165 11.1488 21.2674C11.3116 21.137 11.4836 21.0189 11.6633 20.9141L13.0587 24.8718C11.8081 25.0821 10.5744 25.3858 9.36751 25.7804ZM14.0581 24.7102L12.2571 19.6622C12.153 19.3735 12.1149 19.0645 12.1457 18.7585C12.1764 18.4526 12.2753 18.1579 12.4347 17.8969C12.5942 17.6359 12.8099 17.4155 13.0655 17.2525C13.3211 17.0895 13.6099 16.9882 13.9097 16.9564L15.1764 16.8251L15.7008 24.5386C15.1071 24.5891 14.5925 24.6396 14.0581 24.7102ZM23.281 24.4073C22.2024 24.3367 21.1238 24.2963 20.055 24.2963C18.9863 24.2963 17.8087 24.2963 16.6805 24.4275L16.0967 15.7852C16.0862 15.6675 16.1173 15.5499 16.1845 15.4536C16.2516 15.3573 16.3504 15.2887 16.4628 15.2602L16.6607 15.1997C17.7636 14.8686 18.9055 14.6919 20.055 14.6747C21.2045 14.6927 22.3462 14.8693 23.4493 15.1997L23.6472 15.2602C23.7604 15.2908 23.8594 15.3613 23.9264 15.4593C23.9935 15.5573 24.0243 15.6764 24.0133 15.7953L23.281 24.4073ZM24.2706 24.5285L24.9238 16.8554L25.9826 16.9564C26.2833 16.9868 26.5732 17.087 26.83 17.2494C27.0868 17.4118 27.3038 17.6321 27.4643 17.8933C27.6248 18.1545 27.7245 18.4497 27.7559 18.7563C27.7872 19.0629 27.7493 19.3728 27.6451 19.6622L25.8441 24.7102C25.3295 24.6093 24.7951 24.5689 24.2607 24.5285H24.2706ZM30.7425 25.7804C29.4654 25.3645 28.1585 25.0505 26.8337 24.8415L28.2784 20.803C28.5184 20.947 28.7497 21.1055 28.9712 21.2775C30.1587 22.2165 31.4352 24.2862 30.7425 25.7804Z" fill="white"/>
</svg>
