<svg width="31" height="35" viewBox="0 0 31 35" fill="none" xmlns="http://www.w3.org/2000/svg">
<path d="M30.2955 1.40002H26.7727V24.5H30.2955V1.40002Z" fill="#1F1F1F" fill-opacity="0.2"/>
<path d="M19.7273 30.8H1.40909V34.3H19.7273V30.8Z" fill="#1F1F1F" fill-opacity="0.2"/>
<path d="M21.1364 32.62V25.9C21.1364 25.48 21.4182 25.2 21.8409 25.2H28.6045L21.1364 32.62Z" fill="#1F1F1F" fill-opacity="0.2"/>
<path d="M28.8864 0H2.11364C0.986364 0 0 0.98 0 2.1V32.9C0 34.02 0.986364 35 2.11364 35H19.8682C20.4318 35 20.9955 34.72 21.4182 34.44L30.4364 25.48C30.8591 25.06 31 24.5 31 23.94V2.1C31 0.98 30.0136 0 28.8864 0ZM21.1364 32.62V25.9C21.1364 25.48 21.4182 25.2 21.8409 25.2H28.6045L21.1364 32.62ZM29.5909 23.8H21.8409C20.7136 23.8 19.7273 24.78 19.7273 25.9V33.6H2.11364C1.69091 33.6 1.40909 33.32 1.40909 32.9V2.1C1.40909 1.68 1.69091 1.4 2.11364 1.4H28.8864C29.3091 1.4 29.5909 1.68 29.5909 2.1V23.8Z" fill="#1F1F1F"/>
<path d="M26.0682 9.80001C26.4909 9.80001 26.7727 9.52001 26.7727 9.10001C26.7727 8.68001 26.4909 8.40001 26.0682 8.40001H8.45454V4.20001H7.04545V8.40001H4.93181C4.50908 8.40001 4.22726 8.68001 4.22726 9.10001C4.22726 9.52001 4.50908 9.80001 4.93181 9.80001H7.04545V16.8H4.93181C4.50908 16.8 4.22726 17.08 4.22726 17.5C4.22726 17.92 4.50908 18.2 4.93181 18.2H7.04545V25.2H4.93181C4.50908 25.2 4.22726 25.48 4.22726 25.9C4.22726 26.32 4.50908 26.6 4.93181 26.6H7.04545V30.8H8.45454V26.6H16.2045C16.6273 26.6 16.9091 26.32 16.9091 25.9C16.9091 25.48 16.6273 25.2 16.2045 25.2H8.45454V18.2H26.0682C26.4909 18.2 26.7727 17.92 26.7727 17.5C26.7727 17.08 26.4909 16.8 26.0682 16.8H8.45454V9.80001H26.0682Z" fill="#1F1F1F"/>
</svg>
