<svg width="21" height="33" viewBox="0 0 21 33" fill="none" xmlns="http://www.w3.org/2000/svg">
<path fill-rule="evenodd" clip-rule="evenodd" d="M10 1.33545C9.33333 1.33545 8.66667 1.46878 8 1.60212C12 2.40212 14.8 6.00212 14.6667 10.0021C14.6667 12.5354 13.2 14.9354 11.8667 17.2021C10.6667 18.8021 9.86667 20.6688 9.33333 22.6688H13.3333C13.7333 20.6688 14.6667 18.8021 15.8667 17.2021C17.2 14.9354 18.6667 12.6688 18.6667 10.0021C18.8 5.33545 15.2 1.46878 10.5333 1.33545C10.4 1.33545 10.1333 1.33545 10 1.33545Z" fill="#1F1F1F" fill-opacity="0.2"/>
<path fill-rule="evenodd" clip-rule="evenodd" d="M14 25.3354H5.99998C5.59998 25.3354 5.33331 25.6021 5.33331 26.0021C5.33331 26.4021 5.59998 26.6688 5.99998 26.6688H14C14.4 26.6688 14.6666 26.4021 14.6666 26.0021C14.6666 25.6021 14.4 25.3354 14 25.3354Z" fill="#1F1F1F"/>
<path fill-rule="evenodd" clip-rule="evenodd" d="M14 28.0024H5.99998C5.59998 28.0024 5.33331 28.2691 5.33331 28.6691C5.33331 29.0691 5.59998 29.3358 5.99998 29.3358H6.79998C7.19998 31.2024 8.93331 32.2691 10.6666 32.0024C12 31.7358 13.0666 30.6691 13.3333 29.3358H14.1333C14.5333 29.3358 14.8 29.0691 14.8 28.6691C14.8 28.2691 14.4 28.0024 14 28.0024Z" fill="#1F1F1F"/>
<path fill-rule="evenodd" clip-rule="evenodd" d="M10 0.00304153C4.66667 -0.130292 0.133333 4.13637 0 9.60304C0 9.73637 0 9.86971 0 10.003C0 12.9364 1.6 15.603 3.06667 17.8697C4.26667 19.7364 5.33333 21.603 5.33333 23.3364C5.33333 23.7364 5.6 24.003 6 24.003H14C14.4 24.003 14.6667 23.7364 14.6667 23.3364C14.6667 21.603 15.7333 19.7364 16.9333 17.8697C18.4 15.603 20 12.9364 20 10.003C20.1333 4.53637 15.8667 0.136375 10.4 0.00304153C10.2667 0.00304153 10.1333 0.00304153 10 0.00304153ZM15.8667 17.203C14.6667 18.803 13.8667 20.6697 13.3333 22.6697H6.66667C6.26667 20.6697 5.33333 18.803 4.13333 17.203C2.8 14.9364 1.33333 12.5364 1.33333 10.003C1.2 5.33637 4.8 1.46971 9.46667 1.33637C9.6 1.33637 9.86667 1.33637 10 1.33637C14.6667 1.20304 18.5333 4.80304 18.6667 9.46971C18.6667 9.60304 18.6667 9.86971 18.6667 10.003C18.6667 12.5364 17.2 14.9364 15.8667 17.203Z" fill="#1F1F1F"/>
</svg>
