<svg width="31" height="23" viewBox="0 0 31 23" fill="none" xmlns="http://www.w3.org/2000/svg">
<path d="M24.3844 9.19577C23.9461 9.19577 23.6539 9.19577 23.2156 9.34044L21.0241 2.10699C20.7319 1.0943 19.8553 0.515625 18.8327 0.515625H14.1575C13.7192 0.515625 13.427 0.804963 13.427 1.23897C13.427 1.67298 13.7192 1.96232 14.1575 1.96232H18.9788C19.271 1.96232 19.5632 2.10699 19.7092 2.54099L20.7319 6.01305L11.5277 12.0892L9.33627 8.76176C8.89798 8.18309 8.16749 7.74908 7.437 7.74908H3.93064C3.49234 7.74908 3.20015 8.03842 3.20015 8.47243C3.20015 8.90643 3.49234 9.19577 3.93064 9.19577H7.58309C7.87529 9.19577 8.02139 9.34044 8.16749 9.48511L10.5051 12.8125L9.04408 13.6805C7.1448 11.6551 3.78454 11.5105 1.73916 13.3912C-0.452309 15.2719 -0.598407 18.5993 1.44697 20.7693C3.34625 22.9393 6.70651 23.084 8.89798 21.0586C10.6512 19.4673 11.0895 17.0079 10.0668 14.9825L21.1702 7.45974L21.9007 9.77445C18.5405 11.2211 17.0795 14.9825 18.3944 18.3099C19.7092 21.6373 23.6539 23.084 27.0142 21.782C30.3744 20.48 31.8354 16.5739 30.5205 13.2465C29.3517 10.7871 27.0142 9.19577 24.3844 9.19577ZM5.39162 20.7693C3.34625 20.7693 1.73916 19.1779 1.73916 17.1526C1.59307 15.1272 3.34625 13.5358 5.24552 13.5358C6.26821 13.5358 7.1448 13.9699 7.87529 14.5485L4.95333 16.5739C4.66113 16.8632 4.51503 17.2972 4.80723 17.5866C5.09942 17.8759 5.53772 18.0206 5.82992 17.7313L8.75188 15.7059C9.48237 17.5866 8.60578 19.6119 6.8526 20.48C6.26821 20.6246 5.82992 20.7693 5.39162 20.7693ZM24.3844 20.7693C21.6085 20.7693 19.271 18.4546 19.271 15.7059C19.271 13.6805 20.4397 11.9445 22.1929 11.0765L23.6539 15.8506C23.8 16.1399 24.0922 16.4292 24.3844 16.4292H24.5305C24.9688 16.2846 25.1149 15.8506 24.9688 15.5612L23.5078 10.7871C26.2837 10.3531 28.9134 12.2338 29.3517 14.9825C29.79 17.7313 27.8908 20.3353 25.1149 20.7693C24.8227 20.7693 24.5305 20.7693 24.3844 20.7693Z" fill="white"/>
</svg>
