<svg width="43" height="18" viewBox="0 0 43 18" fill="none" xmlns="http://www.w3.org/2000/svg">
<path d="M39.7 6.80952C36.8 5.81063 34.1 5.01152 30.9 4.71186C30.3 4.3123 23.3 0.416648 17.6 0.516536C11.2 0.516536 8.6 2.11475 6.8 3.21353C6.5 3.31342 6.3 3.51319 6.1 3.61308C5.3 4.01264 4.5 4.3123 3.5 4.51208L1.3 4.71186C0.6 4.81174 0 5.51096 0 6.21018V11.6042C0 12.6031 0.6 13.5021 1.5 14.0015L2.9 14.7007C3.5 15.0004 4.2 15.2002 4.9 15.2002H5C5.7 16.4987 7 17.3977 8.6 17.3977C10.2 17.3977 11.5 16.4987 12.2 15.2002H30C30.7 16.4987 32 17.3977 33.6 17.3977C35.2 17.3977 36.5 16.4987 37.2 15.2002H41C41.9 15.2002 42.6 14.5009 42.6 13.6019V10.9049C42.6 9.00706 41.5 7.40885 39.7 6.80952ZM16.9 4.51208H11.4C11.2 4.51208 11 4.41219 10.8 4.3123L9.39999 2.91386C11 2.21464 13.3 1.61531 16.9 1.51542V4.51208ZM17.9 1.51542C21.6 1.51542 26 3.31342 28.5 4.51208C28.2 4.51208 27.9 4.51208 27.6 4.51208H17.9V1.51542ZM8.6 16.2989C6.9 16.2989 5.5 14.9005 5.5 13.2024C5.5 11.5043 6.9 10.1058 8.6 10.1058C10.3 10.1058 11.7 11.5043 11.7 13.2024C11.7 14.9005 10.2 16.2989 8.6 16.2989ZM8.6 9.20684C6.4 9.20684 4.5 11.0048 4.5 13.3023C4.5 13.6019 4.5 13.9016 4.6 14.2013C4.1 14.2013 3.7 14.1014 3.3 13.9016L1.9 13.2024C1.3 12.9027 0.999999 12.3034 0.999999 11.7041V7.90829H3.1C3.4 7.90829 3.6 7.70851 3.6 7.40885C3.6 7.10918 3.3 6.9094 3.1 6.9094H0.999999V6.21018C0.999999 5.91052 1.2 5.71074 1.5 5.71074L3.7 5.51096C4.7 5.41108 5.7 5.01152 6.7 4.51208C6.9 4.41219 7.1 4.3123 7.3 4.11252C7.6 3.81286 8 3.61308 8.5 3.41331L10.1 5.01152C10.4 5.31119 10.9 5.51096 11.4 5.51096H16.9V14.2013H12.5C12.6 13.9016 12.6 13.6019 12.6 13.3023C12.6 11.0048 10.8 9.20684 8.6 9.20684ZM33.6 16.2989C31.9 16.2989 30.5 14.9005 30.5 13.2024C30.5 11.5043 31.9 10.1058 33.6 10.1058C35.3 10.1058 36.7 11.5043 36.7 13.2024C36.7 14.9005 35.2 16.2989 33.6 16.2989ZM41.6 13.6019C41.6 13.9016 41.3 14.2013 41 14.2013H37.5C37.6 13.9016 37.6 13.6019 37.6 13.3023C37.6 11.1047 35.8 9.20684 33.5 9.20684C31.2 9.20684 29.4 11.0048 29.4 13.3023C29.4 13.6019 29.4 13.9016 29.5 14.2013H17.9V5.51096H27.6C32.2 5.51096 35.7 6.40996 39.4 7.70851C40.7 8.20796 41.6 9.40662 41.6 10.9049V13.6019Z" fill="white"/>
<path d="M22.6996 6.90918H21.0996C20.7996 6.90918 20.5996 7.10894 20.5996 7.40857C20.5996 7.7082 20.7996 7.90796 21.0996 7.90796H22.6996C22.9996 7.90796 23.1996 7.7082 23.1996 7.40857C23.1996 7.10894 22.9996 6.90918 22.6996 6.90918Z" fill="white"/>
</svg>
