<svg width="31" height="22" viewBox="0 0 31 22" fill="none" xmlns="http://www.w3.org/2000/svg">
<g clip-path="url(#clip0)">
<path d="M0.62 8.55577C0.992 8.55577 1.24 8.31133 1.24 7.94466V6.72244C1.24 6.35577 0.992 6.11133 0.62 6.11133C0.248 6.11133 0 6.35577 0 6.72244V7.94466C0 8.31133 0.248 8.55577 0.62 8.55577Z" fill="#1F1F1F"/>
<path d="M6.81973 11H4.33973C3.96773 11 3.71973 11.2444 3.71973 11.6111C3.71973 11.9778 3.96773 12.2222 4.33973 12.2222H6.81973C7.19173 12.2222 7.43973 11.9778 7.43973 11.6111C7.43973 11.2444 7.19173 11 6.81973 11Z" fill="#1F1F1F"/>
<path d="M29.14 15.1556L29.636 14.7889C30.132 14.4222 30.256 13.5667 29.884 13.0778C29.76 12.9556 29.636 12.8333 29.512 12.7111C28.768 12.3444 27.776 12.1 26.908 12.1L24.8 4.64444L27.032 3.54444C27.156 3.42222 27.28 3.17778 27.28 3.05556V0.611111C27.28 0.244444 27.032 0 26.66 0H17.98C17.608 0 17.36 0.244444 17.36 0.611111C17.36 0.977778 17.608 1.22222 17.98 1.22222H19.468C20.336 2.68889 20.956 4.4 21.08 6.11111C21.452 9.77778 20.46 14.6667 18.6 14.6667H13.64V13.4444L14.88 12.2222V6.72222C14.88 5.74444 14.012 4.88889 13.02 4.88889H3.1C2.728 4.88889 2.48 5.13333 2.48 5.5V8.8C0.992 9.28889 0 10.6333 0 12.2222V16.2556C0 17.3556 0.992 18.3333 2.108 18.3333H2.48C2.48 20.4111 4.092 22 6.2 22C8.308 22 9.92 20.4111 9.92 18.3333H21.08C21.08 18.5778 21.08 18.9444 21.204 19.1889C21.328 19.6778 21.824 20.0444 22.444 20.0444C22.692 20.0444 22.94 19.9222 23.188 19.8L23.808 19.4333C24.428 21.3889 26.412 22.4889 28.396 21.8778C30.38 21.2667 31.496 19.3111 30.876 17.3556C30.628 16.5 30.008 15.6444 29.14 15.1556ZM26.04 1.22222V2.81111L24.552 3.54444L23.932 1.22222H26.04ZM3.72 6.11111H13.02C13.392 6.11111 13.64 6.35556 13.64 6.72222V8.55556H3.72V6.11111ZM6.2 20.7778C4.836 20.7778 3.72 19.6778 3.72 18.3333H8.68C8.68 19.6778 7.564 20.7778 6.2 20.7778ZM2.108 17.1111C1.86 17.1111 1.612 16.9889 1.488 16.8667C1.364 16.7444 1.24 16.5 1.24 16.2556V12.2222C1.24 10.8778 2.356 9.77778 3.72 9.77778H13.64V11.7333L12.772 12.5889C12.524 12.8333 12.4 13.0778 12.4 13.4444V14.6667C12.4 15.4 12.896 15.8889 13.64 15.8889H18.6C19.344 15.8889 19.964 15.5222 20.46 15.0333C22.072 13.3222 22.568 9.16667 22.32 5.98889C22.196 4.27778 21.7 2.68889 20.832 1.22222H22.568L25.668 12.3444C23.312 12.8333 21.452 14.7889 21.08 17.1111H2.108ZM22.444 18.8222C22.444 18.5778 22.32 18.2111 22.32 17.9667C22.32 15.4 24.428 13.4444 27.032 13.4444C27.652 13.4444 28.396 13.5667 29.016 13.9333L22.444 18.8222ZM27.28 20.7778C26.04 20.7778 24.924 19.8 24.8 18.5778L28.024 16.1333C29.264 16.6222 30.008 17.9667 29.512 19.1889C29.264 20.1667 28.272 20.7778 27.28 20.7778Z" fill="white"/>
</g>
<defs>
<clipPath id="clip0">
<rect width="31" height="22" fill="white"/>
</clipPath>
</defs>
</svg>
