<svg width="28" height="29" viewBox="0 0 28 29" fill="none" xmlns="http://www.w3.org/2000/svg">
<path d="M21.2461 20.0075C20.9647 19.7264 20.5426 19.7264 20.2612 20.0075L16.7436 23.521C16.1808 24.0832 15.4773 24.3643 14.6331 24.3643H9.00498C9.00498 23.9427 8.86428 23.521 8.72357 23.24C7.87936 20.9913 5.76882 19.4453 3.37687 19.4453C2.53265 19.4453 1.54773 19.7264 0.844217 20.148C0.562811 20.2886 0.422108 20.7102 0.562811 21.1318C0.703514 21.4129 1.12562 21.5534 1.54773 21.4129C2.11054 21.1318 2.81406 20.9913 3.51757 20.9913C5.34671 20.9913 6.89444 22.1156 7.45725 23.8021C7.59795 24.0832 7.59795 24.2238 7.59795 24.5048H6.89444C6.61303 22.9589 5.206 21.694 3.51757 21.694C1.54773 21.5534 0 23.0994 0 25.067C0 27.0346 1.54773 28.5806 3.51757 28.5806C5.206 28.5806 6.61303 27.4562 6.89444 25.7697H14.7738C15.8994 25.7697 17.025 25.3481 17.8693 24.5048L21.3868 20.9913C21.5275 20.7102 21.5275 20.2886 21.2461 20.0075ZM3.51757 27.0346C2.39195 27.0346 1.40703 26.0508 1.40703 24.9265C1.40703 23.8021 2.39195 22.8183 3.51757 22.8183C4.64319 22.8183 5.62811 23.8021 5.62811 24.9265C5.48741 26.1913 4.64319 27.0346 3.51757 27.0346Z" fill="white"/>
<path d="M24.4824 21.5532L23.2161 15.9313C23.0754 15.5097 22.794 15.3691 22.3719 15.3691C21.9498 15.5097 21.8091 15.7908 21.8091 16.2124L23.0754 21.6937C21.8091 22.2559 20.9648 23.3803 20.9648 24.9263C20.9648 26.8939 22.5126 28.4399 24.4824 28.4399C26.4523 28.4399 28 26.8939 28 24.9263C27.8593 23.2397 26.4523 21.6937 24.4824 21.5532ZM24.4824 27.0345C23.3568 27.0345 22.3719 26.0507 22.3719 24.9263C22.3719 23.8019 23.3568 22.8181 24.4824 22.8181C25.608 22.8181 26.593 23.8019 26.593 24.9263C26.4523 26.1912 25.608 27.0345 24.4824 27.0345Z" fill="white"/>
<path d="M21.3863 13.8226C21.527 14.1037 21.8084 14.3848 22.0898 14.3848H22.2305C22.6526 14.2442 22.7933 13.9631 22.7933 13.5415L21.1049 5.67096C21.527 5.67096 21.8084 5.38987 21.8084 4.96823C21.8084 4.5466 21.3863 4.12496 21.1049 4.12496H20.6828L20.4014 2.86005H22.7933C23.2154 2.86005 23.4968 2.57896 23.4968 2.15733C23.4968 1.73569 23.2154 1.4546 22.7933 1.4546H20.12L19.9793 1.03296C19.9793 0.751873 19.5572 0.611328 19.1351 0.611328C18.713 0.751873 18.5723 1.03296 18.5723 1.4546L21.3863 13.8226Z" fill="white"/>
</svg>
