<svg width="1440" height="1439" viewBox="0 0 1440 1439" fill="none" xmlns="http://www.w3.org/2000/svg">
<rect y="64" width="1440" height="850" fill="#7A7A7A"/>
<rect y="64" width="1440" height="850" fill="#AD0E9E"/>
<g filter="url(#filter0_bf)">
<rect x="587.661" y="811.213" width="1279.36" height="1279.36" rx="639.68" transform="rotate(-90 587.661 811.213)" fill="#FA1C1C" fill-opacity="0.8"/>
</g>
<mask id="mask0" mask-type="alpha" maskUnits="userSpaceOnUse" x="174" y="-321" width="1302" height="1302">
<circle cx="824.698" cy="330.257" r="650.367" transform="rotate(125.054 824.698 330.257)" fill="#C4C4C4"/>
</mask>
<g mask="url(#mask0)">
<g filter="url(#filter1_bf)">
<rect x="1700.99" y="586.24" width="1247.03" height="1247.03" rx="623.517" transform="rotate(125.054 1700.99 586.24)" fill="#DF10FF" fill-opacity="0.8"/>
</g>
</g>
<mask id="mask1" mask-type="alpha" maskUnits="userSpaceOnUse" x="174" y="-322" width="1301" height="1301">
<circle cx="824.54" cy="328.538" r="650.367" transform="rotate(-129.946 824.54 328.538)" fill="#C4C4C4"/>
</mask>
<g mask="url(#mask1)">
<g filter="url(#filter2_f)">
<rect x="662.171" y="1265.82" width="1273.32" height="1291.82" rx="636.658" transform="rotate(-129.946 662.171 1265.82)" fill="#FF4A4A"/>
</g>
</g>
<mask id="mask2" mask-type="alpha" maskUnits="userSpaceOnUse" x="300" y="-207" width="1070" height="1071">
<circle cx="835.282" cy="328.349" r="534.614" transform="rotate(-145.002 835.282 328.349)" fill="#C4C4C4"/>
</mask>
<g mask="url(#mask2)">
<g filter="url(#filter3_bf)">
<rect x="1170.91" y="836.801" width="931.247" height="944.777" rx="465.623" transform="rotate(-145.002 1170.91 836.801)" fill="#FA1C1C"/>
</g>
<g filter="url(#filter4_bf)">
<rect x="675.498" y="726.132" width="931.247" height="944.777" rx="465.623" transform="rotate(-145.002 675.498 726.132)" fill="#FA1C1C"/>
</g>
<g filter="url(#filter5_f)">
<rect x="959.569" y="1192.02" width="1059.55" height="1059.55" rx="529.774" transform="rotate(-145.002 959.569 1192.02)" fill="#A200BB" fill-opacity="0.5"/>
</g>
</g>
<mask id="mask3" mask-type="alpha" maskUnits="userSpaceOnUse" x="426" y="-55" width="803" height="803">
<circle cx="827.449" cy="346.449" r="401.25" transform="rotate(165 827.449 346.449)" fill="#730C5B"/>
</mask>
<g mask="url(#mask3)">
<g filter="url(#filter6_bf)">
<rect x="1140.94" y="678.53" width="848.046" height="848.046" rx="424.023" transform="rotate(165 1140.94 678.53)" fill="#FA1C1C" style="mix-blend-mode:multiply"/>
</g>
<g filter="url(#filter7_bf)">
<rect x="1351.94" y="362.057" width="890.791" height="890.791" rx="445.395" transform="rotate(165 1351.94 362.057)" fill="#50003E" style="mix-blend-mode:multiply"/>
</g>
</g>
<g style="mix-blend-mode:darken">
<mask id="mask4" mask-type="alpha" maskUnits="userSpaceOnUse" x="1096" y="364" width="592" height="349">
<rect x="1096" y="364.233" width="591.52" height="348.626" rx="174.313" fill="#D7069C"/>
</mask>
<g mask="url(#mask4)">
<ellipse cx="1207.35" cy="665.289" rx="2.04443" ry="1.20493" fill="#99030B"/>
<ellipse cx="1360" cy="665.289" rx="2.04443" ry="1.20493" fill="#99030B"/>
<ellipse cx="1245.51" cy="665.289" rx="2.04443" ry="1.20493" fill="#99030B"/>
<ellipse cx="1398.16" cy="665.289" rx="2.04443" ry="1.20493" fill="#99030B"/>
<ellipse cx="1283.67" cy="665.289" rx="2.04443" ry="1.20493" fill="#99030B"/>
<ellipse cx="1131.02" cy="665.289" rx="2.04443" ry="1.20493" fill="#99030B"/>
<ellipse cx="1436.32" cy="665.289" rx="2.04437" ry="1.20493" fill="#99030B"/>
<ellipse cx="1321.83" cy="665.289" rx="2.04443" ry="1.20493" fill="#99030B"/>
<ellipse cx="1169.18" cy="665.289" rx="2.04443" ry="1.20493" fill="#99030B"/>
<ellipse cx="1207.35" cy="597.813" rx="2.04443" ry="1.2049" fill="#99030B"/>
<ellipse cx="1360" cy="597.813" rx="2.04443" ry="1.2049" fill="#99030B"/>
<ellipse cx="1245.51" cy="597.813" rx="2.04443" ry="1.2049" fill="#99030B"/>
<ellipse cx="1398.16" cy="597.813" rx="2.04443" ry="1.2049" fill="#99030B"/>
<ellipse cx="1283.67" cy="597.813" rx="2.04443" ry="1.2049" fill="#99030B"/>
<ellipse cx="1131.02" cy="597.813" rx="2.04443" ry="1.2049" fill="#99030B"/>
<ellipse cx="1436.32" cy="597.813" rx="2.04437" ry="1.2049" fill="#99030B"/>
<ellipse cx="1321.83" cy="597.813" rx="2.04443" ry="1.2049" fill="#99030B"/>
<ellipse cx="1169.18" cy="597.813" rx="2.04443" ry="1.2049" fill="#99030B"/>
<ellipse cx="1207.35" cy="530.338" rx="2.04443" ry="1.20496" fill="#99030B"/>
<ellipse cx="1360" cy="530.338" rx="2.04443" ry="1.20496" fill="#99030B"/>
<ellipse cx="1245.51" cy="530.338" rx="2.04443" ry="1.20496" fill="#99030B"/>
<ellipse cx="1398.16" cy="530.338" rx="2.04443" ry="1.20496" fill="#99030B"/>
<ellipse cx="1283.67" cy="530.338" rx="2.04443" ry="1.20496" fill="#99030B"/>
<ellipse cx="1131.02" cy="530.338" rx="2.04443" ry="1.20496" fill="#99030B"/>
<ellipse cx="1436.32" cy="530.338" rx="2.04437" ry="1.20496" fill="#99030B"/>
<ellipse cx="1321.83" cy="530.338" rx="2.04443" ry="1.20496" fill="#99030B"/>
<ellipse cx="1169.18" cy="530.338" rx="2.04443" ry="1.20496" fill="#99030B"/>
<ellipse cx="1207.35" cy="462.861" rx="2.04443" ry="1.20496" fill="#99030B"/>
<ellipse cx="1360" cy="462.861" rx="2.04443" ry="1.20496" fill="#99030B"/>
<ellipse cx="1245.51" cy="462.861" rx="2.04443" ry="1.20496" fill="#99030B"/>
<ellipse cx="1398.16" cy="462.861" rx="2.04443" ry="1.20496" fill="#99030B"/>
<ellipse cx="1283.67" cy="462.861" rx="2.04443" ry="1.20496" fill="#99030B"/>
<ellipse cx="1131.02" cy="462.861" rx="2.04443" ry="1.20496" fill="#99030B"/>
<ellipse cx="1436.32" cy="462.861" rx="2.04437" ry="1.20496" fill="#99030B"/>
<ellipse cx="1321.83" cy="462.861" rx="2.04443" ry="1.20496" fill="#99030B"/>
<ellipse cx="1169.18" cy="462.861" rx="2.04443" ry="1.20496" fill="#99030B"/>
<ellipse cx="1207.35" cy="395.385" rx="2.04443" ry="1.20493" fill="#99030B"/>
<ellipse cx="1360" cy="395.385" rx="2.04443" ry="1.20493" fill="#99030B"/>
<ellipse cx="1245.51" cy="395.385" rx="2.04443" ry="1.20493" fill="#99030B"/>
<ellipse cx="1398.16" cy="395.385" rx="2.04443" ry="1.20493" fill="#99030B"/>
<ellipse cx="1283.67" cy="395.385" rx="2.04443" ry="1.20493" fill="#99030B"/>
<ellipse cx="1131.02" cy="395.385" rx="2.04443" ry="1.20493" fill="#99030B"/>
<ellipse cx="1436.32" cy="395.385" rx="2.04437" ry="1.20493" fill="#99030B"/>
<ellipse cx="1321.83" cy="395.385" rx="2.04443" ry="1.20493" fill="#99030B"/>
<ellipse cx="1169.18" cy="395.385" rx="2.04443" ry="1.20493" fill="#99030B"/>
<ellipse cx="1207.35" cy="710.274" rx="2.04443" ry="1.20493" fill="#99030B"/>
<ellipse cx="1360" cy="710.274" rx="2.04443" ry="1.20493" fill="#99030B"/>
<ellipse cx="1245.51" cy="710.274" rx="2.04443" ry="1.20493" fill="#99030B"/>
<ellipse cx="1398.16" cy="710.274" rx="2.04443" ry="1.20493" fill="#99030B"/>
<ellipse cx="1283.67" cy="710.274" rx="2.04443" ry="1.20493" fill="#99030B"/>
<ellipse cx="1131.02" cy="710.274" rx="2.04443" ry="1.20493" fill="#99030B"/>
<ellipse cx="1436.32" cy="710.274" rx="2.04437" ry="1.20493" fill="#99030B"/>
<ellipse cx="1321.83" cy="710.274" rx="2.04443" ry="1.20493" fill="#99030B"/>
<ellipse cx="1169.18" cy="710.274" rx="2.04443" ry="1.20493" fill="#99030B"/>
<ellipse cx="1207.35" cy="642.797" rx="2.04443" ry="1.20496" fill="#99030B"/>
<ellipse cx="1360" cy="642.797" rx="2.04443" ry="1.20496" fill="#99030B"/>
<ellipse cx="1245.51" cy="642.797" rx="2.04443" ry="1.20496" fill="#99030B"/>
<ellipse cx="1398.16" cy="642.797" rx="2.04443" ry="1.20496" fill="#99030B"/>
<ellipse cx="1283.67" cy="642.797" rx="2.04443" ry="1.20496" fill="#99030B"/>
<ellipse cx="1131.02" cy="642.797" rx="2.04443" ry="1.20496" fill="#99030B"/>
<ellipse cx="1436.32" cy="642.797" rx="2.04437" ry="1.20496" fill="#99030B"/>
<ellipse cx="1321.83" cy="642.797" rx="2.04443" ry="1.20496" fill="#99030B"/>
<ellipse cx="1169.18" cy="642.797" rx="2.04443" ry="1.20496" fill="#99030B"/>
<ellipse cx="1207.35" cy="575.321" rx="2.04443" ry="1.20493" fill="#99030B"/>
<ellipse cx="1360" cy="575.321" rx="2.04443" ry="1.20493" fill="#99030B"/>
<ellipse cx="1245.51" cy="575.321" rx="2.04443" ry="1.20493" fill="#99030B"/>
<ellipse cx="1398.16" cy="575.321" rx="2.04443" ry="1.20493" fill="#99030B"/>
<ellipse cx="1283.67" cy="575.321" rx="2.04443" ry="1.20493" fill="#99030B"/>
<ellipse cx="1131.02" cy="575.321" rx="2.04443" ry="1.20493" fill="#99030B"/>
<ellipse cx="1436.32" cy="575.321" rx="2.04437" ry="1.20493" fill="#99030B"/>
<ellipse cx="1321.83" cy="575.321" rx="2.04443" ry="1.20493" fill="#99030B"/>
<ellipse cx="1169.18" cy="575.321" rx="2.04443" ry="1.20493" fill="#99030B"/>
<ellipse cx="1207.35" cy="507.846" rx="2.04443" ry="1.20493" fill="#99030B"/>
<ellipse cx="1360" cy="507.846" rx="2.04443" ry="1.20493" fill="#99030B"/>
<ellipse cx="1245.51" cy="507.846" rx="2.04443" ry="1.20493" fill="#99030B"/>
<ellipse cx="1398.16" cy="507.846" rx="2.04443" ry="1.20493" fill="#99030B"/>
<ellipse cx="1283.67" cy="507.846" rx="2.04443" ry="1.20493" fill="#99030B"/>
<ellipse cx="1131.02" cy="507.846" rx="2.04443" ry="1.20493" fill="#99030B"/>
<ellipse cx="1436.32" cy="507.846" rx="2.04437" ry="1.20493" fill="#99030B"/>
<ellipse cx="1321.83" cy="507.846" rx="2.04443" ry="1.20493" fill="#99030B"/>
<ellipse cx="1169.18" cy="507.846" rx="2.04443" ry="1.20493" fill="#99030B"/>
<ellipse cx="1207.35" cy="440.37" rx="2.04443" ry="1.20496" fill="#99030B"/>
<ellipse cx="1360" cy="440.37" rx="2.04443" ry="1.20496" fill="#99030B"/>
<ellipse cx="1245.51" cy="440.37" rx="2.04443" ry="1.20496" fill="#99030B"/>
<ellipse cx="1398.16" cy="440.37" rx="2.04443" ry="1.20496" fill="#99030B"/>
<ellipse cx="1283.67" cy="440.37" rx="2.04443" ry="1.20496" fill="#99030B"/>
<ellipse cx="1131.02" cy="440.37" rx="2.04443" ry="1.20496" fill="#99030B"/>
<ellipse cx="1436.32" cy="440.37" rx="2.04437" ry="1.20496" fill="#99030B"/>
<ellipse cx="1321.83" cy="440.37" rx="2.04443" ry="1.20496" fill="#99030B"/>
<ellipse cx="1169.18" cy="440.37" rx="2.04443" ry="1.20496" fill="#99030B"/>
<ellipse cx="1207.35" cy="372.893" rx="2.04443" ry="1.20493" fill="#99030B"/>
<ellipse cx="1360" cy="372.893" rx="2.04443" ry="1.20493" fill="#99030B"/>
<ellipse cx="1245.51" cy="372.893" rx="2.04443" ry="1.20493" fill="#99030B"/>
<ellipse cx="1398.16" cy="372.893" rx="2.04443" ry="1.20493" fill="#99030B"/>
<ellipse cx="1283.67" cy="372.893" rx="2.04443" ry="1.20493" fill="#99030B"/>
<ellipse cx="1131.02" cy="372.893" rx="2.04443" ry="1.20493" fill="#99030B"/>
<ellipse cx="1436.32" cy="372.893" rx="2.04437" ry="1.20493" fill="#99030B"/>
<ellipse cx="1321.83" cy="372.893" rx="2.04443" ry="1.20493" fill="#99030B"/>
<ellipse cx="1169.18" cy="372.893" rx="2.04443" ry="1.20493" fill="#99030B"/>
<ellipse cx="1207.35" cy="687.781" rx="2.04443" ry="1.20496" fill="#99030B"/>
<ellipse cx="1360" cy="687.781" rx="2.04443" ry="1.20496" fill="#99030B"/>
<ellipse cx="1245.51" cy="687.781" rx="2.04443" ry="1.20496" fill="#99030B"/>
<ellipse cx="1398.16" cy="687.781" rx="2.04443" ry="1.20496" fill="#99030B"/>
<ellipse cx="1283.67" cy="687.781" rx="2.04443" ry="1.20496" fill="#99030B"/>
<ellipse cx="1131.02" cy="687.781" rx="2.04443" ry="1.20496" fill="#99030B"/>
<ellipse cx="1436.32" cy="687.781" rx="2.04437" ry="1.20496" fill="#99030B"/>
<ellipse cx="1321.83" cy="687.781" rx="2.04443" ry="1.20496" fill="#99030B"/>
<ellipse cx="1169.18" cy="687.781" rx="2.04443" ry="1.20496" fill="#99030B"/>
<ellipse cx="1207.35" cy="620.305" rx="2.04443" ry="1.2049" fill="#99030B"/>
<ellipse cx="1360" cy="620.305" rx="2.04443" ry="1.2049" fill="#99030B"/>
<ellipse cx="1245.51" cy="620.305" rx="2.04443" ry="1.2049" fill="#99030B"/>
<ellipse cx="1398.16" cy="620.305" rx="2.04443" ry="1.2049" fill="#99030B"/>
<ellipse cx="1283.67" cy="620.305" rx="2.04443" ry="1.2049" fill="#99030B"/>
<ellipse cx="1131.02" cy="620.305" rx="2.04443" ry="1.2049" fill="#99030B"/>
<ellipse cx="1436.32" cy="620.305" rx="2.04437" ry="1.2049" fill="#99030B"/>
<ellipse cx="1321.83" cy="620.305" rx="2.04443" ry="1.2049" fill="#99030B"/>
<ellipse cx="1169.18" cy="620.305" rx="2.04443" ry="1.2049" fill="#99030B"/>
<ellipse cx="1207.35" cy="552.829" rx="2.04443" ry="1.20486" fill="#99030B"/>
<ellipse cx="1360" cy="552.829" rx="2.04443" ry="1.20486" fill="#99030B"/>
<ellipse cx="1245.51" cy="552.829" rx="2.04443" ry="1.20486" fill="#99030B"/>
<ellipse cx="1398.16" cy="552.829" rx="2.04443" ry="1.20486" fill="#99030B"/>
<ellipse cx="1283.67" cy="552.829" rx="2.04443" ry="1.20486" fill="#99030B"/>
<ellipse cx="1131.02" cy="552.829" rx="2.04443" ry="1.20486" fill="#99030B"/>
<ellipse cx="1436.32" cy="552.829" rx="2.04437" ry="1.20486" fill="#99030B"/>
<ellipse cx="1321.83" cy="552.829" rx="2.04443" ry="1.20486" fill="#99030B"/>
<ellipse cx="1169.18" cy="552.829" rx="2.04443" ry="1.20486" fill="#99030B"/>
<ellipse cx="1207.35" cy="485.353" rx="2.04443" ry="1.20493" fill="#99030B"/>
<ellipse cx="1360" cy="485.353" rx="2.04443" ry="1.20493" fill="#99030B"/>
<ellipse cx="1245.51" cy="485.353" rx="2.04443" ry="1.20493" fill="#99030B"/>
<ellipse cx="1398.16" cy="485.353" rx="2.04443" ry="1.20493" fill="#99030B"/>
<ellipse cx="1283.67" cy="485.353" rx="2.04443" ry="1.20493" fill="#99030B"/>
<ellipse cx="1131.02" cy="485.353" rx="2.04443" ry="1.20493" fill="#99030B"/>
<ellipse cx="1436.32" cy="485.353" rx="2.04437" ry="1.20493" fill="#99030B"/>
<ellipse cx="1321.83" cy="485.353" rx="2.04443" ry="1.20493" fill="#99030B"/>
<ellipse cx="1169.18" cy="485.353" rx="2.04443" ry="1.20493" fill="#99030B"/>
<ellipse cx="1207.35" cy="417.877" rx="2.04443" ry="1.20491" fill="#99030B"/>
<ellipse cx="1360" cy="417.877" rx="2.04443" ry="1.20491" fill="#99030B"/>
<ellipse cx="1245.51" cy="417.877" rx="2.04443" ry="1.20491" fill="#99030B"/>
<ellipse cx="1398.16" cy="417.877" rx="2.04443" ry="1.20491" fill="#99030B"/>
<ellipse cx="1283.67" cy="417.877" rx="2.04443" ry="1.20491" fill="#99030B"/>
<ellipse cx="1131.02" cy="417.877" rx="2.04443" ry="1.20491" fill="#99030B"/>
<ellipse cx="1436.32" cy="417.877" rx="2.04437" ry="1.20491" fill="#99030B"/>
<ellipse cx="1321.83" cy="417.877" rx="2.04443" ry="1.20491" fill="#99030B"/>
<ellipse cx="1169.18" cy="417.877" rx="2.04443" ry="1.20491" fill="#99030B"/>
</g>
</g>
<defs>
<filter id="filter0_bf" x="236.661" y="-819.147" width="1981.36" height="1981.36" filterUnits="userSpaceOnUse" color-interpolation-filters="sRGB">
<feFlood flood-opacity="0" result="BackgroundImageFix"/>
<feGaussianBlur in="BackgroundImage" stdDeviation="10"/>
<feComposite in2="SourceAlpha" operator="in" result="effect1_backgroundBlur"/>
<feBlend mode="normal" in="SourceGraphic" in2="effect1_backgroundBlur" result="shape"/>
<feGaussianBlur stdDeviation="175.5" result="effect2_foregroundBlur"/>
</filter>
<filter id="filter1_bf" x="-136.076" y="-229.983" width="1937.06" height="1937.06" filterUnits="userSpaceOnUse" color-interpolation-filters="sRGB">
<feFlood flood-opacity="0" result="BackgroundImageFix"/>
<feGaussianBlur in="BackgroundImage" stdDeviation="10"/>
<feComposite in2="SourceAlpha" operator="in" result="effect1_backgroundBlur"/>
<feBlend mode="normal" in="SourceGraphic" in2="effect1_backgroundBlur" result="shape"/>
<feGaussianBlur stdDeviation="50" result="effect2_foregroundBlur"/>
</filter>
<filter id="filter2_f" x="4.80939" y="-379.605" width="1487.53" height="1485.22" filterUnits="userSpaceOnUse" color-interpolation-filters="sRGB">
<feFlood flood-opacity="0" result="BackgroundImageFix"/>
<feBlend mode="normal" in="SourceGraphic" in2="BackgroundImageFix" result="shape"/>
<feGaussianBlur stdDeviation="50" result="effect1_foregroundBlur"/>
</filter>
<filter id="filter3_bf" x="490.884" y="-388.43" width="1139.09" height="1142.41" filterUnits="userSpaceOnUse" color-interpolation-filters="sRGB">
<feFlood flood-opacity="0" result="BackgroundImageFix"/>
<feGaussianBlur in="BackgroundImage" stdDeviation="10"/>
<feComposite in2="SourceAlpha" operator="in" result="effect1_backgroundBlur"/>
<feBlend mode="normal" in="SourceGraphic" in2="effect1_backgroundBlur" result="shape"/>
<feGaussianBlur stdDeviation="50" result="effect2_foregroundBlur"/>
</filter>
<filter id="filter4_bf" x="-4.52979" y="-499.098" width="1139.09" height="1142.41" filterUnits="userSpaceOnUse" color-interpolation-filters="sRGB">
<feFlood flood-opacity="0" result="BackgroundImageFix"/>
<feGaussianBlur in="BackgroundImage" stdDeviation="10"/>
<feComposite in2="SourceAlpha" operator="in" result="effect1_backgroundBlur"/>
<feBlend mode="normal" in="SourceGraphic" in2="effect1_backgroundBlur" result="shape"/>
<feGaussianBlur stdDeviation="50" result="effect2_foregroundBlur"/>
</filter>
<filter id="filter5_f" x="199.628" y="-175.622" width="1259.64" height="1259.64" filterUnits="userSpaceOnUse" color-interpolation-filters="sRGB">
<feFlood flood-opacity="0" result="BackgroundImageFix"/>
<feBlend mode="normal" in="SourceGraphic" in2="BackgroundImageFix" result="shape"/>
<feGaussianBlur stdDeviation="50" result="effect1_foregroundBlur"/>
</filter>
<filter id="filter6_bf" x="2.29803" y="-240.619" width="1238.64" height="1238.64" filterUnits="userSpaceOnUse" color-interpolation-filters="sRGB">
<feFlood flood-opacity="0" result="BackgroundImageFix"/>
<feGaussianBlur in="BackgroundImage" stdDeviation="10"/>
<feComposite in2="SourceAlpha" operator="in" result="effect1_backgroundBlur"/>
<feBlend mode="normal" in="SourceGraphic" in2="effect1_backgroundBlur" result="shape"/>
<feGaussianBlur stdDeviation="50" result="effect2_foregroundBlur"/>
</filter>
<filter id="filter7_bf" x="-103.053" y="-862.381" width="1818.99" height="1818.99" filterUnits="userSpaceOnUse" color-interpolation-filters="sRGB">
<feFlood flood-opacity="0" result="BackgroundImageFix"/>
<feGaussianBlur in="BackgroundImage" stdDeviation="10"/>
<feComposite in2="SourceAlpha" operator="in" result="effect1_backgroundBlur"/>
<feBlend mode="normal" in="SourceGraphic" in2="effect1_backgroundBlur" result="shape"/>
<feGaussianBlur stdDeviation="182" result="effect2_foregroundBlur"/>
</filter>
</defs>
</svg>
