<svg width="24" height="24" viewBox="0 0 24 24" fill="none" xmlns="http://www.w3.org/2000/svg">
<path d="M19 0H5C2.239 0 0 2.20957 0 4.93429V18.7503C0 21.475 2.239 23.6846 5 23.6846H19C21.762 23.6846 24 21.475 24 18.7503V4.93429C24 2.20957 21.762 0 19 0ZM8 18.7503H5V7.89486H8V18.7503ZM6.5 6.64352C5.534 6.64352 4.75 5.8639 4.75 4.90271C4.75 3.94151 5.534 3.16189 6.5 3.16189C7.466 3.16189 8.25 3.94151 8.25 4.90271C8.25 5.8639 7.467 6.64352 6.5 6.64352ZM20 18.7503H17V13.2199C17 9.8962 13 10.1479 13 13.2199V18.7503H10V7.89486H13V9.63666C14.396 7.08465 20 6.89616 20 12.0801V18.7503Z" fill="white"/>
</svg>
