<svg width="361" height="464" viewBox="0 0 361 464" fill="none" xmlns="http://www.w3.org/2000/svg">
<rect width="361" height="464" rx="12" fill="white"/>
<path d="M37.31 54H39.236L44.006 41.22H41.684L38.3 50.868H38.282L34.88 41.22H32.54L37.31 54ZM52.3811 49.5C52.3811 46.944 50.7071 45.09 48.2411 45.09C45.6671 45.09 43.8311 46.908 43.8311 49.608C43.8311 52.362 45.7211 54.144 48.3851 54.144C50.2751 54.144 51.3731 53.442 52.1111 52.488L50.7071 51.282C50.2571 51.84 49.5371 52.308 48.4931 52.308C47.1251 52.308 46.1711 51.552 45.9191 50.274H52.3271C52.3451 50.13 52.3811 49.824 52.3811 49.5ZM48.2231 46.908C49.3751 46.908 50.0951 47.628 50.3471 48.69H45.9551C46.2431 47.538 47.1071 46.908 48.2231 46.908ZM54.4605 54H56.4765V49.536C56.4765 47.808 57.3765 46.908 58.8345 46.908C60.0405 46.908 60.7425 47.52 60.7425 49.266V54H62.7585V48.744C62.7585 46.116 61.4085 45.09 59.4825 45.09C58.2945 45.09 57.2325 45.504 56.4945 46.314H56.4765V40.752H54.4605V54ZM66.3523 43.92C67.1083 43.92 67.7203 43.308 67.7203 42.57C67.7203 41.85 67.1083 41.238 66.3523 41.238C65.5963 41.238 65.0023 41.85 65.0023 42.57C65.0023 43.308 65.5963 43.92 66.3523 43.92ZM65.3443 54H67.3603V45.216H65.3443V54ZM74.0826 54.144C75.9906 54.144 77.1246 53.46 77.8626 52.506L76.4766 51.282C76.0266 51.876 75.2346 52.308 74.2626 52.308C72.7146 52.308 71.6526 51.228 71.6526 49.608C71.6526 48.006 72.6966 46.908 74.2626 46.908C75.2166 46.908 75.9726 47.322 76.4766 47.916L77.8446 46.728C76.9626 45.648 75.5226 45.09 74.1546 45.09C71.4906 45.09 69.6006 46.926 69.6006 49.626C69.6006 52.308 71.4906 54.144 74.0826 54.144ZM79.8287 54H81.8447V40.752H79.8287V54ZM92.635 49.5C92.635 46.944 90.961 45.09 88.495 45.09C85.921 45.09 84.085 46.908 84.085 49.608C84.085 52.362 85.975 54.144 88.639 54.144C90.529 54.144 91.627 53.442 92.365 52.488L90.961 51.282C90.511 51.84 89.791 52.308 88.747 52.308C87.379 52.308 86.425 51.552 86.173 50.274H92.581C92.599 50.13 92.635 49.824 92.635 49.5ZM88.477 46.908C89.629 46.908 90.349 47.628 90.601 48.69H86.209C86.497 47.538 87.361 46.908 88.477 46.908ZM97.5224 54.144C99.7544 54.144 100.798 52.956 100.798 51.48C100.798 49.734 99.6284 49.392 97.7564 48.654C96.9104 48.33 96.3704 48.024 96.3704 47.592C96.3704 47.052 96.9284 46.836 97.3244 46.836C98.0084 46.836 98.8184 47.106 99.5204 47.772L100.528 46.188C99.5564 45.396 98.5484 45.09 97.4324 45.09C95.6324 45.09 94.3364 46.134 94.3364 47.574C94.3364 49.302 95.5784 49.95 97.0184 50.454C98.1704 50.85 98.7464 51.066 98.7464 51.516C98.7464 52.038 98.2964 52.38 97.5224 52.38C96.4424 52.38 95.6864 52.038 94.9844 51.354L93.9764 52.866C94.8944 53.676 96.1004 54.144 97.5224 54.144ZM107.869 54H111.991C116.095 54 118.579 51.39 118.579 47.628C118.579 43.848 115.987 41.22 111.937 41.22H107.869V54ZM110.047 52.056V43.164H111.973C114.547 43.164 116.329 45.036 116.329 47.628C116.329 50.166 114.565 52.056 111.865 52.056H110.047ZM128.899 49.5C128.899 46.944 127.225 45.09 124.759 45.09C122.185 45.09 120.349 46.908 120.349 49.608C120.349 52.362 122.239 54.144 124.903 54.144C126.793 54.144 127.891 53.442 128.629 52.488L127.225 51.282C126.775 51.84 126.055 52.308 125.011 52.308C123.643 52.308 122.689 51.552 122.437 50.274H128.845C128.863 50.13 128.899 49.824 128.899 49.5ZM124.741 46.908C125.893 46.908 126.613 47.628 126.865 48.69H122.473C122.761 47.538 123.625 46.908 124.741 46.908ZM130.978 57.564H132.994V52.938L133.03 52.92C133.678 53.712 134.596 54.144 135.784 54.144C138.232 54.144 140.05 52.362 140.05 49.644C140.05 46.998 138.232 45.09 135.802 45.09C134.65 45.09 133.678 45.504 133.03 46.26H132.994V45.216H130.978V57.564ZM135.478 52.308C134.038 52.308 132.904 51.246 132.904 49.662C132.904 48.096 133.948 46.908 135.46 46.908C136.864 46.908 137.998 47.97 137.998 49.662C137.998 51.21 136.954 52.308 135.478 52.308ZM142.284 54H144.3V40.752H142.284V54ZM151.148 54.144C153.848 54.144 155.756 52.29 155.756 49.626C155.756 46.926 153.848 45.09 151.148 45.09C148.376 45.09 146.54 47.034 146.54 49.626C146.54 52.2 148.376 54.144 151.148 54.144ZM151.148 52.308C149.636 52.308 148.592 51.12 148.592 49.626C148.592 48.096 149.618 46.908 151.148 46.908C152.588 46.908 153.704 48.006 153.704 49.626C153.704 51.21 152.57 52.308 151.148 52.308ZM158.284 57.564H160.372L165.196 45.216H163.126L160.876 51.102H160.84L158.428 45.216H156.268L159.868 53.514L158.284 57.564ZM174.444 49.5C174.444 46.944 172.77 45.09 170.304 45.09C167.73 45.09 165.894 46.908 165.894 49.608C165.894 52.362 167.784 54.144 170.448 54.144C172.338 54.144 173.436 53.442 174.174 52.488L172.77 51.282C172.32 51.84 171.6 52.308 170.556 52.308C169.188 52.308 168.234 51.552 167.982 50.274H174.39C174.408 50.13 174.444 49.824 174.444 49.5ZM170.286 46.908C171.438 46.908 172.158 47.628 172.41 48.69H168.018C168.306 47.538 169.17 46.908 170.286 46.908ZM180.249 54.144C181.509 54.144 182.463 53.658 183.111 52.812H183.129V54H185.055V40.752H183.057V46.296H183.039C182.373 45.504 181.383 45.09 180.231 45.09C177.819 45.09 175.983 46.998 175.983 49.644C175.983 52.362 177.819 54.144 180.249 54.144ZM180.555 52.308C179.079 52.308 178.035 51.21 178.035 49.662C178.035 47.97 179.169 46.908 180.573 46.908C182.085 46.908 183.129 48.096 183.129 49.662C183.129 51.246 181.995 52.308 180.555 52.308Z" fill="#1F1F1F"/>
<rect x="32" y="76" width="301" height="1" fill="#CCCCCC"/>
<path d="M44.768 167.432C51.152 167.432 55.904 163.736 55.904 158.024C55.904 154.184 53.84 151.448 50.672 150.008V149.864C53.36 148.28 54.944 145.64 54.944 142.472C54.944 136.856 50.192 133.64 44.336 133.64C39.488 133.64 35.696 136.088 34.16 139.496L39.392 142.328C40.352 140.648 41.744 139.544 44.192 139.544C46.592 139.544 48.512 141.176 48.512 143.528C48.512 145.64 47.216 147.416 44.288 147.416H41.408V152.696H43.712C47.36 152.696 49.184 154.76 49.184 157.16C49.184 159.848 46.976 161.528 44.288 161.528C41.312 161.528 39.488 160.136 38.576 157.784L32.96 160.136C34.544 164.312 38.912 167.432 44.768 167.432ZM59.8396 167H81.2956V161.096H69.4396L69.3916 160.952L75.5356 154.52C79.8076 150.104 81.0076 147.176 81.0076 143.432C81.0076 137.336 76.0156 133.688 70.4956 133.688C64.9756 133.688 61.5196 136.424 59.5996 139.928L64.2556 143.24C65.6956 140.84 67.6636 139.736 70.0156 139.736C72.5596 139.736 74.3836 141.656 74.3836 144.2C74.3836 146.84 72.6556 149.048 69.9676 151.832L59.7436 162.728L59.8396 167ZM97.5339 145.736C96.4299 145.736 94.9419 145.976 93.4539 146.408L93.8379 139.976H106.126V134.024H88.0779L87.0699 151.496L90.5739 152.744C92.1579 151.496 93.7419 151.064 95.5659 151.064C98.2059 151.064 101.182 152.792 101.182 156.248C101.182 159.224 98.9259 161.48 95.4219 161.48C92.7819 161.48 90.6219 160.232 89.3259 158.456L84.6219 162.2C87.4059 165.656 91.5339 167.432 96.0459 167.432C103.006 167.432 107.806 162.872 107.806 156.344C107.806 149.768 103.15 145.736 97.5339 145.736ZM123.586 167.384C130.258 167.384 135.538 163.784 135.538 157.928C135.538 153.416 133.042 150.392 129.826 149.192V149.096C131.842 148.232 133.858 145.496 133.858 142.232C133.858 136.808 129.49 133.64 123.586 133.64C117.826 133.64 113.362 136.664 113.362 142.232C113.362 145.496 115.33 148.136 117.394 149.096V149.192C114.226 150.44 111.682 153.464 111.682 157.928C111.682 163.592 116.77 167.384 123.586 167.384ZM123.586 146.552C121.138 146.552 119.41 145.016 119.41 142.856C119.41 140.792 121.09 139.064 123.586 139.064C125.986 139.064 127.81 140.696 127.81 142.856C127.81 145.016 126.034 146.552 123.586 146.552ZM123.586 161.816C120.61 161.816 118.258 159.704 118.258 157.064C118.258 154.232 120.418 152.216 123.586 152.216C126.706 152.216 128.914 154.232 128.914 157.064C128.914 159.56 126.754 161.816 123.586 161.816Z" fill="#0E141A"/>
<path d="M32.35 191H33.624L34.506 188.578H38.944L39.84 191H41.114L37.334 181.06H36.116L32.35 191ZM34.898 187.514L36.704 182.53H36.732L38.566 187.514H34.898ZM43.9534 191H45.0454L47.8174 184.182H46.5994L44.5134 189.558H44.4994L42.4134 184.182H41.1814L43.9534 191ZM54.8623 187.472C54.8623 185.526 53.5883 184.098 51.7263 184.098C49.7803 184.098 48.3663 185.54 48.3663 187.598C48.3663 189.684 49.7943 191.084 51.8103 191.084C53.1823 191.084 54.0363 190.566 54.6243 189.81L53.8263 189.138C53.4063 189.656 52.7623 190.048 51.8523 190.048C50.5643 190.048 49.6683 189.208 49.5143 187.934H54.8343C54.8343 187.85 54.8623 187.654 54.8623 187.472ZM51.7123 185.134C52.8323 185.134 53.5603 185.89 53.7283 187.01H49.5423C49.7523 185.848 50.6203 185.134 51.7123 185.134ZM56.5249 191H57.6589V187.71C57.6589 186.338 58.4289 185.344 59.7309 185.344C59.8429 185.344 60.0109 185.358 60.1789 185.372V184.112C60.0809 184.098 59.9969 184.098 59.8989 184.098C58.9609 184.098 58.1769 184.602 57.6869 185.428H57.6589V184.182H56.5249V191ZM64.1254 191.084C65.2314 191.084 66.0714 190.58 66.5614 189.768H66.5754V191H67.6674V184.182H66.5334V185.386L66.5054 185.4C66.0154 184.574 65.1334 184.098 64.1254 184.098C62.1934 184.098 60.8074 185.624 60.8074 187.64C60.8074 189.712 62.2494 191.084 64.1254 191.084ZM64.2934 190.048C62.8934 190.048 61.9554 189.012 61.9554 187.64C61.9554 186.128 63.0054 185.134 64.2934 185.134C65.6374 185.134 66.5754 186.24 66.5754 187.64C66.5754 189.082 65.5534 190.048 64.2934 190.048ZM72.7146 193.856C75.0946 193.856 76.0746 192.456 76.0746 190.496V184.182H74.9406V185.274H74.9126C74.3666 184.532 73.4846 184.098 72.5186 184.098C70.6006 184.098 69.2566 185.554 69.2566 187.5C69.2566 189.53 70.6986 190.874 72.5606 190.874C73.6106 190.874 74.4226 190.412 74.9266 189.684H74.9546V190.776C74.9546 191.924 74.2126 192.82 72.6726 192.82C71.6926 192.82 71.0066 192.554 70.2226 192.106L69.9426 193.114C70.7546 193.604 71.6926 193.856 72.7146 193.856ZM72.7006 189.824C71.4126 189.824 70.4046 188.914 70.4046 187.472C70.4046 186.142 71.3286 185.148 72.7146 185.148C73.9886 185.148 74.9826 186.072 74.9826 187.444C74.9826 188.802 74.0726 189.824 72.7006 189.824ZM84.1612 187.472C84.1612 185.526 82.8872 184.098 81.0252 184.098C79.0792 184.098 77.6652 185.54 77.6652 187.598C77.6652 189.684 79.0932 191.084 81.1092 191.084C82.4812 191.084 83.3352 190.566 83.9232 189.81L83.1252 189.138C82.7052 189.656 82.0612 190.048 81.1512 190.048C79.8632 190.048 78.9672 189.208 78.8132 187.934H84.1332C84.1332 187.85 84.1612 187.654 84.1612 187.472ZM81.0112 185.134C82.1312 185.134 82.8592 185.89 83.0272 187.01H78.8412C79.0512 185.848 79.9192 185.134 81.0112 185.134ZM91.6682 191H92.7602L95.5322 184.182H94.3142L92.2282 189.558H92.2142L90.1282 184.182H88.8962L91.6682 191ZM102.577 187.472C102.577 185.526 101.303 184.098 99.4412 184.098C97.4952 184.098 96.0812 185.54 96.0812 187.598C96.0812 189.684 97.5092 191.084 99.5252 191.084C100.897 191.084 101.751 190.566 102.339 189.81L101.541 189.138C101.121 189.656 100.477 190.048 99.5672 190.048C98.2792 190.048 97.3832 189.208 97.2292 187.934H102.549C102.549 187.85 102.577 187.654 102.577 187.472ZM99.4272 185.134C100.547 185.134 101.275 185.89 101.443 187.01H97.2572C97.4672 185.848 98.3352 185.134 99.4272 185.134ZM104.24 191H105.374V187.57C105.374 186.03 106.214 185.134 107.572 185.134C108.566 185.134 109.252 185.694 109.252 187.234V191H110.386V186.912C110.386 184.966 109.378 184.098 107.908 184.098C106.816 184.098 105.92 184.56 105.388 185.372H105.374V180.696H104.24V191ZM113.033 182.936C113.495 182.936 113.859 182.572 113.859 182.124C113.859 181.676 113.495 181.312 113.033 181.312C112.571 181.312 112.207 181.676 112.207 182.124C112.207 182.572 112.571 182.936 113.033 182.936ZM112.459 191H113.593V184.182H112.459V191ZM118.774 191.084C120.104 191.084 121.014 190.58 121.588 189.894L120.804 189.18C120.384 189.698 119.67 190.048 118.858 190.048C117.472 190.048 116.534 189.054 116.534 187.598C116.534 186.156 117.472 185.134 118.872 185.134C119.684 185.134 120.356 185.498 120.79 186.002L121.56 185.316C120.888 184.518 119.838 184.098 118.816 184.098C116.786 184.098 115.372 185.54 115.372 187.598C115.372 189.67 116.786 191.084 118.774 191.084ZM123.191 191H124.325V180.696H123.191V191ZM132.601 187.472C132.601 185.526 131.327 184.098 129.465 184.098C127.519 184.098 126.105 185.54 126.105 187.598C126.105 189.684 127.533 191.084 129.549 191.084C130.921 191.084 131.775 190.566 132.363 189.81L131.565 189.138C131.145 189.656 130.501 190.048 129.591 190.048C128.303 190.048 127.407 189.208 127.253 187.934H132.573C132.573 187.85 132.601 187.654 132.601 187.472ZM129.451 185.134C130.571 185.134 131.299 185.89 131.467 187.01H127.281C127.491 185.848 128.359 185.134 129.451 185.134ZM136.321 191.084C137.959 191.084 138.771 190.202 138.771 189.138C138.785 187.808 137.833 187.556 136.391 186.996C135.649 186.73 135.103 186.464 135.103 185.932C135.103 185.414 135.621 185.106 136.153 185.106C136.741 185.106 137.371 185.288 137.959 185.834L138.547 184.938C137.791 184.322 137.021 184.098 136.195 184.098C134.907 184.098 133.955 184.882 133.955 185.932C133.955 187.178 134.893 187.626 135.999 188.018C136.993 188.382 137.623 188.55 137.623 189.152C137.623 189.67 137.147 190.076 136.321 190.076C135.369 190.076 134.767 189.768 134.235 189.25L133.661 190.118C134.319 190.692 135.187 191.084 136.321 191.084ZM143.671 192.582L149.047 180.654L148.151 180.22L142.761 192.162L143.671 192.582ZM156.644 191.084C157.75 191.084 158.618 190.566 159.108 189.74H159.122V191H160.214V180.696H159.08V185.4H159.066C158.548 184.574 157.666 184.098 156.63 184.098C154.712 184.098 153.298 185.624 153.298 187.64C153.298 189.712 154.754 191.084 156.644 191.084ZM156.798 190.048C155.412 190.048 154.46 189.012 154.46 187.64C154.46 186.128 155.51 185.134 156.812 185.134C158.184 185.134 159.122 186.24 159.122 187.64C159.122 189.082 158.086 190.048 156.798 190.048ZM165.202 191.084C166.308 191.084 167.148 190.58 167.638 189.768H167.652V191H168.744V184.182H167.61V185.386L167.582 185.4C167.092 184.574 166.21 184.098 165.202 184.098C163.27 184.098 161.884 185.624 161.884 187.64C161.884 189.712 163.326 191.084 165.202 191.084ZM165.37 190.048C163.97 190.048 163.032 189.012 163.032 187.64C163.032 186.128 164.082 185.134 165.37 185.134C166.714 185.134 167.652 186.24 167.652 187.64C167.652 189.082 166.63 190.048 165.37 190.048ZM171.705 193.772H172.881L176.745 184.182H175.555L173.497 189.362H173.469L171.257 184.182H170.025L172.923 190.734L171.705 193.772Z" fill="#7A7A7A"/>
<path d="M30.132 403.072C31.656 403.072 32.796 402.16 32.796 400.792C32.796 399.808 32.244 399.064 31.368 398.728V398.692C32.148 398.356 32.58 397.612 32.58 396.844C32.58 395.476 31.452 394.684 30.048 394.684C28.86 394.684 28.02 395.236 27.588 395.992L28.404 396.448C28.728 395.968 29.208 395.62 30.024 395.62C30.888 395.62 31.56 396.16 31.56 396.976C31.56 397.636 31.128 398.296 30.072 398.296H29.268V399.16H29.952C31.176 399.16 31.764 399.856 31.764 400.648C31.764 401.548 31.02 402.136 30.06 402.136C29.1 402.136 28.476 401.704 28.188 401.044L27.312 401.44C27.72 402.388 28.728 403.072 30.132 403.072ZM37.5041 403H38.5121V401.548H39.7121V400.636H38.5121V394.756H37.6601L33.6761 400.828V401.548H37.5041V403ZM34.8521 400.66L37.5401 396.472V400.66H34.8521ZM43.5098 403.072C45.1298 403.072 46.4138 402.16 46.4138 400.732C46.4138 399.616 45.7418 398.824 44.8298 398.548V398.524C45.4058 398.332 46.0058 397.672 46.0058 396.784C46.0058 395.524 44.9978 394.684 43.5098 394.684C42.1058 394.684 41.0258 395.464 41.0258 396.784C41.0258 397.66 41.6138 398.308 42.1898 398.524V398.548C41.2898 398.836 40.6178 399.628 40.6178 400.732C40.6178 402.076 41.8058 403.072 43.5098 403.072ZM43.5098 398.104C42.6218 398.104 41.9978 397.624 41.9978 396.868C41.9978 396.16 42.5858 395.584 43.5098 395.584C44.3858 395.584 45.0338 396.112 45.0338 396.868C45.0338 397.624 44.4098 398.104 43.5098 398.104ZM43.5098 402.16C42.4658 402.16 41.6498 401.512 41.6498 400.624C41.6498 399.676 42.3818 399.04 43.5098 399.04C44.6258 399.04 45.3818 399.676 45.3818 400.624C45.3818 401.452 44.6378 402.16 43.5098 402.16ZM50.701 403.072C52.669 403.072 53.797 401.32 53.797 398.884C53.797 396.184 52.489 394.684 50.701 394.684C48.745 394.684 47.605 396.436 47.605 398.884C47.605 401.572 48.913 403.072 50.701 403.072ZM50.701 402.136C49.489 402.136 48.637 400.972 48.637 398.884C48.637 396.904 49.393 395.62 50.701 395.62C51.925 395.62 52.765 396.784 52.765 398.884C52.765 400.852 52.021 402.136 50.701 402.136Z" fill="#1F1F1F"/>
<path d="M28.056 419H29.112V412.508H29.124L31.896 417.284H32.604L35.376 412.508H35.4V419H36.444V410.48H35.4L32.268 415.988H32.244L29.112 410.48H28.056V419ZM41.064 419.072C42.792 419.072 44.076 417.86 44.076 416.084C44.076 414.308 42.792 413.084 41.064 413.084C39.252 413.084 38.04 414.404 38.04 416.084C38.04 417.764 39.252 419.072 41.064 419.072ZM41.064 418.184C39.852 418.184 39.036 417.248 39.036 416.084C39.036 414.92 39.84 413.972 41.064 413.972C42.192 413.972 43.08 414.836 43.08 416.084C43.08 417.332 42.18 418.184 41.064 418.184ZM45.5253 419H46.4973V416.084C46.4973 414.764 47.2173 413.972 48.3213 413.972C49.1733 413.972 49.7613 414.44 49.7613 415.808V419H50.7333V415.532C50.7333 413.864 49.8933 413.084 48.6333 413.084C47.7333 413.084 46.9653 413.504 46.5093 414.212H46.4973V413.156H45.5253V419ZM52.9433 419.084C53.3393 419.084 53.6513 418.772 53.6513 418.376C53.6513 417.98 53.3393 417.668 52.9433 417.668C52.5473 417.668 52.2233 417.98 52.2233 418.376C52.2233 418.772 52.5473 419.084 52.9433 419.084Z" fill="#7A7A7A"/>
<path d="M74.132 403.072C75.656 403.072 76.796 402.16 76.796 400.792C76.796 399.808 76.244 399.064 75.368 398.728V398.692C76.148 398.356 76.58 397.612 76.58 396.844C76.58 395.476 75.452 394.684 74.048 394.684C72.86 394.684 72.02 395.236 71.588 395.992L72.404 396.448C72.728 395.968 73.208 395.62 74.024 395.62C74.888 395.62 75.56 396.16 75.56 396.976C75.56 397.636 75.128 398.296 74.072 398.296H73.268V399.16H73.952C75.176 399.16 75.764 399.856 75.764 400.648C75.764 401.548 75.02 402.136 74.06 402.136C73.1 402.136 72.476 401.704 72.188 401.044L71.312 401.44C71.72 402.388 72.728 403.072 74.132 403.072ZM77.8544 403H83.0384V402.076H79.3904L79.3784 402.04L81.5264 399.88C82.5464 398.848 82.9424 398.044 82.9424 397.12C82.9424 395.596 81.7424 394.696 80.4224 394.696C79.1384 394.696 78.3104 395.344 77.8544 396.256L78.5984 396.772C78.9824 396.028 79.5824 395.644 80.3624 395.644C81.2744 395.644 81.9104 396.316 81.9104 397.228C81.9104 398.044 81.3584 398.704 80.6624 399.424L77.8424 402.304L77.8544 403ZM85.9619 403H86.9699V394.756H86.1299L83.8259 396.46L84.3179 397.216L85.9619 395.968V403ZM88.5068 403H93.6908V402.076H90.0428L90.0308 402.04L92.1788 399.88C93.1988 398.848 93.5948 398.044 93.5948 397.12C93.5948 395.596 92.3948 394.696 91.0748 394.696C89.7908 394.696 88.9628 395.344 88.5068 396.256L89.2508 396.772C89.6348 396.028 90.2348 395.644 91.0148 395.644C91.9268 395.644 92.5628 396.316 92.5628 397.228C92.5628 398.044 92.0108 398.704 91.3148 399.424L88.4948 402.304L88.5068 403Z" fill="#1F1F1F"/>
<path d="M73.904 419H74.948V411.428H77.528V410.48H71.36V411.428H73.904V419ZM79.5541 419.072C80.3221 419.072 81.0421 418.688 81.4861 417.992H81.4981V419H82.4701V413.156H81.4981V415.988C81.4981 417.38 80.6941 418.184 79.7581 418.184C78.8341 418.184 78.3301 417.68 78.3301 416.36V413.156H77.3581V416.636C77.3581 418.304 78.2101 419.072 79.5541 419.072ZM89.4244 415.976C89.4244 414.308 88.3324 413.084 86.7364 413.084C85.0684 413.084 83.8564 414.32 83.8564 416.084C83.8564 417.872 85.0804 419.072 86.8084 419.072C87.9844 419.072 88.7164 418.628 89.2204 417.98L88.5364 417.404C88.1764 417.848 87.6244 418.184 86.8444 418.184C85.7404 418.184 84.9724 417.464 84.8404 416.372H89.4004C89.4004 416.3 89.4244 416.132 89.4244 415.976ZM86.7244 413.972C87.6844 413.972 88.3084 414.62 88.4524 415.58H84.8644C85.0444 414.584 85.7884 413.972 86.7244 413.972ZM92.6135 419.072C94.0175 419.072 94.7135 418.316 94.7135 417.404C94.7255 416.264 93.9095 416.048 92.6735 415.568C92.0375 415.34 91.5695 415.112 91.5695 414.656C91.5695 414.212 92.0135 413.948 92.4695 413.948C92.9735 413.948 93.5135 414.104 94.0175 414.572L94.5215 413.804C93.8735 413.276 93.2135 413.084 92.5055 413.084C91.4015 413.084 90.5855 413.756 90.5855 414.656C90.5855 415.724 91.3895 416.108 92.3375 416.444C93.1895 416.756 93.7295 416.9 93.7295 417.416C93.7295 417.86 93.3215 418.208 92.6135 418.208C91.7975 418.208 91.2815 417.944 90.8255 417.5L90.3335 418.244C90.8975 418.736 91.6415 419.072 92.6135 419.072ZM96.5215 419.084C96.9175 419.084 97.2295 418.772 97.2295 418.376C97.2295 417.98 96.9175 417.668 96.5215 417.668C96.1255 417.668 95.8015 417.98 95.8015 418.376C95.8015 418.772 96.1255 419.084 96.5215 419.084Z" fill="#7A7A7A"/>
<path d="M115.456 403H120.64V402.076H116.992L116.98 402.04L119.128 399.88C120.148 398.848 120.544 398.044 120.544 397.12C120.544 395.596 119.344 394.696 118.024 394.696C116.74 394.696 115.912 395.344 115.456 396.256L116.2 396.772C116.584 396.028 117.184 395.644 117.964 395.644C118.876 395.644 119.512 396.316 119.512 397.228C119.512 398.044 118.96 398.704 118.264 399.424L115.444 402.304L115.456 403ZM124.62 394.684C122.964 394.684 121.728 395.836 121.728 397.384C121.728 398.98 122.82 399.976 124.26 399.976C125.076 399.976 125.82 399.688 126.348 399.22C125.856 401.068 124.404 402.052 122.904 402.436L123.204 403.288C125.34 402.892 127.5 400.924 127.5 397.924C127.512 395.968 126.24 394.684 124.62 394.684ZM124.488 399.04C123.432 399.04 122.748 398.38 122.748 397.384C122.748 396.424 123.48 395.62 124.632 395.62C125.712 395.62 126.516 396.496 126.516 397.84V397.912C126.084 398.584 125.316 399.04 124.488 399.04ZM128.425 394.756V395.68H132.409L129.265 402.94L130.273 403.144L133.537 395.464V394.756H128.425ZM134.308 394.756V395.68H138.292L135.148 402.94L136.156 403.144L139.42 395.464V394.756H134.308Z" fill="#1F1F1F"/>
<path d="M118.108 419H119.116L121.12 412.004H121.144L123.112 419H124.12L126.844 410.48H125.74L123.628 417.296H123.604L121.696 410.48H120.556L118.636 417.308H118.612L116.512 410.48H115.396L118.108 419ZM132.616 415.976C132.616 414.308 131.524 413.084 129.928 413.084C128.26 413.084 127.048 414.32 127.048 416.084C127.048 417.872 128.272 419.072 130 419.072C131.176 419.072 131.908 418.628 132.412 417.98L131.728 417.404C131.368 417.848 130.816 418.184 130.036 418.184C128.932 418.184 128.164 417.464 128.032 416.372H132.592C132.592 416.3 132.616 416.132 132.616 415.976ZM129.916 413.972C130.876 413.972 131.5 414.62 131.644 415.58H128.056C128.236 414.584 128.98 413.972 129.916 413.972ZM136.525 419.072C137.473 419.072 138.217 418.628 138.637 417.92H138.649V419H139.585V410.168H138.613V414.2H138.601C138.157 413.492 137.401 413.084 136.513 413.084C134.869 413.084 133.657 414.392 133.657 416.12C133.657 417.896 134.905 419.072 136.525 419.072ZM136.657 418.184C135.469 418.184 134.653 417.296 134.653 416.12C134.653 414.824 135.553 413.972 136.669 413.972C137.845 413.972 138.649 414.92 138.649 416.12C138.649 417.356 137.761 418.184 136.657 418.184ZM141.904 419.084C142.3 419.084 142.612 418.772 142.612 418.376C142.612 417.98 142.3 417.668 141.904 417.668C141.508 417.668 141.184 417.98 141.184 418.376C141.184 418.772 141.508 419.084 141.904 419.084Z" fill="#7A7A7A"/>
<path d="M162.132 403.072C163.656 403.072 164.796 402.16 164.796 400.792C164.796 399.808 164.244 399.064 163.368 398.728V398.692C164.148 398.356 164.58 397.612 164.58 396.844C164.58 395.476 163.452 394.684 162.048 394.684C160.86 394.684 160.02 395.236 159.588 395.992L160.404 396.448C160.728 395.968 161.208 395.62 162.024 395.62C162.888 395.62 163.56 396.16 163.56 396.976C163.56 397.636 163.128 398.296 162.072 398.296H161.268V399.16H161.952C163.176 399.16 163.764 399.856 163.764 400.648C163.764 401.548 163.02 402.136 162.06 402.136C161.1 402.136 160.476 401.704 160.188 401.044L159.312 401.44C159.72 402.388 160.728 403.072 162.132 403.072ZM168.53 403.072C170.054 403.072 171.194 402.16 171.194 400.792C171.194 399.808 170.642 399.064 169.766 398.728V398.692C170.546 398.356 170.978 397.612 170.978 396.844C170.978 395.476 169.85 394.684 168.446 394.684C167.258 394.684 166.418 395.236 165.986 395.992L166.802 396.448C167.126 395.968 167.606 395.62 168.422 395.62C169.286 395.62 169.958 396.16 169.958 396.976C169.958 397.636 169.526 398.296 168.47 398.296H167.666V399.16H168.35C169.574 399.16 170.162 399.856 170.162 400.648C170.162 401.548 169.418 402.136 168.458 402.136C167.498 402.136 166.874 401.704 166.586 401.044L165.71 401.44C166.118 402.388 167.126 403.072 168.53 403.072ZM175.613 397.804C174.821 397.804 174.101 398.08 173.585 398.536C174.053 396.736 175.421 395.74 176.921 395.356L176.621 394.504C174.449 394.9 172.433 396.916 172.433 399.844C172.433 401.8 173.693 403.072 175.325 403.072C176.969 403.072 178.181 401.932 178.181 400.42C178.181 398.776 177.101 397.804 175.613 397.804ZM175.385 402.136C174.293 402.136 173.417 401.248 173.417 399.952V399.88C173.789 399.28 174.473 398.728 175.385 398.728C176.465 398.728 177.173 399.412 177.173 400.408C177.173 401.344 176.465 402.136 175.385 402.136ZM182.154 397.768C181.818 397.768 181.326 397.852 180.894 398.008L181.026 395.692H184.434V394.756H180.078L179.838 398.92L180.426 399.1C180.846 398.776 181.338 398.644 181.878 398.644C182.886 398.644 183.786 399.268 183.786 400.384C183.786 401.404 183.018 402.136 181.866 402.136C181.026 402.136 180.33 401.74 179.958 401.14L179.202 401.704C179.778 402.568 180.81 403.072 181.95 403.072C183.618 403.072 184.818 401.992 184.818 400.396C184.818 398.74 183.618 397.768 182.154 397.768Z" fill="#1F1F1F"/>
<path d="M161.904 419H162.948V411.428H165.528V410.48H159.36V411.428H161.904V419ZM166.873 419H167.845V416.06C167.845 414.74 168.565 413.972 169.729 413.972C170.581 413.972 171.169 414.452 171.169 415.772V419H172.141V415.496C172.141 413.828 171.277 413.084 170.017 413.084C169.081 413.084 168.313 413.48 167.857 414.176H167.845V410.168H166.873V419ZM175.91 419.072C176.678 419.072 177.398 418.688 177.842 417.992H177.854V419H178.826V413.156H177.854V415.988C177.854 417.38 177.05 418.184 176.114 418.184C175.19 418.184 174.686 417.68 174.686 416.36V413.156H173.714V416.636C173.714 418.304 174.566 419.072 175.91 419.072ZM180.584 419H181.556V416.18C181.556 415.004 182.216 414.152 183.332 414.152C183.428 414.152 183.572 414.164 183.716 414.176V413.096C183.632 413.084 183.56 413.084 183.476 413.084C182.672 413.084 182 413.516 181.58 414.224H181.556V413.156H180.584V419ZM186.578 419.072C187.982 419.072 188.678 418.316 188.678 417.404C188.69 416.264 187.874 416.048 186.638 415.568C186.002 415.34 185.534 415.112 185.534 414.656C185.534 414.212 185.978 413.948 186.434 413.948C186.938 413.948 187.478 414.104 187.982 414.572L188.486 413.804C187.838 413.276 187.178 413.084 186.47 413.084C185.366 413.084 184.55 413.756 184.55 414.656C184.55 415.724 185.354 416.108 186.302 416.444C187.154 416.756 187.694 416.9 187.694 417.416C187.694 417.86 187.286 418.208 186.578 418.208C185.762 418.208 185.246 417.944 184.79 417.5L184.298 418.244C184.862 418.736 185.606 419.072 186.578 419.072ZM190.486 419.084C190.882 419.084 191.194 418.772 191.194 418.376C191.194 417.98 190.882 417.668 190.486 417.668C190.09 417.668 189.766 417.98 189.766 418.376C189.766 418.772 190.09 419.084 190.486 419.084Z" fill="#7A7A7A"/>
<path d="M206.132 403.072C207.656 403.072 208.796 402.16 208.796 400.792C208.796 399.808 208.244 399.064 207.368 398.728V398.692C208.148 398.356 208.58 397.612 208.58 396.844C208.58 395.476 207.452 394.684 206.048 394.684C204.86 394.684 204.02 395.236 203.588 395.992L204.404 396.448C204.728 395.968 205.208 395.62 206.024 395.62C206.888 395.62 207.56 396.16 207.56 396.976C207.56 397.636 207.128 398.296 206.072 398.296H205.268V399.16H205.952C207.176 399.16 207.764 399.856 207.764 400.648C207.764 401.548 207.02 402.136 206.06 402.136C205.1 402.136 204.476 401.704 204.188 401.044L203.312 401.44C203.72 402.388 204.728 403.072 206.132 403.072ZM213.504 403H214.512V401.548H215.712V400.636H214.512V394.756H213.66L209.676 400.828V401.548H213.504V403ZM210.852 400.66L213.54 396.472V400.66H210.852ZM219.834 403.072C221.802 403.072 222.93 401.32 222.93 398.884C222.93 396.184 221.622 394.684 219.834 394.684C217.878 394.684 216.738 396.436 216.738 398.884C216.738 401.572 218.046 403.072 219.834 403.072ZM219.834 402.136C218.622 402.136 217.77 400.972 217.77 398.884C217.77 396.904 218.526 395.62 219.834 395.62C221.058 395.62 221.898 396.784 221.898 398.884C221.898 400.852 221.154 402.136 219.834 402.136ZM227.322 403.072C229.29 403.072 230.418 401.32 230.418 398.884C230.418 396.184 229.11 394.684 227.322 394.684C225.366 394.684 224.226 396.436 224.226 398.884C224.226 401.572 225.534 403.072 227.322 403.072ZM227.322 402.136C226.11 402.136 225.258 400.972 225.258 398.884C225.258 396.904 226.014 395.62 227.322 395.62C228.546 395.62 229.386 396.784 229.386 398.884C229.386 400.852 228.642 402.136 227.322 402.136Z" fill="#1F1F1F"/>
<path d="M204.056 419H205.1V415.376H208.82V414.428H205.1V411.428H209.492V410.48H204.056V419ZM210.639 419H211.611V416.18C211.611 415.004 212.271 414.152 213.387 414.152C213.483 414.152 213.627 414.164 213.771 414.176V413.096C213.687 413.084 213.615 413.084 213.531 413.084C212.727 413.084 212.055 413.516 211.635 414.224H211.611V413.156H210.639V419ZM215.433 412.088C215.829 412.088 216.141 411.776 216.141 411.392C216.141 411.008 215.829 410.696 215.433 410.696C215.037 410.696 214.725 411.008 214.725 411.392C214.725 411.776 215.037 412.088 215.433 412.088ZM214.941 419H215.913V413.156H214.941V419ZM218.314 419.084C218.71 419.084 219.022 418.772 219.022 418.376C219.022 417.98 218.71 417.668 218.314 417.668C217.918 417.668 217.594 417.98 217.594 418.376C217.594 418.772 217.918 419.084 218.314 419.084Z" fill="#7A7A7A"/>
<path d="M250.132 403.072C251.656 403.072 252.796 402.16 252.796 400.792C252.796 399.808 252.244 399.064 251.368 398.728V398.692C252.148 398.356 252.58 397.612 252.58 396.844C252.58 395.476 251.452 394.684 250.048 394.684C248.86 394.684 248.02 395.236 247.588 395.992L248.404 396.448C248.728 395.968 249.208 395.62 250.024 395.62C250.888 395.62 251.56 396.16 251.56 396.976C251.56 397.636 251.128 398.296 250.072 398.296H249.268V399.16H249.952C251.176 399.16 251.764 399.856 251.764 400.648C251.764 401.548 251.02 402.136 250.06 402.136C249.1 402.136 248.476 401.704 248.188 401.044L247.312 401.44C247.72 402.388 248.728 403.072 250.132 403.072ZM255.774 403H256.782V394.756H255.942L253.638 396.46L254.13 397.216L255.774 395.968V403ZM261.607 403.072C263.575 403.072 264.703 401.32 264.703 398.884C264.703 396.184 263.395 394.684 261.607 394.684C259.651 394.684 258.511 396.436 258.511 398.884C258.511 401.572 259.819 403.072 261.607 403.072ZM261.607 402.136C260.395 402.136 259.543 400.972 259.543 398.884C259.543 396.904 260.299 395.62 261.607 395.62C262.831 395.62 263.671 396.784 263.671 398.884C263.671 400.852 262.927 402.136 261.607 402.136ZM268.607 397.768C268.271 397.768 267.779 397.852 267.347 398.008L267.479 395.692H270.887V394.756H266.531L266.291 398.92L266.879 399.1C267.299 398.776 267.791 398.644 268.331 398.644C269.339 398.644 270.239 399.268 270.239 400.384C270.239 401.404 269.471 402.136 268.319 402.136C267.479 402.136 266.783 401.74 266.411 401.14L265.655 401.704C266.231 402.568 267.263 403.072 268.403 403.072C270.071 403.072 271.271 401.992 271.271 400.396C271.271 398.74 270.071 397.768 268.607 397.768Z" fill="#1F1F1F"/>
<path d="M250.516 419.072C252.004 419.072 253.372 418.232 253.372 416.672C253.372 415.076 252.16 414.692 250.732 414.128C249.664 413.72 248.896 413.42 248.908 412.604C248.92 411.788 249.628 411.356 250.432 411.356C251.068 411.356 251.8 411.656 252.484 412.22L253.12 411.392C252.316 410.744 251.38 410.396 250.432 410.396C248.968 410.396 247.828 411.38 247.828 412.652C247.828 414.152 249.112 414.692 250.372 415.16C251.512 415.592 252.28 415.844 252.28 416.792C252.28 417.62 251.572 418.1 250.528 418.1C249.7 418.1 248.788 417.716 248.176 416.948L247.504 417.752C248.356 418.664 249.448 419.072 250.516 419.072ZM257.333 419.072C258.281 419.072 259.001 418.64 259.421 417.944H259.433V419H260.369V413.156H259.397V414.188L259.373 414.2C258.953 413.492 258.197 413.084 257.333 413.084C255.677 413.084 254.489 414.392 254.489 416.12C254.489 417.896 255.725 419.072 257.333 419.072ZM257.477 418.184C256.277 418.184 255.473 417.296 255.473 416.12C255.473 414.824 256.373 413.972 257.477 413.972C258.629 413.972 259.433 414.92 259.433 416.12C259.433 417.356 258.557 418.184 257.477 418.184ZM263.759 419.072C264.455 419.072 264.851 418.904 265.175 418.712L264.923 417.86C264.635 418.016 264.275 418.16 263.927 418.16C263.375 418.16 263.219 417.824 263.219 417.116V413.996H265.151V413.156H263.219V411.056L262.247 411.164V413.156H261.491V413.996H262.247V417.26C262.247 418.436 262.727 419.072 263.759 419.072ZM266.85 419.084C267.246 419.084 267.558 418.772 267.558 418.376C267.558 417.98 267.246 417.668 266.85 417.668C266.454 417.668 266.13 417.98 266.13 418.376C266.13 418.772 266.454 419.084 266.85 419.084Z" fill="#7A7A7A"/>
<path d="M295.132 403.072C296.656 403.072 297.796 402.16 297.796 400.792C297.796 399.808 297.244 399.064 296.368 398.728V398.692C297.148 398.356 297.58 397.612 297.58 396.844C297.58 395.476 296.452 394.684 295.048 394.684C293.86 394.684 293.02 395.236 292.588 395.992L293.404 396.448C293.728 395.968 294.208 395.62 295.024 395.62C295.888 395.62 296.56 396.16 296.56 396.976C296.56 397.636 296.128 398.296 295.072 398.296H294.268V399.16H294.952C296.176 399.16 296.764 399.856 296.764 400.648C296.764 401.548 296.02 402.136 295.06 402.136C294.1 402.136 293.476 401.704 293.188 401.044L292.312 401.44C292.72 402.388 293.728 403.072 295.132 403.072ZM298.854 403H304.038V402.076H300.39L300.378 402.04L302.526 399.88C303.546 398.848 303.942 398.044 303.942 397.12C303.942 395.596 302.742 394.696 301.422 394.696C300.138 394.696 299.31 395.344 298.854 396.256L299.598 396.772C299.982 396.028 300.582 395.644 301.362 395.644C302.274 395.644 302.91 396.316 302.91 397.228C302.91 398.044 302.358 398.704 301.662 399.424L298.842 402.304L298.854 403ZM308.332 397.804C307.54 397.804 306.82 398.08 306.304 398.536C306.772 396.736 308.14 395.74 309.64 395.356L309.34 394.504C307.168 394.9 305.152 396.916 305.152 399.844C305.152 401.8 306.412 403.072 308.044 403.072C309.688 403.072 310.9 401.932 310.9 400.42C310.9 398.776 309.82 397.804 308.332 397.804ZM308.104 402.136C307.012 402.136 306.136 401.248 306.136 399.952V399.88C306.508 399.28 307.192 398.728 308.104 398.728C309.184 398.728 309.892 399.412 309.892 400.408C309.892 401.344 309.184 402.136 308.104 402.136ZM311.601 394.756V395.68H315.585L312.441 402.94L313.449 403.144L316.713 395.464V394.756H311.601Z" fill="#1F1F1F"/>
<path d="M295.516 419.072C297.004 419.072 298.372 418.232 298.372 416.672C298.372 415.076 297.16 414.692 295.732 414.128C294.664 413.72 293.896 413.42 293.908 412.604C293.92 411.788 294.628 411.356 295.432 411.356C296.068 411.356 296.8 411.656 297.484 412.22L298.12 411.392C297.316 410.744 296.38 410.396 295.432 410.396C293.968 410.396 292.828 411.38 292.828 412.652C292.828 414.152 294.112 414.692 295.372 415.16C296.512 415.592 297.28 415.844 297.28 416.792C297.28 417.62 296.572 418.1 295.528 418.1C294.7 418.1 293.788 417.716 293.176 416.948L292.504 417.752C293.356 418.664 294.448 419.072 295.516 419.072ZM301.937 419.072C302.705 419.072 303.425 418.688 303.869 417.992H303.881V419H304.853V413.156H303.881V415.988C303.881 417.38 303.077 418.184 302.141 418.184C301.217 418.184 300.713 417.68 300.713 416.36V413.156H299.741V416.636C299.741 418.304 300.593 419.072 301.937 419.072ZM306.611 419H307.583V416.084C307.583 414.764 308.303 413.972 309.407 413.972C310.259 413.972 310.847 414.44 310.847 415.808V419H311.819V415.532C311.819 413.864 310.979 413.084 309.719 413.084C308.819 413.084 308.051 413.504 307.595 414.212H307.583V413.156H306.611V419ZM314.029 419.084C314.425 419.084 314.737 418.772 314.737 418.376C314.737 417.98 314.425 417.668 314.029 417.668C313.633 417.668 313.309 417.98 313.309 418.376C313.309 418.772 313.633 419.084 314.029 419.084Z" fill="#7A7A7A"/>
<rect x="158" y="232" width="42" height="144" fill="#2781FF"/>
<rect x="27" y="259" width="41" height="117" fill="#2781FF"/>
<rect x="114" y="259" width="42" height="117" fill="#2781FF"/>
<rect x="246" y="259" width="42" height="117" fill="#2781FF"/>
<rect x="290" y="259" width="41" height="117" fill="#2781FF"/>
<rect x="70" y="309" width="42" height="67" fill="#2781FF"/>
<rect x="202" y="282" width="42" height="94" fill="#2781FF"/>
</svg>
