<svg width="361" height="464" viewBox="0 0 361 464" fill="none" xmlns="http://www.w3.org/2000/svg">
<rect width="361" height="464" rx="12" fill="white"/>
<path d="M39.452 54.144C43.142 54.144 45.896 51.498 45.896 47.61C45.896 43.704 43.142 41.076 39.452 41.076C35.618 41.076 32.99 43.848 32.99 47.61C32.99 51.372 35.618 54.144 39.452 54.144ZM39.452 52.11C36.95 52.11 35.24 50.112 35.24 47.61C35.24 45.108 36.95 43.11 39.452 43.11C41.81 43.11 43.628 44.982 43.628 47.61C43.628 50.22 41.81 52.11 39.452 52.11ZM48.2027 57.564H50.2187V52.938L50.2547 52.92C50.9027 53.712 51.8207 54.144 53.0087 54.144C55.4567 54.144 57.2747 52.362 57.2747 49.644C57.2747 46.998 55.4567 45.09 53.0267 45.09C51.8747 45.09 50.9027 45.504 50.2547 46.26H50.2187V45.216H48.2027V57.564ZM52.7027 52.308C51.2627 52.308 50.1287 51.246 50.1287 49.662C50.1287 48.096 51.1727 46.908 52.6847 46.908C54.0887 46.908 55.2227 47.97 55.2227 49.662C55.2227 51.21 54.1787 52.308 52.7027 52.308ZM67.4104 49.5C67.4104 46.944 65.7364 45.09 63.2704 45.09C60.6964 45.09 58.8604 46.908 58.8604 49.608C58.8604 52.362 60.7504 54.144 63.4144 54.144C65.3044 54.144 66.4024 53.442 67.1404 52.488L65.7364 51.282C65.2864 51.84 64.5664 52.308 63.5224 52.308C62.1544 52.308 61.2004 51.552 60.9484 50.274H67.3564C67.3744 50.13 67.4104 49.824 67.4104 49.5ZM63.2524 46.908C64.4044 46.908 65.1244 47.628 65.3764 48.69H60.9844C61.2724 47.538 62.1364 46.908 63.2524 46.908ZM69.4898 54H71.5058V49.842C71.5058 48.402 72.3698 47.304 73.8998 47.304C74.0438 47.304 74.2778 47.322 74.5118 47.34V45.09H74.2598C73.1978 45.09 72.2258 45.612 71.5418 46.53H71.5058V45.216H69.4898V54ZM79.649 54.144C80.873 54.144 81.809 53.676 82.439 52.83L82.475 52.848V54H84.401V45.216H82.385V46.278L82.349 46.296C81.719 45.504 80.747 45.09 79.631 45.09C77.219 45.09 75.401 46.998 75.401 49.644C75.401 52.362 77.219 54.144 79.649 54.144ZM79.973 52.308C78.479 52.308 77.453 51.21 77.453 49.662C77.453 47.97 78.569 46.908 79.973 46.908C81.413 46.908 82.475 48.096 82.475 49.662C82.475 51.246 81.341 52.308 79.973 52.308ZM89.5549 54.144C90.7069 54.144 91.2649 53.91 91.7869 53.622L91.2649 51.876C90.7969 52.128 90.3109 52.254 89.9689 52.254C89.3929 52.254 89.1229 51.93 89.1229 51.03V46.926H91.6969V45.216H89.1229V42.084L87.1069 42.3V45.216H86.0269V46.926H87.1069V51.228C87.1069 53.19 88.0429 54.144 89.5549 54.144ZM97.1832 54.144C99.8832 54.144 101.791 52.29 101.791 49.626C101.791 46.926 99.8832 45.09 97.1832 45.09C94.4112 45.09 92.5752 47.034 92.5752 49.626C92.5752 52.2 94.4112 54.144 97.1832 54.144ZM97.1832 52.308C95.6712 52.308 94.6272 51.12 94.6272 49.626C94.6272 48.096 95.6532 46.908 97.1832 46.908C98.6232 46.908 99.7392 48.006 99.7392 49.626C99.7392 51.21 98.6052 52.308 97.1832 52.308ZM103.89 54H105.906V49.842C105.906 48.402 106.77 47.304 108.3 47.304C108.444 47.304 108.678 47.322 108.912 47.34V45.09H108.66C107.598 45.09 106.626 45.612 105.942 46.53H105.906V45.216H103.89V54ZM113.395 54.144C115.627 54.144 116.671 52.956 116.671 51.48C116.671 49.734 115.501 49.392 113.629 48.654C112.783 48.33 112.243 48.024 112.243 47.592C112.243 47.052 112.801 46.836 113.197 46.836C113.881 46.836 114.691 47.106 115.393 47.772L116.401 46.188C115.429 45.396 114.421 45.09 113.305 45.09C111.505 45.09 110.209 46.134 110.209 47.574C110.209 49.302 111.451 49.95 112.891 50.454C114.043 50.85 114.619 51.066 114.619 51.516C114.619 52.038 114.169 52.38 113.395 52.38C112.315 52.38 111.559 52.038 110.857 51.354L109.849 52.866C110.767 53.676 111.973 54.144 113.395 54.144Z" fill="#1F1F1F"/>
<rect x="32" y="76" width="301" height="1" fill="#CCCCCC"/>
<path d="M47.12 167H53.552V161.576H57.968V156.008H53.552V134.024H48.32L33.2 157.448V161.576H47.12V167ZM40.304 156.296L47.552 144.584V156.296H40.304Z" fill="#0E141A"/>
<rect x="27" y="232" width="116" height="187" fill="#E5746A"/>
<rect x="229" y="232" width="59" height="187" fill="#CAED4C"/>
<rect x="290" y="232" width="41" height="187" fill="#01113A"/>
<rect x="145" y="232" width="82" height="187" fill="#EE692D"/>
<path d="M35.516 410.072C37.004 410.072 38.372 409.232 38.372 407.672C38.372 406.076 37.16 405.692 35.732 405.128C34.664 404.72 33.896 404.42 33.908 403.604C33.92 402.788 34.628 402.356 35.432 402.356C36.068 402.356 36.8 402.656 37.484 403.22L38.12 402.392C37.316 401.744 36.38 401.396 35.432 401.396C33.968 401.396 32.828 402.38 32.828 403.652C32.828 405.152 34.112 405.692 35.372 406.16C36.512 406.592 37.28 406.844 37.28 407.792C37.28 408.62 36.572 409.1 35.528 409.1C34.7 409.1 33.788 408.716 33.176 407.948L32.504 408.752C33.356 409.664 34.448 410.072 35.516 410.072ZM42.4169 410.072C43.5569 410.072 44.3369 409.64 44.8289 409.052L44.1569 408.44C43.7969 408.884 43.1849 409.184 42.4889 409.184C41.3009 409.184 40.4969 408.332 40.4969 407.084C40.4969 405.848 41.3009 404.972 42.5009 404.972C43.1969 404.972 43.7729 405.284 44.1449 405.716L44.8049 405.128C44.2289 404.444 43.3289 404.084 42.4529 404.084C40.7129 404.084 39.5009 405.32 39.5009 407.084C39.5009 408.86 40.7129 410.072 42.4169 410.072ZM48.7828 410.072C50.5108 410.072 51.7948 408.86 51.7948 407.084C51.7948 405.308 50.5108 404.084 48.7828 404.084C46.9708 404.084 45.7588 405.404 45.7588 407.084C45.7588 408.764 46.9708 410.072 48.7828 410.072ZM48.7828 409.184C47.5708 409.184 46.7548 408.248 46.7548 407.084C46.7548 405.92 47.5588 404.972 48.7828 404.972C49.9108 404.972 50.7988 405.836 50.7988 407.084C50.7988 408.332 49.8988 409.184 48.7828 409.184ZM55.896 410.072C57.624 410.072 58.908 408.86 58.908 407.084C58.908 405.308 57.624 404.084 55.896 404.084C54.084 404.084 52.872 405.404 52.872 407.084C52.872 408.764 54.084 410.072 55.896 410.072ZM55.896 409.184C54.684 409.184 53.868 408.248 53.868 407.084C53.868 405.92 54.672 404.972 55.896 404.972C57.024 404.972 57.912 405.836 57.912 407.084C57.912 408.332 57.012 409.184 55.896 409.184ZM60.3573 412.376H61.3293V408.992H61.3413C61.7733 409.664 62.4933 410.072 63.4173 410.072C65.0253 410.072 66.2613 408.896 66.2613 407.12C66.2613 405.392 65.0733 404.084 63.4173 404.084C62.5293 404.084 61.7853 404.492 61.3413 405.188H61.3293V404.156H60.3573V412.376ZM63.2853 409.184C62.1693 409.184 61.2813 408.356 61.2813 407.12C61.2813 405.92 62.0853 404.972 63.2733 404.972C64.3773 404.972 65.2773 405.824 65.2773 407.12C65.2773 408.296 64.4613 409.184 63.2853 409.184ZM68.1571 412.376H69.1651L72.4771 404.156H71.4571L69.6931 408.596H69.6691L67.7731 404.156H66.7171L69.2011 409.772L68.1571 412.376Z" fill="white"/>
<path d="M151.056 410H152.1V406.376H155.82V405.428H152.1V402.428H156.492V401.48H151.056V410ZM157.933 410H158.905V401.168H157.933V410ZM161.367 403.088C161.763 403.088 162.075 402.776 162.075 402.392C162.075 402.008 161.763 401.696 161.367 401.696C160.971 401.696 160.659 402.008 160.659 402.392C160.659 402.776 160.971 403.088 161.367 403.088ZM160.875 410H161.847V404.156H160.875V410ZM163.744 412.376H164.716V408.992H164.728C165.16 409.664 165.88 410.072 166.804 410.072C168.412 410.072 169.648 408.896 169.648 407.12C169.648 405.392 168.46 404.084 166.804 404.084C165.916 404.084 165.172 404.492 164.728 405.188H164.716V404.156H163.744V412.376ZM166.672 409.184C165.556 409.184 164.668 408.356 164.668 407.12C164.668 405.92 165.472 404.972 166.66 404.972C167.764 404.972 168.664 405.824 168.664 407.12C168.664 408.296 167.848 409.184 166.672 409.184Z" fill="white"/>
<path d="M235.056 406H240.312V405.052H236.1V397.48H235.056V406ZM242.156 399.088C242.552 399.088 242.864 398.776 242.864 398.392C242.864 398.008 242.552 397.696 242.156 397.696C241.76 397.696 241.448 398.008 241.448 398.392C241.448 398.776 241.76 399.088 242.156 399.088ZM241.664 406H242.636V400.156H241.664V406ZM247.185 406.072C248.913 406.072 250.197 404.86 250.197 403.084C250.197 401.308 248.913 400.084 247.185 400.084C245.373 400.084 244.161 401.404 244.161 403.084C244.161 404.764 245.373 406.072 247.185 406.072ZM247.185 405.184C245.973 405.184 245.157 404.248 245.157 403.084C245.157 401.92 245.961 400.972 247.185 400.972C248.313 400.972 249.201 401.836 249.201 403.084C249.201 404.332 248.301 405.184 247.185 405.184ZM251.646 406H252.618V403.084C252.618 401.764 253.338 400.972 254.442 400.972C255.294 400.972 255.882 401.44 255.882 402.808V406H256.854V402.532C256.854 400.864 256.014 400.084 254.754 400.084C253.854 400.084 253.086 400.504 252.63 401.212H252.618V400.156H251.646V406Z" fill="white"/>
<path d="M296.056 406H297.1V403.636L298.336 402.184L301.108 406H302.416L299.032 401.368L302.332 397.48H300.988L297.124 402.148H297.1V397.48H296.056V406ZM304.105 399.088C304.501 399.088 304.813 398.776 304.813 398.392C304.813 398.008 304.501 397.696 304.105 397.696C303.709 397.696 303.397 398.008 303.397 398.392C303.397 398.776 303.709 399.088 304.105 399.088ZM303.613 406H304.585V400.156H303.613V406ZM309.026 406.072C310.166 406.072 310.946 405.64 311.438 405.052L310.766 404.44C310.406 404.884 309.794 405.184 309.098 405.184C307.91 405.184 307.106 404.332 307.106 403.084C307.106 401.848 307.91 400.972 309.11 400.972C309.806 400.972 310.382 401.284 310.754 401.716L311.414 401.128C310.838 400.444 309.938 400.084 309.062 400.084C307.322 400.084 306.11 401.32 306.11 403.084C306.11 404.86 307.322 406.072 309.026 406.072ZM312.74 406H313.712V404.548L314.912 403.252L316.676 406H317.792L315.584 402.568L317.768 400.156H316.592L313.724 403.36L313.712 403.348V397.168H312.74V406Z" fill="white"/>
</svg>
