<svg id="f391d9c6-d26d-4274-ab25-4d9d5eacdc2e" data-name="Artwork" xmlns="http://www.w3.org/2000/svg" width="303.37" height="91" viewBox="0 0 303.37 91"><title>ITS Logo_Website</title><polygon points="0.62 90.5 70.32 90.5 89.78 0.5 19.92 0.5 0.62 90.5" fill="#c90c0f" stroke="#c90c0f" stroke-miterlimit="3.86"/><path d="M301.87,112.42" transform="translate(-128.35 -49.66)" fill="#fff"/><path d="M156.05,77.61h-6.11L142,113.84h6.11Z" transform="translate(-128.35 -49.66)" fill="#fff" stroke="#fff" stroke-miterlimit="10"/><path d="M160.08,60.56a3.66,3.66,0,1,1-3.65-3.65A3.66,3.66,0,0,1,160.08,60.56Z" transform="translate(-128.35 -49.66)" fill="#fff" stroke="#fff" stroke-miterlimit="10"/><path d="M220.35,84.48h5.41l-5.45,27h-5.42Z" transform="translate(-128.35 -49.66)" fill="#003a76"/><path d="M228,94.42c.22-1.2.41-2.24.48-2.86h4.86L233,93.49h.07a8,8,0,0,1,5.42-2.4c3.75,0,6.23,2.44,6.23,6.39a21.67,21.67,0,0,1-.63,4.34l-2,9.67h-5l1.85-9.4a21.82,21.82,0,0,0,.56-4.18,2.61,2.61,0,0,0-2.71-2.79c-3.45,0-4.71,3.37-5.34,6.35l-2,10h-5Z" transform="translate(-128.35 -49.66)" fill="#003a76"/><path d="M248.21,91.56h3.6l.85-4.1L258,85.64l-1.23,5.92h4.45l-.78,3.79H256l-1.82,8.71A8.72,8.72,0,0,0,254,106a1.8,1.8,0,0,0,1.89,1.93,6.52,6.52,0,0,0,2.42-.46l-.86,4a12.47,12.47,0,0,1-2.67.47c-3.37,0-5.75-1.39-5.75-5.23a22.78,22.78,0,0,1,.63-4.64L251,95.35h-3.6Z" transform="translate(-128.35 -49.66)" fill="#003a76"/><path d="M264.94,103.13c0,3.68,1.9,5,5.31,5a13.5,13.5,0,0,0,5.86-1.43l-.63,4.1A20.36,20.36,0,0,1,269.4,112c-5.5,0-9.21-2.79-9.21-8.71,0-6.2,4.61-12.16,10.87-12.16,4.72,0,7.83,2.52,7.83,7.59a22.13,22.13,0,0,1-.48,4.45ZM274,99.57a7.7,7.7,0,0,0,.12-1.35c0-2.13-1.08-3.33-3.16-3.33-3.08,0-4.41,1.93-5.38,4.68Z" transform="translate(-128.35 -49.66)" fill="#003a76"/><path d="M282.94,94.23c.15-.85.3-1.74.44-2.67h4.75l-.67,3.75h.08c.89-2.16,3.34-4.22,5.64-4.22a7.4,7.4,0,0,1,1.89.2l-1,5.07a5.85,5.85,0,0,0-1.89-.31c-3.53,0-5.23,3.29-5.86,6.5l-1.78,8.94h-5Z" transform="translate(-128.35 -49.66)" fill="#003a76"/><path d="M296.59,94.42c.22-1.2.41-2.24.48-2.86h4.87l-.34,1.93h.08a8,8,0,0,1,5.41-2.4c3.75,0,6.24,2.44,6.24,6.39a21.65,21.65,0,0,1-.64,4.34l-2,9.67h-5l1.85-9.4a21.82,21.82,0,0,0,.56-4.18,2.61,2.61,0,0,0-2.71-2.79c-3.45,0-4.71,3.37-5.34,6.35l-2,10h-5Z" transform="translate(-128.35 -49.66)" fill="#003a76"/><path d="M327,108.43h-.07c-1.71,2.25-3.42,3.53-6.16,3.53-3.45,0-5.9-2-5.9-5.69,0-6.58,7-7.09,11.72-7.09h1.75a6.82,6.82,0,0,0,.14-1.7c0-2-2.07-2.59-3.82-2.59a14.17,14.17,0,0,0-6.27,1.55l.71-4.15a18.79,18.79,0,0,1,6.49-1.2c3.82,0,7.42,1.48,7.42,6.16,0,2.67-1.89,10.49-2.34,14.24h-4.19Zm-4.86-.27c3.71,0,4.86-2.67,5.64-5.88H326c-2.41,0-6.41.43-6.41,3.79A2.25,2.25,0,0,0,322.12,108.16Z" transform="translate(-128.35 -49.66)" fill="#003a76"/><path d="M336.55,91.56h3.6l.85-4.1,5.35-1.82-1.23,5.92h4.46l-.78,3.79h-4.46l-1.81,8.71a8.1,8.1,0,0,0-.23,1.94,1.8,1.8,0,0,0,1.9,1.93,6.47,6.47,0,0,0,2.41-.46l-.86,4a12.37,12.37,0,0,1-2.67.47c-3.37,0-5.75-1.39-5.75-5.23a22.78,22.78,0,0,1,.63-4.64l1.41-6.74h-3.6Z" transform="translate(-128.35 -49.66)" fill="#003a76"/><path d="M352.21,91.56h5l-4.08,19.93h-5ZM354,83h5l-1,5h-5Z" transform="translate(-128.35 -49.66)" fill="#003a76"/><path d="M378.37,99.84c0,7-4.64,12.12-11.4,12.12-5.41,0-8.68-3.49-8.68-9.1,0-6.66,4.9-11.77,11.32-11.77C374.77,91.09,378.37,94.35,378.37,99.84Zm-5.2,0c0-2.59-.85-4.76-3.78-4.76-3.93,0-5.9,4.53-5.9,8.13,0,2.63,1,4.68,3.89,4.68C371.24,107.93,373.17,103.29,373.17,99.88Z" transform="translate(-128.35 -49.66)" fill="#003a76"/><path d="M382.86,94.42c.22-1.2.4-2.24.48-2.86h4.86l-.34,1.93h.08a8,8,0,0,1,5.42-2.4c3.74,0,6.23,2.44,6.23,6.39a21.67,21.67,0,0,1-.63,4.34l-2,9.67h-5l1.86-9.4a21.82,21.82,0,0,0,.55-4.18,2.61,2.61,0,0,0-2.7-2.79c-3.45,0-4.72,3.37-5.35,6.35l-2,10h-5Z" transform="translate(-128.35 -49.66)" fill="#003a76"/><path d="M413.24,108.43h-.07c-1.71,2.25-3.41,3.53-6.16,3.53-3.45,0-5.9-2-5.9-5.69,0-6.58,7.05-7.09,11.73-7.09h1.74a6.38,6.38,0,0,0,.15-1.7c0-2-2.08-2.59-3.82-2.59a14.14,14.14,0,0,0-6.27,1.55l.7-4.15a18.83,18.83,0,0,1,6.49-1.2c3.82,0,7.42,1.48,7.42,6.16,0,2.67-1.89,10.49-2.33,14.24h-4.2Zm-4.86-.27c3.71,0,4.86-2.67,5.64-5.88h-1.74c-2.41,0-6.42.43-6.42,3.79A2.25,2.25,0,0,0,408.38,108.16Z" transform="translate(-128.35 -49.66)" fill="#003a76"/><path d="M426.75,82.46h5l-5.9,29h-5Z" transform="translate(-128.35 -49.66)" fill="#003a76"/><polygon points="23.17 18.11 21.88 24.07 35.43 24.07 25.13 71.91 31.98 71.91 42.28 24.07 76.72 24.07 80.13 18.11 23.17 18.11" fill="#fff"/><path d="M188.7,83.69h10.67l3.41-6H190.54c-9,0-16.92,5.07-19,14.61-3.48,16.17,20.95,14.82,18.39,26.75-1.27,5.89-5.32,8.29-10.2,8.64h-16.6l-3.46,6h17.42c8.86,0,17.47-3.65,19.9-15,3.68-17.06-20.83-15.35-18.28-27.2C180,85.78,184.6,83.69,188.7,83.69Z" transform="translate(-128.35 -49.66)" fill="#fff" stroke="#fff" stroke-miterlimit="3.86"/></svg>