<svg id="Ebene_1" data-name="Ebene 1" xmlns="http://www.w3.org/2000/svg" viewBox="0 0 554.07 124.93"><defs><style>.cls-1{fill:#3c3c3c;}.cls-2{fill:#004cb0;}</style></defs><title>logo_intellicar_rgb_mit_claim(1)</title><path class="cls-1" d="M350.15,391.81H336a11.69,11.69,0,0,1-1.73,5.52c-1.72,2.64-4.82,4.48-9.19,4.48a11.76,11.76,0,0,1-8.73-3.79c-3.45-3.8-4-9.42-4-15s.57-11.38,4-15.17a11.66,11.66,0,0,1,8.73-3.68c4.37,0,7.47,1.84,9.19,4.49a11.61,11.61,0,0,1,1.73,5.51h14.13a23.35,23.35,0,0,0-4.6-13,26.12,26.12,0,0,0-20.45-9.42,27.22,27.22,0,0,0-20.79,9.42c-4.48,5.63-6.55,13.09-6.55,21.83s2.07,16.19,6.55,21.82a27.22,27.22,0,0,0,20.79,9.42,26.12,26.12,0,0,0,20.45-9.42,23.35,23.35,0,0,0,4.6-13Zm59,20.45V401.69a8.55,8.55,0,0,1-1.83.23c-2.42,0-3.33-1-3.33-3.79V376c0-4-.23-8.27-1.73-12.06-3.44-9-12.18-12.18-22.4-12.18-13.33,0-24,6-24.82,19.41H369c.34-5.51,4.25-8.5,10.91-8.5,8.16,0,10.11,3.79,10.11,9.42v3.68L372.43,377c-11.37.81-20.22,7.35-20.22,18.73,0,9.76,7.36,18.72,21.6,18.72,8.5,0,15.4-4.13,18.15-9,.46,4.48,3.91,8.39,10.11,8.39a14.53,14.53,0,0,0,7.12-1.61ZM390,389.17c0,8.85-6.32,13.67-15.28,13.67-4.48,0-8.5-2.87-8.5-7.47,0-4.82,4.25-7.46,8.61-7.81L390,386.41v2.76Zm60.77-22.63V352.75a29.29,29.29,0,0,0-4.48-.34c-7,0-14.13,2.87-16.89,9.76l-1.26-9H416V413h14.48v-30.1c0-9.65,5.28-16.89,15.39-16.89a23.79,23.79,0,0,1,4.94.58ZM461.21,413V395H443.75V413Zm60.2,0V330H507.05v27.35c-2.53-3.1-8.05-5.63-15.63-5.63a22.53,22.53,0,0,0-14.59,4.82c-7.12,5.86-10.68,14.94-10.68,26.66,0,11.25,3.44,20.22,10.57,26.07a22.79,22.79,0,0,0,14.59,5.06c6.55,0,13.21-2.41,16.77-7.93L509,413Zm-13.67-30c0,8.61-2.3,19.3-13.56,19.3a11.8,11.8,0,0,1-9.65-4.71c-3-3.91-3.79-9.42-3.79-14.59s.8-10.57,3.79-14.48a11.8,11.8,0,0,1,9.65-4.71c11.26,0,13.56,10.57,13.56,19.19Zm76.39.57c.23-7.47-.8-14.25-5.17-20.79-4.94-7.47-13-11-21.82-11-8.16,0-14.59,3-19.08,7.58-5.74,5.86-8.61,14.36-8.61,23.9,0,9.76,3.22,18.15,9.19,23.89a26.05,26.05,0,0,0,18.84,7.35c7.58,0,15-2.41,20.1-8.38,2.3-2.76,4.71-7.47,5.06-11H568.85a10.74,10.74,0,0,1-2.87,5.05c-2.07,2.07-4.59,2.88-8.73,2.88a12.62,12.62,0,0,1-8.85-3.68A15.76,15.76,0,0,1,544,387.56h40c0-1.26.11-4,.11-4Zm-14.36-6.43H543.92A14.66,14.66,0,0,1,547,367.8a12.22,12.22,0,0,1,10-4.59c4.14,0,7.12,1.37,9.08,3.44,2.29,2.53,3.56,6,3.67,10.46Z" transform="translate(-30.09 -329.89)"/><path class="cls-2" d="M45.48,344.94V330.12H30.09v14.82Zm-.34,68V353.21H30.55V413Zm63.18,0V373.09c0-12.41-7.46-21.37-20.22-21.37-6.89,0-14,2.87-17.57,9.19l-1-7.7H57.43V413H71.79V388.6c0-5.06-.11-11.26,1.95-16,2-4.37,5.29-7.59,10.34-7.59,7.59,0,9.88,4.25,9.88,11.26V413Zm45-.8V400.08a71.82,71.82,0,0,1-9.31.58c-4.59,0-6.66-2-6.66-6.55V365h15.05V353.21H137.39V334.49L123,338.05v15.16H112.11V365H123v30.33c0,11.49,6,18.38,18,18.38a48.91,48.91,0,0,0,12.29-1.6Zm55.83-28.61c.23-7.47-.81-14.25-5.17-20.79-4.94-7.47-13-11-21.83-11-8.16,0-14.59,3-19.07,7.58-5.74,5.86-8.62,14.36-8.62,23.9,0,9.76,3.22,18.15,9.2,23.89a26.05,26.05,0,0,0,18.84,7.35c7.58,0,15.05-2.41,20.1-8.38,2.3-2.76,4.71-7.47,5.06-11H193.91a10.83,10.83,0,0,1-2.87,5.05c-2.07,2.07-4.6,2.88-8.73,2.88a12.62,12.62,0,0,1-8.85-3.68,15.8,15.8,0,0,1-4.37-11.72h40c0-1.26.12-4,.12-4Zm-14.36-6.43H169a14.59,14.59,0,0,1,3.1-9.31,12.24,12.24,0,0,1,10-4.59c4.13,0,7.12,1.37,9.07,3.44,2.3,2.53,3.56,6,3.68,10.46Zm44.34,35.73V400.77c-.8,0-1.15.12-2.41.12-4.94,0-5.74-2.3-5.74-5.75V329.89H216.54v67.67c0,11.37,6.55,16.08,16.31,16.08a24,24,0,0,0,6.32-.8Zm29,0V400.77c-.8,0-1.15.12-2.41.12-4.94,0-5.75-2.3-5.75-5.75V329.89H245.49v67.67c0,11.37,6.55,16.08,16.31,16.08a24,24,0,0,0,6.32-.8ZM290,344.94V330.12h-15.4v14.82Zm-.35,68V353.21H275V413Z" transform="translate(-30.09 -329.89)"/><path class="cls-1" d="M42.63,448.83c-1.8,0-2.3-1.31-2.3-2.85a5.4,5.4,0,0,1-5.23,3.14c-2.83,0-5-1.69-5-4.48,0-2.59,2-4.14,4.89-4.34l5.35-.38V438.5c0-2.42-1.63-3.32-3.84-3.32s-4,1.05-4.19,3.2H30.85c.2-2.94,2.5-4.57,5.64-4.57,2,0,4.14.67,4.92,2.68a7.51,7.51,0,0,1,.38,2.79v6.64c0,1,.14,1.57,1.13,1.57a1.71,1.71,0,0,0,.41,0v1.28A2.8,2.8,0,0,1,42.63,448.83Zm-2.3-7.57-5.21.32c-2.15.15-3.55,1.28-3.55,3.06,0,2.09,1.58,3.14,3.64,3.14,3.67,0,5.12-3,5.12-5.76Z" transform="translate(-30.09 -329.89)"/><path class="cls-1" d="M57.38,448.71l-.17-2.65a5.4,5.4,0,0,1-4.92,3c-3.35,0-5.12-2.07-5.12-5.33v-9.6h1.45v9.52c0,2.53,1.11,4,3.76,4,3.58,0,4.83-3.08,4.83-6.22v-7.28h1.45v14.55Z" transform="translate(-30.09 -329.89)"/><path class="cls-1" d="M68.91,448.94c-2.71,0-3.76-1.71-3.76-4.24v-9.17H62.24v-1.34h2.91v-4l1.46-.35v4.37h4.51v1.34H66.61v9.11c0,1.71.47,2.94,2.42,2.94a12.75,12.75,0,0,0,2.29-.26v1.28A11.76,11.76,0,0,1,68.91,448.94Z" transform="translate(-30.09 -329.89)"/><path class="cls-1" d="M84.22,447.37a6,6,0,0,1-8.5,0,9.46,9.46,0,0,1,0-11.81,6,6,0,0,1,8.5,0,9.49,9.49,0,0,1,0,11.81Zm-1-10.85a4.64,4.64,0,0,0-6.4,0,8.32,8.32,0,0,0,0,9.89,4.64,4.64,0,0,0,6.4,0,8.32,8.32,0,0,0,0-9.89Z" transform="translate(-30.09 -329.89)"/><path class="cls-1" d="M100.83,448.74v-9.52c0-2.53-1.1-4-3.75-4-3.58,0-4.83,3.08-4.83,6.23v7.27H90.79V434.19h1.28l.18,2.65a5.45,5.45,0,0,1,4.92-3c3.34,0,5.12,2.07,5.12,5.33v9.6Z" transform="translate(-30.09 -329.89)"/><path class="cls-1" d="M117.07,447.37a6,6,0,0,1-8.49,0,7.75,7.75,0,0,1-2.07-5.9c0-2.48.55-4.4,2.07-5.91a6,6,0,0,1,8.49,0c1.52,1.51,2.07,3.43,2.07,5.91A7.75,7.75,0,0,1,117.07,447.37Zm-1-10.85a4.65,4.65,0,0,0-6.41,0,8.32,8.32,0,0,0,0,9.89,4.65,4.65,0,0,0,6.41,0,8.32,8.32,0,0,0,0-9.89Z" transform="translate(-30.09 -329.89)"/><path class="cls-1" d="M142.19,448.74v-9.52c0-2.53-.93-4-3.46-4a3.65,3.65,0,0,0-2.59,1,5.79,5.79,0,0,0-1.72,4.33v8.24h-1.49v-9.52c0-2.53-1-4-3.49-4a3.62,3.62,0,0,0-2.59,1c-1.31,1.22-1.74,3.23-1.74,5.3v7.27h-1.46V434.19h1.28l.18,2.5a4.76,4.76,0,0,1,4.42-2.88,4.37,4.37,0,0,1,4.6,3.14,4.85,4.85,0,0,1,4.68-3.14c3.41,0,4.83,2.21,4.83,5.33v9.6Z" transform="translate(-30.09 -329.89)"/><path class="cls-1" d="M158.43,447.37a6,6,0,0,1-8.5,0,9.46,9.46,0,0,1,0-11.81,6,6,0,0,1,8.5,0,9.46,9.46,0,0,1,0,11.81Zm-1.05-10.85a4.64,4.64,0,0,0-6.4,0,8.32,8.32,0,0,0,0,9.89,4.64,4.64,0,0,0,6.4,0,8.32,8.32,0,0,0,0-9.89Z" transform="translate(-30.09 -329.89)"/><path class="cls-1" d="M174.93,448.71l-.17-2.65a5.42,5.42,0,0,1-4.92,3c-3.35,0-5.13-2.07-5.13-5.33v-9.6h1.46v9.52c0,2.53,1.11,4,3.75,4,3.58,0,4.84-3.08,4.84-6.22v-7.28h1.45v14.55Z" transform="translate(-30.09 -329.89)"/><path class="cls-1" d="M191.37,447.37a6.24,6.24,0,0,1-4.71,1.75,6.15,6.15,0,0,1-4.77-1.86,4.37,4.37,0,0,1-1.23-2.94h1.49a3.59,3.59,0,0,0,1.07,2.24,5.85,5.85,0,0,0,6.87.09,2.35,2.35,0,0,0,.79-1.87,2.73,2.73,0,0,0-2.68-2.65l-2.82-.37a5.12,5.12,0,0,1-3.29-1.46,3.43,3.43,0,0,1-.82-2.3,3.77,3.77,0,0,1,1.26-2.82,5.76,5.76,0,0,1,4-1.37,5.69,5.69,0,0,1,4.4,1.72,4.41,4.41,0,0,1,1.1,2.68h-1.45a3.49,3.49,0,0,0-.73-1.75,4.2,4.2,0,0,0-3.32-1.28,4.3,4.3,0,0,0-2.62.67,2.47,2.47,0,0,0-1.13,2c0,1.22.61,2.15,2.82,2.44l2.77.38c2.73.38,4,2.24,4,4A3.88,3.88,0,0,1,191.37,447.37Z" transform="translate(-30.09 -329.89)"/><path class="cls-1" d="M196.9,452.32l-.5-.81a2.62,2.62,0,0,0,1.63-2.77h-1.6v-2.62h2.68v2.65A3.58,3.58,0,0,1,196.9,452.32Z" transform="translate(-30.09 -329.89)"/><path class="cls-1" d="M218.75,447.37a6.24,6.24,0,0,1-4.71,1.75,6.15,6.15,0,0,1-4.77-1.86,4.37,4.37,0,0,1-1.23-2.94h1.49a3.64,3.64,0,0,0,1.07,2.24,5.85,5.85,0,0,0,6.87.09,2.35,2.35,0,0,0,.79-1.87,2.73,2.73,0,0,0-2.68-2.65l-2.82-.37a5.14,5.14,0,0,1-3.29-1.46,3.43,3.43,0,0,1-.82-2.3,3.77,3.77,0,0,1,1.26-2.82,5.76,5.76,0,0,1,4-1.37,5.69,5.69,0,0,1,4.4,1.72,4.41,4.41,0,0,1,1.1,2.68h-1.45a3.49,3.49,0,0,0-.73-1.75,4.2,4.2,0,0,0-3.32-1.28,4.3,4.3,0,0,0-2.62.67,2.47,2.47,0,0,0-1.13,2c0,1.22.61,2.15,2.82,2.44l2.77.38c2.73.38,4,2.24,4,4A3.88,3.88,0,0,1,218.75,447.37Z" transform="translate(-30.09 -329.89)"/><path class="cls-1" d="M234.29,448.74v-9.52c0-2.53-1.1-4-3.75-4-3.58,0-4.83,3.14-4.83,6.29v7.27h-1.46v-21h1.46v9.14a5.42,5.42,0,0,1,4.92-3.06c3.34,0,5.12,2.07,5.12,5.33v9.6Z" transform="translate(-30.09 -329.89)"/><path class="cls-1" d="M252.57,448.83c-1.8,0-2.3-1.31-2.3-2.85a5.41,5.41,0,0,1-5.24,3.14c-2.82,0-5-1.69-5-4.48,0-2.59,2-4.14,4.89-4.34l5.35-.38V438.5c0-2.42-1.63-3.32-3.84-3.32s-4.05,1.05-4.19,3.2h-1.46c.21-2.94,2.51-4.57,5.65-4.57,2,0,4.13.67,4.92,2.68a7.51,7.51,0,0,1,.38,2.79v6.64c0,1,.14,1.57,1.13,1.57a1.76,1.76,0,0,0,.41,0v1.28A2.8,2.8,0,0,1,252.57,448.83Zm-2.3-7.57-5.21.32c-2.15.15-3.55,1.28-3.55,3.06,0,2.09,1.57,3.14,3.64,3.14,3.67,0,5.12-3,5.12-5.76Z" transform="translate(-30.09 -329.89)"/><path class="cls-1" d="M263.63,435.44c-3.64,0-4.63,3.26-4.63,6.32v7h-1.45V434.19h1.28l.17,2.94a4.68,4.68,0,0,1,4.63-3.09,7.64,7.64,0,0,1,1.43.09v1.46A5.8,5.8,0,0,0,263.63,435.44Z" transform="translate(-30.09 -329.89)"/><path class="cls-1" d="M279.67,441.81H268.55a7,7,0,0,0,1.51,4.37,4.38,4.38,0,0,0,3.52,1.54,4.32,4.32,0,0,0,3.18-1.28,4,4,0,0,0,1.1-2.06h1.51a5.33,5.33,0,0,1-1.63,3.05,5.79,5.79,0,0,1-4.16,1.69,5.87,5.87,0,0,1-4.62-2.07,9.56,9.56,0,0,1-.44-10.71,5.91,5.91,0,0,1,5-2.53c3.93,0,6.22,3.38,6.22,7C279.69,441.2,279.67,441.47,279.67,441.81Zm-6.2-6.63c-3,0-4.89,2.41-4.89,5.3h9.63C278.15,437.71,276.44,435.18,273.47,435.18Z" transform="translate(-30.09 -329.89)"/><path class="cls-1" d="M294,448.74l-.17-2.56a5.38,5.38,0,0,1-4.83,2.94,5.6,5.6,0,0,1-3.87-1.37,8.17,8.17,0,0,1-2.39-6.26,8.49,8.49,0,0,1,2.27-6.17,5.74,5.74,0,0,1,8.82,1.31v-8.9h1.45v21Zm-2-12.37a4.19,4.19,0,0,0-3.05-1.13,4.11,4.11,0,0,0-3.12,1.28,7.32,7.32,0,0,0-1.63,5,6.86,6.86,0,0,0,1.93,5.2,4.47,4.47,0,0,0,5.85-.14,6.83,6.83,0,0,0,1.86-5.06A6.52,6.52,0,0,0,292,436.37Z" transform="translate(-30.09 -329.89)"/><path class="cls-1" d="M321.6,438.5c0,2.18-.29,4.92-1.48,6.63l3.23,3.61h-1.86l-2.16-2.44a8.06,8.06,0,0,1-6.2,2.85c-3.37,0-6.11-2.27-6.11-5.82a5.52,5.52,0,0,1,2.83-4.86l1.62-1L310,435.82a5,5,0,0,1-1.42-3.52,4.63,4.63,0,0,1,4.86-4.6c2.73,0,4.94,1.77,4.94,4.6a4.68,4.68,0,0,1-2.53,4.25l-2.15,1.28,5.47,6.2a11.36,11.36,0,0,0,1.08-5.59v-1.25h3.6v1.31Zm-9.19.06-1.63,1a4.35,4.35,0,0,0,2.35,8.17,6.24,6.24,0,0,0,5.18-2.5Zm1-9.52A3.25,3.25,0,0,0,310,432.3a4.39,4.39,0,0,0,1.22,2.79l1.52,1.75,2.35-1.46a3.6,3.6,0,0,0,1.84-3.08A3.26,3.26,0,0,0,313.4,429Z" transform="translate(-30.09 -329.89)"/><path class="cls-1" d="M339.53,449.12a6,6,0,0,1-4.28-1.72c-1.51-1.51-2-3.46-2-5.93s.53-4.43,2-5.94a6,6,0,0,1,4.28-1.72,5.42,5.42,0,0,1,5.62,4.92h-1.52a4,4,0,0,0-4.1-3.49,4.3,4.3,0,0,0-3.23,1.25,8.58,8.58,0,0,0,0,10,4.28,4.28,0,0,0,3.23,1.22,4.13,4.13,0,0,0,4.13-3.55h1.54A5.6,5.6,0,0,1,339.53,449.12Z" transform="translate(-30.09 -329.89)"/><path class="cls-1" d="M358.68,447.37a6,6,0,0,1-8.5,0,9.46,9.46,0,0,1,0-11.81,6,6,0,0,1,8.5,0,9.46,9.46,0,0,1,0,11.81Zm-1.05-10.85a4.64,4.64,0,0,0-6.4,0,8.32,8.32,0,0,0,0,9.89,4.64,4.64,0,0,0,6.4,0,8.32,8.32,0,0,0,0-9.89Z" transform="translate(-30.09 -329.89)"/><path class="cls-1" d="M375.3,448.74v-9.52c0-2.53-1.11-4-3.76-4-3.58,0-4.83,3.08-4.83,6.23v7.27h-1.45V434.19h1.28l.17,2.65a5.46,5.46,0,0,1,4.92-3c3.35,0,5.12,2.07,5.12,5.33v9.6Z" transform="translate(-30.09 -329.89)"/><path class="cls-1" d="M392.26,448.74v-9.52c0-2.53-1.1-4-3.75-4-3.58,0-4.83,3.08-4.83,6.23v7.27h-1.46V434.19h1.28l.18,2.65a5.45,5.45,0,0,1,4.92-3c3.34,0,5.12,2.07,5.12,5.33v9.6Z" transform="translate(-30.09 -329.89)"/><path class="cls-1" d="M410.51,441.81H399.39a7,7,0,0,0,1.52,4.37,4.36,4.36,0,0,0,3.52,1.54,4.28,4.28,0,0,0,3.17-1.28,4.12,4.12,0,0,0,1.11-2.06h1.51a5.33,5.33,0,0,1-1.63,3.05,5.81,5.81,0,0,1-4.16,1.69,5.89,5.89,0,0,1-4.63-2.07,8.39,8.39,0,0,1-1.86-5.53,8.48,8.48,0,0,1,1.42-5.18,5.94,5.94,0,0,1,4.95-2.53c3.93,0,6.23,3.38,6.23,7C410.54,441.2,410.51,441.47,410.51,441.81Zm-6.2-6.63c-3,0-4.89,2.41-4.89,5.3h9.64C409,437.71,407.28,435.18,404.31,435.18Z" transform="translate(-30.09 -329.89)"/><path class="cls-1" d="M419.94,449.12a6,6,0,0,1-4.28-1.72c-1.51-1.51-2-3.46-2-5.93s.53-4.43,2-5.94a6,6,0,0,1,4.28-1.72,5.42,5.42,0,0,1,5.62,4.92H424a4,4,0,0,0-4.1-3.49,4.3,4.3,0,0,0-3.23,1.25,8.58,8.58,0,0,0,0,10,4.28,4.28,0,0,0,3.23,1.22,4.13,4.13,0,0,0,4.13-3.55h1.55A5.61,5.61,0,0,1,419.94,449.12Z" transform="translate(-30.09 -329.89)"/><path class="cls-1" d="M434.11,448.94c-2.71,0-3.76-1.71-3.76-4.24v-9.17h-2.91v-1.34h2.91v-4l1.46-.35v4.37h4.51v1.34h-4.51v9.11c0,1.71.47,2.94,2.42,2.94a13,13,0,0,0,2.3-.26v1.28A12,12,0,0,1,434.11,448.94Z" transform="translate(-30.09 -329.89)"/><path class="cls-1" d="M451.43,441.81H440.31a7,7,0,0,0,1.51,4.37,4.38,4.38,0,0,0,3.52,1.54,4.32,4.32,0,0,0,3.18-1.28,4,4,0,0,0,1.1-2.06h1.51a5.38,5.38,0,0,1-1.62,3.05,6.1,6.1,0,0,1-8.79-.38,9.56,9.56,0,0,1-.44-10.71,5.91,5.91,0,0,1,5-2.53c3.93,0,6.22,3.38,6.22,7C451.45,441.2,451.43,441.47,451.43,441.81Zm-6.2-6.63c-3,0-4.89,2.41-4.89,5.3H450C449.91,437.71,448.2,435.18,445.23,435.18Z" transform="translate(-30.09 -329.89)"/><path class="cls-1" d="M465.74,448.74l-.17-2.56a5.38,5.38,0,0,1-4.83,2.94,5.6,5.6,0,0,1-3.87-1.37,8.17,8.17,0,0,1-2.39-6.26,8.49,8.49,0,0,1,2.27-6.17,5.74,5.74,0,0,1,8.82,1.31v-8.9H467v21Zm-2-12.37a4.19,4.19,0,0,0-3.05-1.13,4.11,4.11,0,0,0-3.12,1.28,7.32,7.32,0,0,0-1.63,5,6.86,6.86,0,0,0,1.93,5.2,4.47,4.47,0,0,0,5.85-.14,6.87,6.87,0,0,0,1.86-5.06A6.52,6.52,0,0,0,463.76,436.37Z" transform="translate(-30.09 -329.89)"/><path class="cls-1" d="M497.58,448.74v-9.52c0-2.53-.93-4-3.46-4a3.65,3.65,0,0,0-2.59,1,5.79,5.79,0,0,0-1.72,4.33v8.24h-1.48v-9.52c0-2.53-1-4-3.49-4a3.6,3.6,0,0,0-2.59,1c-1.31,1.22-1.75,3.23-1.75,5.3v7.27H479V434.19h1.28l.18,2.5a4.78,4.78,0,0,1,4.42-2.88,4.36,4.36,0,0,1,4.6,3.14,4.86,4.86,0,0,1,4.69-3.14c3.4,0,4.83,2.21,4.83,5.33v9.6Z" transform="translate(-30.09 -329.89)"/><path class="cls-1" d="M513.82,447.37a6,6,0,0,1-8.5,0,9.49,9.49,0,0,1,0-11.81,6,6,0,0,1,8.5,0c1.52,1.51,2.07,3.43,2.07,5.91A7.75,7.75,0,0,1,513.82,447.37Zm-1-10.85a4.65,4.65,0,0,0-6.41,0,8.32,8.32,0,0,0,0,9.89,4.65,4.65,0,0,0,6.41,0,8.36,8.36,0,0,0,0-9.89Z" transform="translate(-30.09 -329.89)"/><path class="cls-1" d="M530.56,447.75a5.62,5.62,0,0,1-3.87,1.37,5.39,5.39,0,0,1-4.84-2.94l-.17,2.56H520.4v-21h1.45v8.9a5.74,5.74,0,0,1,8.82-1.31,8.45,8.45,0,0,1,2.27,6.17A8.16,8.16,0,0,1,530.56,447.75Zm-.73-11.23a4.11,4.11,0,0,0-3.12-1.28,4.22,4.22,0,0,0-3.05,1.13,6.52,6.52,0,0,0-1.84,5.1,6.83,6.83,0,0,0,1.87,5.06,4.47,4.47,0,0,0,5.85.14,6.85,6.85,0,0,0,1.92-5.2A7.32,7.32,0,0,0,529.83,436.52Z" transform="translate(-30.09 -329.89)"/><path class="cls-1" d="M537.28,430.14v-2h2v2Zm.26,18.6V434.19h1.54v14.55Z" transform="translate(-30.09 -329.89)"/><path class="cls-1" d="M547.78,448.92c-1.86,0-2.91-1-2.91-3.09v-18.1h1.46v18c0,1,.29,1.75,1.51,1.75a7.48,7.48,0,0,0,1.25-.06v1.28A4.39,4.39,0,0,1,547.78,448.92Z" transform="translate(-30.09 -329.89)"/><path class="cls-1" d="M553,430.14v-2h2v2Zm.26,18.6V434.19h1.54v14.55Z" transform="translate(-30.09 -329.89)"/><path class="cls-1" d="M565.13,448.94c-2.71,0-3.75-1.71-3.75-4.24v-9.17h-2.91v-1.34h2.91v-4l1.45-.35v4.37h4.51v1.34h-4.51v9.11c0,1.71.47,2.94,2.42,2.94a13,13,0,0,0,2.3-.26v1.28A11.86,11.86,0,0,1,565.13,448.94Z" transform="translate(-30.09 -329.89)"/><path class="cls-1" d="M575.37,451.86a4,4,0,0,1-3.92,3,5.54,5.54,0,0,1-1.84-.26v-1.22a13.28,13.28,0,0,0,1.78.17c1.39,0,2.15-.9,2.65-2.15L575,449l-6-14.78h1.57l5.1,12.92,4.88-12.92h1.58Z" transform="translate(-30.09 -329.89)"/></svg>