<svg width="78" height="42" viewBox="0 0 78 42" fill="none" xmlns="http://www.w3.org/2000/svg">
<path d="M26.5778 23.6902C26.8403 23.4934 26.9716 23.0996 26.7091 22.7715C26.5122 22.4434 26.1185 22.3777 25.7903 22.6402L21.7216 25.5277V19.6871L25.5935 13.6496C25.7903 13.3215 25.7247 12.9277 25.3966 12.7309C25.0685 12.534 24.6747 12.5996 24.4778 12.9277L21.656 17.259V13.6496C21.656 13.2559 21.3935 12.9934 20.9997 12.9934C20.606 12.9934 20.3435 13.2559 20.3435 13.6496V22.3121L16.6685 19.359C16.406 19.1621 15.9466 19.1621 15.7497 19.4246C15.5528 19.6871 15.5528 20.1465 15.8153 20.3434L20.2778 23.9527V41.3434C20.2778 41.7371 20.5403 41.9996 20.9341 41.9996C21.3278 41.9996 21.5903 41.7371 21.5903 41.3434V27.1027L26.5778 23.6902Z" fill="white"/>
<path d="M32.025 15.0281C32.9438 13.7813 33.4688 12.2719 33.4688 10.7625C33.4688 6.75938 30.2531 3.54375 26.25 3.54375C24.8062 1.70625 22.7063 0.65625 20.4094 0.65625C17.4563 0.65625 14.8969 2.42813 13.7812 5.05313C10.1063 5.5125 7.35 8.53125 7.35 12.2063C7.35 13.5188 7.67812 14.7656 8.4 15.8813C6.825 17.4563 5.90625 19.4906 5.90625 21.7219C5.90625 26.1188 9.45 29.6625 13.8469 29.6625C15.1594 29.6625 16.4062 29.3344 17.5875 28.7438C17.9812 28.9406 18.375 29.1375 18.8344 29.3344C19.1625 29.4656 19.5562 29.2688 19.6875 28.9406C19.8188 28.6125 19.6219 28.2188 19.2937 28.0875C18.8344 27.9563 18.375 27.6938 17.9812 27.4313C17.7844 27.3 17.5219 27.3 17.2594 27.4313C16.2094 28.0219 15.0281 28.35 13.8469 28.35C10.1719 28.2844 7.21875 25.3313 7.21875 21.7219C7.21875 19.7531 8.1375 17.85 9.64687 16.6031C9.90937 16.4063 9.975 16.0125 9.77813 15.6844C9.05625 14.7 8.6625 13.5188 8.6625 12.2719C8.6625 9.12188 11.0906 6.5625 14.2406 6.36563C14.5031 6.36563 14.7656 6.16875 14.8313 5.90625C15.6844 3.54375 17.9156 1.96875 20.4094 1.96875C22.3781 1.96875 24.2156 2.95313 25.3313 4.59375C25.4625 4.79063 25.6594 4.92188 25.9219 4.85625H26.0531C26.1187 4.85625 26.1844 4.85625 26.25 4.85625C29.5312 4.85625 32.1562 7.48125 32.1562 10.7625C32.1562 12.2719 31.5656 13.65 30.5812 14.7656C30.45 14.8969 30.3844 15.0938 30.3844 15.3563C30.45 15.5531 30.5156 15.75 30.7125 15.8156C32.9438 16.9313 34.3219 19.2281 34.3219 21.7219C34.3219 25.3969 31.3687 28.35 27.6938 28.35C26.6438 28.35 25.5938 28.0875 24.6094 27.6281C24.4125 27.4969 24.15 27.4969 23.9531 27.6281C23.5594 27.825 23.1656 28.0219 22.7719 28.1531C22.4438 28.2844 22.2469 28.6125 22.3125 28.9406C22.4438 29.2688 22.7719 29.4656 23.1 29.4C23.4937 29.2688 23.8875 29.1375 24.2156 28.9406C25.2656 29.4656 26.3813 29.6625 27.5625 29.6625C31.9594 29.6625 35.5031 26.1188 35.5031 21.7219C35.6344 18.9656 34.2563 16.5375 32.025 15.0281Z" fill="white"/>
<path d="M62.5778 23.6902C62.8403 23.4934 62.9716 23.0996 62.7091 22.7715C62.5122 22.4434 62.1185 22.3777 61.7903 22.6402L57.7216 25.5277V19.6871L61.5935 13.6496C61.7903 13.3215 61.7247 12.9277 61.3966 12.7309C61.0685 12.534 60.6747 12.5996 60.4778 12.9277L57.656 17.259V13.6496C57.656 13.2559 57.3935 12.9934 56.9997 12.9934C56.606 12.9934 56.3435 13.2559 56.3435 13.6496V22.3121L52.6685 19.359C52.406 19.1621 51.9466 19.1621 51.7497 19.4246C51.5528 19.6871 51.5528 20.1465 51.8153 20.3434L56.2778 23.9527V41.3434C56.2778 41.7371 56.5403 41.9996 56.9341 41.9996C57.3278 41.9996 57.5903 41.7371 57.5903 41.3434V27.1027L62.5778 23.6902Z" fill="white"/>
<path d="M68.025 15.0281C68.9438 13.7813 69.4688 12.2719 69.4688 10.7625C69.4688 6.75938 66.2531 3.54375 62.25 3.54375C60.8062 1.70625 58.7063 0.65625 56.4094 0.65625C53.4563 0.65625 50.8969 2.42813 49.7812 5.05313C46.1063 5.5125 43.35 8.53125 43.35 12.2063C43.35 13.5188 43.6781 14.7656 44.4 15.8813C42.825 17.4563 41.9062 19.4906 41.9062 21.7219C41.9062 26.1188 45.45 29.6625 49.8469 29.6625C51.1594 29.6625 52.4062 29.3344 53.5875 28.7438C53.9812 28.9406 54.375 29.1375 54.8344 29.3344C55.1625 29.4656 55.5562 29.2688 55.6875 28.9406C55.8188 28.6125 55.6219 28.2188 55.2937 28.0875C54.8344 27.9563 54.375 27.6938 53.9812 27.4313C53.7844 27.3 53.5219 27.3 53.2594 27.4313C52.2094 28.0219 51.0281 28.35 49.8469 28.35C46.1719 28.2844 43.2188 25.3313 43.2188 21.7219C43.2188 19.7531 44.1375 17.85 45.6469 16.6031C45.9094 16.4063 45.975 16.0125 45.7781 15.6844C45.0563 14.7 44.6625 13.5188 44.6625 12.2719C44.6625 9.12188 47.0906 6.5625 50.2406 6.36563C50.5031 6.36563 50.7656 6.16875 50.8313 5.90625C51.6844 3.54375 53.9156 1.96875 56.4094 1.96875C58.3781 1.96875 60.2156 2.95313 61.3313 4.59375C61.4625 4.79063 61.6594 4.92188 61.9219 4.85625H62.0531C62.1187 4.85625 62.1844 4.85625 62.25 4.85625C65.5312 4.85625 68.1562 7.48125 68.1562 10.7625C68.1562 12.2719 67.5656 13.65 66.5812 14.7656C66.45 14.8969 66.3844 15.0938 66.3844 15.3563C66.45 15.5531 66.5156 15.75 66.7125 15.8156C68.9438 16.9313 70.3219 19.2281 70.3219 21.7219C70.3219 25.3969 67.3687 28.35 63.6938 28.35C62.6438 28.35 61.5938 28.0875 60.6094 27.6281C60.4125 27.4969 60.15 27.4969 59.9531 27.6281C59.5594 27.825 59.1656 28.0219 58.7719 28.1531C58.4438 28.2844 58.2469 28.6125 58.3125 28.9406C58.4438 29.2688 58.7719 29.4656 59.1 29.4C59.4937 29.2688 59.8875 29.1375 60.2156 28.9406C61.2656 29.4656 62.3813 29.6625 63.5625 29.6625C67.9594 29.6625 71.5031 26.1188 71.5031 21.7219C71.6344 18.9656 70.2563 16.5375 68.025 15.0281Z" fill="white"/>
</svg>
