<svg width="66" height="65" viewBox="0 0 66 65" fill="none" xmlns="http://www.w3.org/2000/svg">
<g clip-path="url(#clip0)">
<path d="M-0.398926 -0.392578H66.4598V65.4531H-0.398926V-0.392578Z" fill="white"/>
<path d="M27.8172 41.8942C25.9464 43.7366 22.9102 43.7366 21.0394 41.8942L20.4566 41.1995L11.8386 30.9299C10.1211 28.9666 10.3358 25.9764 12.36 24.285C14.3535 22.5935 17.3897 22.8049 19.1072 24.7984L27.7866 35.2492C29.6881 37.0614 29.6881 40.0517 27.8172 41.8942Z" fill="#1F1F1F"/>
<path d="M54.6223 30.6575L46.1883 40.8364C46.0656 41.0177 45.9123 41.1687 45.7589 41.3197C43.8575 43.1924 40.7292 43.2226 38.8277 41.3197C38.6744 41.1687 38.521 41.0177 38.3983 40.8364H38.3677L30.2097 30.869C28.4615 28.8453 28.7069 25.7946 30.7617 24.0428C32.7246 22.4117 35.6075 22.5325 37.4169 24.3146C37.5703 24.4656 37.8156 24.7677 37.8156 24.7677L42.2933 30.4461L46.9244 24.6771C47.0164 24.5562 47.1084 24.4354 47.2311 24.3448C49.1632 22.4721 52.2608 22.5023 54.1623 24.4052C55.8491 26.0967 56.0638 28.7244 54.6223 30.6575Z" fill="#1F1F1F"/>
</g>
<defs>
<clipPath id="clip0">
<rect width="66" height="65" fill="white"/>
</clipPath>
</defs>
</svg>
