<svg width="43" height="33" viewBox="0 0 43 33" fill="none" xmlns="http://www.w3.org/2000/svg">
<g clip-path="url(#clip0)">
<path d="M40.42 0H2.58C1.204 0 0 1.19563 0 2.56207V29.8908C0 31.2572 1.204 32.4528 2.58 32.4528H40.42C41.796 32.4528 43 31.2572 43 29.8908V2.56207C43 1.19563 41.796 0 40.42 0ZM1.72 2.56207C1.72 2.04965 2.064 1.70804 2.58 1.70804H40.42C40.936 1.70804 41.28 2.04965 41.28 2.56207V5.80735L22.36 16.9096C21.844 17.2512 21.156 17.2512 20.64 16.9096L1.72 5.80735V2.56207ZM41.28 29.8908C41.28 30.4032 40.936 30.7448 40.42 30.7448H2.58C2.064 30.7448 1.72 30.4032 1.72 29.8908V7.857L19.78 18.4469C20.812 19.1301 22.188 19.1301 23.22 18.4469L41.28 7.857V29.8908Z" fill="white"/>
</g>
<defs>
<clipPath id="clip0">
<rect width="43" height="32.4528" fill="white"/>
</clipPath>
</defs>
</svg>
