<svg width="95" height="13" viewBox="0 0 95 13" fill="none" xmlns="http://www.w3.org/2000/svg">
<path d="M0.0408126 12H1.43281V3.056H1.46481L7.81681 12H9.24081V0.639999H7.84881V9.68H7.83281L1.41681 0.639999H0.0408126V12ZM18.7924 7.968C18.7924 5.744 17.3364 4.112 15.2084 4.112C12.9844 4.112 11.3684 5.76 11.3684 8.112C11.3684 10.496 13.0004 12.096 15.3044 12.096C16.8724 12.096 17.8484 11.504 18.5204 10.64L17.6084 9.872C17.1284 10.464 16.3924 10.912 15.3524 10.912C13.8804 10.912 12.8564 9.952 12.6804 8.496H18.7604C18.7604 8.4 18.7924 8.176 18.7924 7.968ZM15.1924 5.296C16.4724 5.296 17.3044 6.16 17.4964 7.44H12.7124C12.9524 6.112 13.9444 5.296 15.1924 5.296ZM22.2216 12H23.4056L25.1976 6.288H25.2136L27.0056 12H28.2216L30.9096 4.208H29.5816L27.6296 10.064H27.5976L25.7736 4.208H24.6536L22.8616 10.064H22.8296L20.8616 4.208H19.5336L22.2216 12ZM34.7946 12.096C36.6666 12.096 37.5946 11.088 37.5946 9.872C37.6106 8.352 36.5226 8.064 34.8746 7.424C34.0266 7.12 33.4026 6.816 33.4026 6.208C33.4026 5.616 33.9946 5.264 34.6026 5.264C35.2746 5.264 35.9946 5.472 36.6666 6.096L37.3386 5.072C36.4746 4.368 35.5946 4.112 34.6506 4.112C33.1786 4.112 32.0906 5.008 32.0906 6.208C32.0906 7.632 33.1626 8.144 34.4266 8.592C35.5626 9.008 36.2826 9.2 36.2826 9.888C36.2826 10.48 35.7386 10.944 34.7946 10.944C33.7066 10.944 33.0186 10.592 32.4106 10L31.7546 10.992C32.5066 11.648 33.4986 12.096 34.7946 12.096ZM46.9543 12.096C48.3303 12.096 49.3383 11.664 50.0903 10.928H50.1223L51.0343 12H52.5863L51.0183 10.112V10.08C51.7223 9.056 51.9943 7.792 51.9943 6.72L50.7303 6.736C50.7303 7.472 50.5543 8.288 50.1543 9.008H50.1063L45.4983 3.536C45.6103 2.528 46.2823 1.712 47.5943 1.712C48.7303 1.712 49.3543 2.368 49.6903 3.104L50.8103 2.672C50.3463 1.632 49.3223 0.528 47.4983 0.528C45.6263 0.528 44.2823 1.872 44.1383 3.744L45.4823 5.376V5.408C44.2343 6.08 43.3383 7.328 43.3383 8.752C43.3383 10.768 44.9383 12.096 46.9543 12.096ZM47.0823 10.864C45.6423 10.864 44.6983 9.936 44.6983 8.688C44.6983 7.744 45.3063 6.816 46.2823 6.336L49.3383 9.968V10C48.7943 10.528 48.0583 10.864 47.0823 10.864ZM58.7752 12H60.1672V7.664H62.5032C64.8712 7.664 66.5032 6.56 66.5032 4.16C66.5032 2.144 65.3992 0.639999 62.7432 0.639999H58.7752V12ZM60.1672 6.4V1.904H62.5992C64.1192 1.904 65.0632 2.672 65.0632 4.128C65.0632 5.44 64.2632 6.4 62.3752 6.4H60.1672ZM68.3957 12H69.6917V8.24C69.6917 6.672 70.5717 5.536 72.0597 5.536C72.1877 5.536 72.3797 5.552 72.5717 5.568V4.128C72.4597 4.112 72.3637 4.112 72.2517 4.112C71.1797 4.112 70.2837 4.688 69.7237 5.632H69.6917V4.208H68.3957V12ZM80.7143 7.968C80.7143 5.744 79.2583 4.112 77.1303 4.112C74.9063 4.112 73.2903 5.76 73.2903 8.112C73.2903 10.496 74.9223 12.096 77.2263 12.096C78.7943 12.096 79.7703 11.504 80.4423 10.64L79.5303 9.872C79.0503 10.464 78.3143 10.912 77.2743 10.912C75.8023 10.912 74.7783 9.952 74.6023 8.496H80.6823C80.6823 8.4 80.7143 8.176 80.7143 7.968ZM77.1143 5.296C78.3943 5.296 79.2263 6.16 79.4183 7.44H74.6343C74.8743 6.112 75.8663 5.296 77.1143 5.296ZM84.9664 12.096C86.8384 12.096 87.7664 11.088 87.7664 9.872C87.7824 8.352 86.6944 8.064 85.0464 7.424C84.1984 7.12 83.5744 6.816 83.5744 6.208C83.5744 5.616 84.1664 5.264 84.7744 5.264C85.4464 5.264 86.1664 5.472 86.8384 6.096L87.5104 5.072C86.6464 4.368 85.7664 4.112 84.8224 4.112C83.3504 4.112 82.2624 5.008 82.2624 6.208C82.2624 7.632 83.3344 8.144 84.5984 8.592C85.7344 9.008 86.4544 9.2 86.4544 9.888C86.4544 10.48 85.9104 10.944 84.9664 10.944C83.8784 10.944 83.1904 10.592 82.5824 10L81.9264 10.992C82.6784 11.648 83.6704 12.096 84.9664 12.096ZM91.9508 12.096C93.8228 12.096 94.7508 11.088 94.7508 9.872C94.7668 8.352 93.6788 8.064 92.0308 7.424C91.1828 7.12 90.5588 6.816 90.5588 6.208C90.5588 5.616 91.1508 5.264 91.7588 5.264C92.4308 5.264 93.1508 5.472 93.8228 6.096L94.4948 5.072C93.6308 4.368 92.7508 4.112 91.8068 4.112C90.3348 4.112 89.2468 5.008 89.2468 6.208C89.2468 7.632 90.3188 8.144 91.5828 8.592C92.7188 9.008 93.4388 9.2 93.4388 9.888C93.4388 10.48 92.8948 10.944 91.9508 10.944C90.8628 10.944 90.1748 10.592 89.5668 10L88.9108 10.992C89.6628 11.648 90.6548 12.096 91.9508 12.096Z" fill="white"/>
</svg>
