<svg width="138" height="19" viewBox="0 0 138 19" fill="none" xmlns="http://www.w3.org/2000/svg">
<path d="M0 0.562988H2.89996L5.56957 9.81608H5.60698L8.062 0.562988H10.9246L13.3402 9.80427H13.3993L16.0669 0.562988H18.9669L14.6356 14.291H12.1235L9.53265 4.52607H9.49328L6.84532 14.291H4.33123L0 0.562988Z" fill="white"/>
<path d="M18.8979 10.5387V4.82935H21.412V9.87523C21.412 11.5959 21.9337 12.1747 23.113 12.1747C24.2155 12.1747 25.1999 11.2474 25.1999 9.4303V4.83722H27.7593V14.2872H25.1999V13.165L25.1625 13.1453C24.8271 13.5599 24.4027 13.8936 23.9209 14.122C23.439 14.3503 22.9119 14.4673 22.3787 14.4644C20.3292 14.4644 18.8979 13.415 18.8979 10.5387Z" fill="white"/>
<path d="M29.6177 4.83715H32.1495V6.05384H32.1889C32.5612 5.62044 33.0245 5.27452 33.5459 5.04074C34.0672 4.80695 34.6337 4.69105 35.205 4.70131C37.2151 4.70131 38.6266 5.78412 38.6266 8.68408V14.2911H36.0929V9.32195C36.0929 7.52449 35.455 6.95946 34.2757 6.95946C33 6.95946 32.1495 7.84736 32.1495 9.55032V14.2871H29.6177V4.83715Z" fill="white"/>
<path d="M40.0344 9.59172C40.0344 6.73114 41.9697 4.70136 44.5015 4.70136C45.0396 4.6836 45.575 4.78485 46.0695 4.99789C46.564 5.21093 47.0054 5.5305 47.3621 5.9338H47.4015V0.0610352H49.9155V14.2911H47.4979V13.1296H47.4782C46.8207 13.9801 45.8363 14.4644 44.5586 14.4644C41.95 14.4644 40.0344 12.5114 40.0344 9.59172ZM47.4979 9.61141C47.4979 8.08366 46.4742 6.96345 45.0232 6.96345C43.6707 6.96345 42.6076 7.9872 42.6076 9.61141C42.6076 11.1195 43.6116 12.1826 45.0232 12.1826C46.4348 12.1826 47.4979 11.1588 47.4979 9.61141Z" fill="white"/>
<path d="M60.4897 10.3852H53.859C54.1681 11.5251 55.0757 12.2023 56.3514 12.2023C56.7914 12.2168 57.2286 12.1282 57.6282 11.9436C58.0278 11.759 58.3787 11.4836 58.6529 11.1392L60.2968 12.667C59.5093 13.6907 58.2847 14.4644 56.1782 14.4644C53.2782 14.4644 51.2288 12.5114 51.2288 9.55437C51.2288 6.67213 53.2211 4.70142 56.0246 4.70142C58.6923 4.70142 60.5527 6.7115 60.5527 9.47562C60.5468 9.78471 60.5094 10.2296 60.4897 10.3852ZM53.8787 8.56803H58.0347C57.7827 7.562 57.1074 6.90444 56.0049 6.90444C54.9792 6.90444 54.1681 7.48522 53.8787 8.56803Z" fill="white"/>
<path d="M61.9385 4.83721H64.4722V6.21533H64.5097C64.83 5.75653 65.2548 5.3805 65.7491 5.11828C66.2434 4.85607 66.793 4.71519 67.3525 4.70728H67.5494V7.46352C67.2797 7.44383 67.0277 7.44383 66.8721 7.44383C65.2972 7.44383 64.4762 8.48923 64.4762 9.91854V14.2891H61.9385V4.83721Z" fill="white"/>
<path d="M73.749 7.43594C73.749 3.53389 76.1942 0.370117 80.6022 0.370117C82.5828 0.370117 84.524 1.22455 85.9808 3.0102L84.7189 4.05757C83.5731 2.64008 82.1595 1.98055 80.6022 1.98055C77.4759 1.98055 75.515 4.27217 75.515 7.43594C75.515 10.7375 77.7101 12.7949 80.6219 12.7949C82.4076 12.7949 83.7719 11.9404 84.7385 10.7178L86.0005 11.7849C84.7956 13.2811 83.0474 14.3876 80.6219 14.3876C76.8931 14.3876 73.749 11.9404 73.749 7.43594Z" fill="white"/>
<path d="M94.7754 8.77657V14.2891H93.2988L93.2417 13.0645H93.2221C92.8402 13.4887 92.3727 13.827 91.8504 14.0571C91.3281 14.2872 90.7629 14.4038 90.1922 14.3993C88.1151 14.3993 86.989 13.1373 86.989 11.5053C86.989 9.7196 88.1545 8.57379 90.6391 8.57379H93.2417C93.2221 6.86492 92.5035 6.12861 90.9501 6.12861C90.0047 6.13863 89.0769 6.38498 88.251 6.84524L87.6604 5.56555C88.7281 5.03854 89.8976 4.7497 91.0879 4.71899C93.7064 4.71899 94.7754 6.13058 94.7754 8.77657ZM93.2417 11.0859V9.87119H90.6194C89.2806 9.87119 88.5424 10.4343 88.5424 11.4836C88.5424 12.3951 89.133 13.094 90.4264 13.094C92.0959 13.0862 93.2417 12.1352 93.2417 11.0859Z" fill="white"/>
<path d="M96.6377 4.83536H98.2127V6.56392H98.2521C98.9313 5.41811 100.024 4.7192 101.319 4.7192C101.451 4.71563 101.583 4.72221 101.713 4.73889V6.48517C101.481 6.46548 101.248 6.44579 101.093 6.44579C99.2876 6.44579 98.2186 7.82391 98.2186 9.72769V14.2912H96.6436L96.6377 4.83536Z" fill="white"/>
<path d="M103.142 4.83514H104.717V6.50463H104.735C105.094 5.94301 105.592 5.48358 106.181 5.17077C106.77 4.85796 107.429 4.70234 108.096 4.71898C110.773 4.71898 112.697 6.83538 112.697 9.64084C112.697 12.5132 110.696 14.417 108.096 14.417C106.599 14.417 105.434 13.7555 104.735 12.6688H104.717V18.1399H103.142V4.83514ZM111.102 9.63099C111.102 7.53428 109.645 6.15419 107.859 6.15419C105.938 6.15419 104.637 7.68981 104.637 9.63099C104.637 11.6293 106.074 12.9779 107.879 12.9779C109.791 12.97 111.102 11.5328 111.102 9.63099Z" fill="white"/>
<path d="M113.925 9.57195C113.925 6.85311 115.894 4.71899 118.818 4.71899C121.613 4.71899 123.69 6.69955 123.69 9.57195C123.69 12.4443 121.603 14.3993 118.81 14.3993C115.878 14.3993 113.925 12.2908 113.925 9.57195ZM122.08 9.57195C122.08 7.55398 120.643 6.15421 118.818 6.15421C116.837 6.15421 115.536 7.68983 115.536 9.57195C115.536 11.4541 116.857 12.97 118.818 12.97C120.619 12.97 122.072 11.5919 122.072 9.57195H122.08Z" fill="white"/>
<path d="M124.789 9.57195C124.789 6.85311 126.758 4.71899 129.681 4.71899C132.477 4.71899 134.554 6.69955 134.554 9.57195C134.554 12.4443 132.477 14.3993 129.675 14.3993C126.75 14.3993 124.789 12.2908 124.789 9.57195ZM132.943 9.57195C132.943 7.55398 131.506 6.15421 129.681 6.15421C127.701 6.15421 126.399 7.68983 126.399 9.57195C126.399 11.4541 127.72 12.97 129.681 12.97C131.486 12.97 132.943 11.5919 132.943 9.57195Z" fill="white"/>
<path d="M135.895 0H137.47V14.2911H135.895V0Z" fill="white"/>
</svg>
