<svg width="64" height="36" viewBox="0 0 64 36" fill="none" xmlns="http://www.w3.org/2000/svg">
<path d="M2.27734 19.9785H4.75404L8.55164 27.0697H8.58467L12.4153 20.0115H14.892V32.4459H12.4483V24.761H12.4153L9.37721 30.1041H7.79213L4.78706 24.761H4.75404V32.4459H2.31037L2.27734 19.9785Z" fill="white"/>
<path d="M16.1152 28.1252C16.1152 25.5856 17.9315 23.7056 20.6724 23.7056C23.3472 23.7056 25.1965 25.4866 25.1965 28.1252C25.1965 30.7638 23.3142 32.5449 20.6724 32.5449C17.9315 32.5778 16.1152 30.6978 16.1152 28.1252ZM22.8849 28.1252C22.8849 26.74 21.9272 25.7505 20.6724 25.7505C19.3515 25.7505 18.4598 26.7729 18.4598 28.1252C18.4598 29.4775 19.3845 30.4999 20.6724 30.4999C21.8942 30.4999 22.8849 29.5435 22.8849 28.1252Z" fill="white"/>
<path d="M28.5973 31.3576H28.5643V32.38H26.3848V19.4839H28.6964V24.7941H28.7294C29.3898 24.0685 30.3475 23.6397 31.3382 23.6727C33.6498 23.6727 35.3669 25.5197 35.3669 28.0923C35.3669 30.7309 33.6497 32.512 31.2391 32.512C30.2154 32.6109 29.2247 32.1821 28.5973 31.3576ZM33.0223 28.1583C33.0223 26.6741 32.0316 25.7506 30.8098 25.7506C29.4889 25.7506 28.5973 26.773 28.5973 28.1583C28.5312 29.3786 29.4559 30.4011 30.6777 30.5C30.7438 30.5 30.7768 30.5 30.8428 30.5C32.0977 30.5 33.0223 29.5435 33.0223 28.1583Z" fill="white"/>
<path d="M36.6211 23.8374H38.9327V32.4128H36.6211V23.8374Z" fill="white"/>
<path d="M40.916 19.5171H43.2276V32.3803H40.916V19.5171Z" fill="white"/>
<path d="M45.1756 23.8374H47.4542V32.4128H45.1426L45.1756 23.8374Z" fill="white"/>
<path d="M50.0292 29.7087V25.7508H48.9395V23.8378H50.0292V21.0673L52.3408 20.8364V23.8708H53.4305L54.2561 25.7838H52.3408V29.4119C52.3408 30.1705 52.5389 30.5003 53.0673 30.5003C53.4305 30.4673 53.8268 30.3684 54.157 30.2034L54.7514 32.0505C54.058 32.4463 53.2984 32.6441 52.5059 32.5782C50.9869 32.5782 50.0292 31.6547 50.0292 29.7087Z" fill="white"/>
<path d="M58.2508 31.8851L54.8164 23.8374H57.2601L59.3405 29.0816H59.3735L61.3219 23.8374H63.6334L59.0103 35.876H56.6987L58.2508 31.8851Z" fill="white"/>
<path d="M37.7783 22.3206C38.4713 22.3206 39.0332 21.7595 39.0332 21.0673C39.0332 20.3751 38.4713 19.814 37.7783 19.814C37.0853 19.814 36.5234 20.3751 36.5234 21.0673C36.5234 21.7595 37.0853 22.3206 37.7783 22.3206Z" fill="white"/>
<path d="M46.331 22.3206C47.0241 22.3206 47.5859 21.7595 47.5859 21.0673C47.5859 20.3751 47.0241 19.814 46.331 19.814C45.638 19.814 45.0762 20.3751 45.0762 21.0673C45.0762 21.7595 45.638 22.3206 46.331 22.3206Z" fill="white"/>
<path d="M0 1.34375H2.64181L5.05246 9.72129H5.08549L7.33103 1.34375H9.93982L12.1193 9.72129H12.1523L14.563 1.34375H17.2048L13.2751 13.7781H10.9965L8.65193 4.93884H8.61891L6.20826 13.7781H3.92969L0 1.34375Z" fill="white"/>
<path d="M17.1387 10.3806V5.23535H19.4172V9.78693C19.4172 11.3371 19.8795 11.8648 20.9693 11.8648C21.96 11.8648 22.8516 11.0073 22.8516 9.39114V5.23535H25.1632V13.7778H22.8516V12.7554L22.8186 12.7224C22.1911 13.481 21.2665 13.9097 20.3088 13.9097C18.4266 13.9427 17.1387 12.9862 17.1387 10.3806Z" fill="white"/>
<path d="M26.8477 5.20243H29.1592V6.29085H29.1923C29.8857 5.49927 30.8764 5.03752 31.9331 5.0705C33.7494 5.0705 35.0373 6.05997 35.0373 8.66559V13.7449H32.7257V9.25927C32.7257 7.64313 32.1313 7.11541 31.0746 7.11541C29.9188 7.11541 29.1592 7.90699 29.1592 9.45717V13.7449H26.8477V5.20243Z" fill="white"/>
<path d="M36.291 9.52324C36.291 6.91763 38.0412 5.10359 40.3528 5.10359C41.3435 5.07061 42.3011 5.4664 42.9616 6.22499H42.9946V0.881836H45.2732V13.778H43.0937V12.7225C42.4662 13.5141 41.4756 13.9759 40.4519 13.9429C38.0082 13.9429 36.291 12.1618 36.291 9.52324ZM43.0276 9.52324C43.0276 8.13798 42.103 7.11552 40.7821 7.11552C39.5603 7.11552 38.6026 8.03903 38.6026 9.52324C38.6026 10.8755 39.5272 11.865 40.7821 11.865C42.0039 11.898 42.9946 10.9085 43.0276 9.68815C43.0607 9.65517 43.0607 9.5892 43.0276 9.52324Z" fill="white"/>
<path d="M54.8174 10.2488H48.8073C49.0715 11.2712 50.0292 11.9639 51.0859 11.8979C51.8784 11.9309 52.671 11.5681 53.1663 10.9414L54.6523 12.3267C53.9258 13.2502 52.8361 13.9428 50.9208 13.9428C48.279 13.9428 46.4297 12.1618 46.4297 9.49018C46.4297 6.88457 48.2459 5.10352 50.7887 5.10352C53.1993 5.10352 54.8835 6.91755 54.8835 9.42422C54.8835 9.68808 54.8505 10.0839 54.8174 10.2488ZM48.8403 8.59966H52.6049C52.3738 7.67615 51.7793 7.08246 50.7556 7.08246C49.831 7.04948 49.0055 7.67615 48.8403 8.59966Z" fill="white"/>
<path d="M56.1385 5.20246H58.4501V6.4558H58.4831C59.0775 5.59825 60.0352 5.10352 61.0589 5.10352H61.224V7.61018C60.9598 7.61018 60.7617 7.61018 60.5965 7.61018C59.1766 7.61018 58.4171 8.56668 58.4171 9.85299V13.8109H56.1055L56.1385 5.20246Z" fill="white"/>
</svg>
