<svg width="135" height="14" viewBox="0 0 135 14" fill="none" xmlns="http://www.w3.org/2000/svg">
<path d="M0 0.544922H2.80685L5.39076 9.50094H5.42697L7.80317 0.544922H10.5738L12.9119 9.48951H12.9691L15.5511 0.544922H18.3579L14.1658 13.8322H11.7343L9.22661 4.38077H9.1885L6.62555 13.8322H4.19218L0 0.544922Z" fill="white"/>
<path d="M18.291 10.2018V4.67578H20.7244V9.55967C20.7244 11.2251 21.2294 11.7853 22.3708 11.7853C23.4379 11.7853 24.3906 10.8878 24.3906 9.12902V4.6815H26.8678V13.8281H24.3906V12.7419L24.3544 12.7229C24.0298 13.1241 23.6191 13.4472 23.1527 13.6682C22.6863 13.8892 22.1761 14.0024 21.66 13.9996C19.6763 13.9996 18.291 12.9839 18.291 10.2018Z" fill="white"/>
<path d="M28.666 4.68189H31.1165V5.85951H31.1546C31.515 5.44003 31.9635 5.10522 32.4681 4.87894C32.9727 4.65266 33.521 4.54048 34.0739 4.55041C36.0195 4.55041 37.3857 5.59846 37.3857 8.40531V13.8323H34.9333V9.0227C34.9333 7.28295 34.3159 6.73606 33.1745 6.73606C31.9397 6.73606 31.1165 7.59736 31.1165 9.24375V13.8285H28.666V4.68189Z" fill="white"/>
<path d="M38.748 9.28427C38.748 6.51553 40.6212 4.55092 43.0717 4.55092C43.5926 4.53373 44.1108 4.63173 44.5894 4.83793C45.068 5.04412 45.4952 5.35344 45.8405 5.74378H45.8786V0.0595703H48.3119V13.8328H45.9719V12.7085H45.9529C45.3164 13.5317 44.3637 14.0005 43.127 14.0005C40.6021 14.0005 38.748 12.1102 38.748 9.28427ZM45.9719 9.30333C45.9719 7.82463 44.9811 6.74038 43.5767 6.74038C42.2676 6.74038 41.2386 7.73126 41.2386 9.30333C41.2386 10.763 42.2104 11.792 43.5767 11.792C44.9429 11.792 45.9719 10.8011 45.9719 9.30333Z" fill="white"/>
<path d="M58.5476 10.0521H52.1298C52.4289 11.1554 53.3074 11.8109 54.5422 11.8109C54.968 11.8249 55.3912 11.7391 55.778 11.5605C56.1647 11.3818 56.5044 11.1152 56.7698 10.7819L58.3609 12.2606C57.5987 13.2515 56.4134 14.0003 54.3745 14.0003C51.5676 14.0003 49.584 12.11 49.584 9.24793C49.584 6.46013 51.5124 4.55078 54.2259 4.55078C56.8079 4.55078 58.6086 6.49633 58.6086 9.17171C58.6029 9.47278 58.5667 9.90153 58.5476 10.0521ZM52.1488 8.29325H56.1714C55.9275 7.31953 55.2739 6.68308 54.2068 6.68308C53.214 6.68308 52.4289 7.24521 52.1488 8.29325Z" fill="white"/>
<path d="M59.9492 4.68241H62.4016V6.01628H62.4378C62.7479 5.57221 63.1591 5.20825 63.6375 4.95445C64.116 4.70066 64.6479 4.5643 65.1894 4.55664H65.38V7.22439C65.1189 7.20534 64.875 7.20534 64.7245 7.20534C63.2001 7.20534 62.4055 8.21718 62.4055 9.60059V13.8309H59.9492V4.68241Z" fill="white"/>
<path d="M70.875 0.490234H72.6414L76.6431 11.4642H76.6621L80.6637 0.490234H82.4111L77.3748 13.829H75.9113L70.875 0.490234Z" fill="white"/>
<path d="M89.9277 9.71624H82.7877C82.9935 11.4312 84.1959 12.5536 85.9261 12.5536C86.4319 12.5681 86.9342 12.4654 87.3937 12.2535C87.8532 12.0416 88.2574 11.7263 88.5748 11.3321L89.6457 12.2335C88.8568 13.2491 87.7116 13.9484 85.8689 13.9484C83.1631 13.9484 81.2461 12.0696 81.2461 9.26844C81.2461 6.50731 83.1516 4.57129 85.7565 4.57129C88.2547 4.57129 89.9658 6.48826 89.9658 9.09884C89.9658 9.34085 89.9277 9.60381 89.9277 9.71624ZM82.8277 8.47573H88.4471C88.2223 6.97226 87.2447 5.95852 85.7412 5.95852C84.2721 5.95852 83.1059 6.917 82.8277 8.47573Z" fill="white"/>
<path d="M91.582 0H93.1064V6.27684H93.1255C93.84 5.18687 95.0424 4.56185 96.5078 4.56185C98.4819 4.56185 99.8349 5.72614 99.8349 8.33863V13.8266H98.3104V8.7769C98.3104 6.70939 97.3901 5.95861 96.0562 5.95861C94.2326 5.95861 93.1045 7.161 93.1045 9.22661V13.8323H91.5801L91.582 0Z" fill="white"/>
<path d="M101.465 1.53628C101.461 1.31608 101.523 1.09974 101.643 0.914835C101.762 0.729926 101.934 0.584819 102.137 0.498005C102.339 0.411192 102.563 0.386603 102.779 0.427373C102.996 0.468144 103.195 0.572425 103.352 0.726931C103.509 0.881436 103.616 1.07917 103.66 1.29493C103.705 1.51069 103.683 1.73471 103.6 1.93843C103.516 2.14216 103.374 2.31637 103.191 2.43887C103.008 2.56136 102.792 2.62659 102.572 2.62625C102.428 2.62775 102.285 2.60072 102.151 2.54669C102.017 2.49266 101.895 2.4127 101.792 2.31141C101.689 2.21012 101.607 2.0895 101.551 1.95648C101.495 1.82345 101.466 1.68065 101.465 1.53628ZM101.802 4.68041H103.327V13.827H101.802V4.68041Z" fill="white"/>
<path d="M104.904 9.26482C104.904 6.5037 106.81 4.56767 109.527 4.56767C110.222 4.56008 110.911 4.70215 111.547 4.98425C112.182 5.26635 112.75 5.68188 113.211 6.20262L112.174 7.123C111.855 6.75431 111.459 6.4593 111.015 6.25829C110.57 6.05729 110.087 5.95508 109.6 5.95871C107.719 5.95871 106.461 7.32879 106.461 9.26482C106.461 11.2008 107.719 12.5538 109.58 12.5538C110.074 12.5635 110.564 12.4642 111.016 12.263C111.467 12.0617 111.868 11.7635 112.191 11.3895L113.245 12.3423C112.483 13.2626 111.252 13.9391 109.468 13.9391C106.802 13.9372 104.904 12.0469 104.904 9.26482Z" fill="white"/>
<path d="M114.77 0H116.294V13.8323H114.77V0Z" fill="white"/>
<path d="M126.551 9.71624H119.415C119.62 11.4312 120.825 12.5536 122.553 12.5536C123.059 12.5683 123.561 12.4656 124.021 12.2537C124.48 12.0418 124.885 11.7264 125.202 11.3321L126.275 12.2335C125.484 13.2491 124.339 13.9484 122.496 13.9484C119.79 13.9484 117.873 12.0696 117.873 9.26844C117.873 6.50731 119.779 4.57129 122.383 4.57129C124.884 4.57129 126.593 6.48826 126.593 9.09884C126.589 9.34085 126.551 9.60381 126.551 9.71624ZM119.449 8.47573H125.066C124.842 6.97226 123.864 5.95852 122.361 5.95852C120.895 5.95852 119.731 6.917 119.449 8.47573Z" fill="white"/>
<path d="M127.396 12.6474L128.159 11.4831C128.873 12.1787 129.683 12.5922 130.96 12.5922C132.067 12.5922 132.707 12.0472 132.707 11.3516C132.707 10.5437 131.861 10.3169 130.527 9.82722C129.043 9.30129 127.783 8.69914 127.783 7.02799C127.783 5.61789 129.062 4.56603 130.79 4.56603C131.944 4.54769 133.066 4.94773 133.948 5.69221L133.157 6.8965C132.508 6.26583 131.638 5.91484 130.733 5.91896C130.019 5.91896 129.325 6.33247 129.325 7.02799C129.325 7.72351 130.057 8.0989 131.053 8.45523C132.989 9.21745 134.266 9.5452 134.247 11.3307C134.247 12.7579 133.157 13.9432 130.96 13.9432C129.652 13.9699 128.382 13.5078 127.396 12.6474Z" fill="white"/>
</svg>
