<svg width="188" height="24" viewBox="0 0 188 24" fill="none" xmlns="http://www.w3.org/2000/svg">
<path d="M98.2363 0.663086H101.861L107.415 11.0299H107.462L113.016 0.663086H116.641V18.8879H113.016V7.57433H112.969L108.592 15.4323H106.285L101.908 7.57433H101.861V18.8879H98.2363V0.663086Z" fill="white"/>
<path d="M118.382 12.639C118.382 8.8994 121.018 6.20117 125.019 6.20117C128.926 6.20117 131.609 8.85206 131.609 12.639C131.609 16.426 128.879 19.1242 125.019 19.1242C121.065 19.1716 118.382 16.3787 118.382 12.639ZM128.267 12.639C128.267 10.6035 126.855 9.18342 125.019 9.18342C123.042 9.18342 121.771 10.6509 121.771 12.639C121.771 14.6272 123.136 16.0947 125.019 16.0947C126.807 16.142 128.267 14.7219 128.267 12.639Z" fill="white"/>
<path d="M136.599 17.3728L136.552 18.8876H133.398V0H136.74V7.81065C137.635 6.72189 139 6.20118 140.506 6.20118C143.848 6.20118 146.437 8.89941 146.437 12.6864C146.437 16.568 143.942 19.1243 140.459 19.1243C138.812 19.1716 137.494 18.5562 136.599 17.3728ZM143.048 12.6864C143.048 10.5562 141.636 9.18343 139.8 9.18343C137.917 9.18343 136.552 10.6509 136.552 12.6864C136.552 14.7219 137.964 16.142 139.847 16.142C141.73 16.142 143.048 14.7219 143.048 12.6864Z" fill="white"/>
<path d="M148.414 6.39062H151.756V18.9823H148.414V6.39062Z" fill="white"/>
<path d="M154.674 0H158.016V18.8876H154.674V0Z" fill="white"/>
<path d="M160.841 6.39062H164.183V18.9823H160.841V6.39062Z" fill="white"/>
<path d="M167.9 14.9586V9.13611H166.3V6.29587H167.9V2.17753L171.242 1.79883V6.20119H172.843L174.019 9.04143H171.195V14.3905C171.195 15.4793 171.478 16 172.278 16C172.701 16 173.313 15.8107 173.878 15.574L174.725 18.2722C173.925 18.6982 173.125 19.0769 171.431 19.0769C169.312 19.1716 167.9 17.7988 167.9 14.9586Z" fill="white"/>
<path d="M179.997 18.1776L175.008 6.39062H178.632L181.692 14.0593H181.739L184.563 6.39062H187.999L181.268 24.0001H177.832L179.997 18.1776Z" fill="white"/>
<path d="M150.108 3.78703C151.122 3.78703 151.944 2.96048 151.944 1.94088C151.944 0.921278 151.122 0.0947266 150.108 0.0947266C149.094 0.0947266 148.272 0.921278 148.272 1.94088C148.272 2.96048 149.094 3.78703 150.108 3.78703Z" fill="white"/>
<path d="M162.536 3.78703C163.55 3.78703 164.372 2.96048 164.372 1.94088C164.372 0.921278 163.55 0.0947266 162.536 0.0947266C161.522 0.0947266 160.7 0.921278 160.7 1.94088C160.7 2.96048 161.522 3.78703 162.536 3.78703Z" fill="white"/>
<path d="M0 0.663086H3.85979L7.39008 12.9234H7.43716L10.685 0.663086H14.4507L17.6044 12.9234H17.6515L21.1818 0.663086H25.0416L19.2989 18.8879H16.004L12.5679 5.91752H12.5208L9.03756 18.8879H5.74261L0 0.663086Z" fill="white"/>
<path d="M24.9941 13.9172V6.34324H28.2891V13.0178C28.2891 15.29 28.9481 16.0947 30.5485 16.0947C32.0077 16.0947 33.2786 14.8639 33.2786 12.4497V6.2959H36.6206V18.8876H33.2786V17.4202H33.2315C32.3372 18.6036 30.9721 19.1243 29.56 19.1243C26.877 19.1716 24.9941 17.7515 24.9941 13.9172Z" fill="white"/>
<path d="M39.1623 6.39052H42.5043V7.99999H42.5514C43.5399 6.81656 44.9991 6.20117 46.5053 6.20117C49.1413 6.20117 51.0241 7.62129 51.0241 11.5029V18.9349H47.6821V12.355C47.6821 9.94082 46.8348 9.23076 45.2815 9.23076C43.5869 9.23076 42.4572 10.4142 42.4572 12.6864V18.9349H39.1152V6.39052H39.1623Z" fill="white"/>
<path d="M52.9082 12.6859C52.9082 8.89894 55.45 6.20072 58.8391 6.20072C60.3454 6.20072 61.7104 6.76877 62.6047 7.85753H62.6518V0.046875H65.9468V18.9344H62.793V17.4197C61.9458 18.5084 60.5807 19.2185 58.9332 19.2185C55.45 19.1711 52.9082 16.5676 52.9082 12.6859ZM62.793 12.6859C62.793 10.6504 61.428 9.18297 59.4981 9.18297C57.7094 9.18297 56.3444 10.5557 56.3444 12.6859C56.3444 14.7214 57.7094 16.1415 59.4981 16.1415C61.2868 16.1415 62.793 14.7214 62.793 12.6859Z" fill="white"/>
<path d="M79.9253 13.7283H71.2172C71.6408 15.2431 72.8176 16.1425 74.5121 16.1425C75.9243 16.1425 76.9127 15.5271 77.5717 14.7224L79.784 16.7579C78.7485 18.1307 77.1481 19.1721 74.3709 19.1721C70.5111 19.1721 67.8281 16.6159 67.8281 12.6869C67.8281 8.89991 70.4641 6.24902 74.1827 6.24902C77.7129 6.24902 80.1606 8.89991 80.1606 12.5922C80.0194 12.9709 79.9253 13.4916 79.9253 13.7283ZM71.2172 11.3141H76.6774C76.395 9.94133 75.4536 9.08926 73.9944 9.08926C72.6764 9.08926 71.5938 9.89399 71.2172 11.3141Z" fill="white"/>
<path d="M81.8088 6.39052H85.1508V8.23667H85.1979C86.0922 6.95857 87.5043 6.20117 88.9164 6.20117H89.1518V9.89348C88.7752 9.89348 88.4928 9.89348 88.2575 9.89348C86.1864 9.89348 85.1037 11.3136 85.1037 13.2071V19.0296H81.7617V6.39052H81.8088Z" fill="white"/>
</svg>
