<svg width="116" height="19" viewBox="0 0 116 19" fill="none" xmlns="http://www.w3.org/2000/svg">
<path d="M0 0.527832H3.1195L5.99122 10.2522H6.03146L8.67234 0.527832H11.7516L14.3501 10.2398H14.4137L17.2833 0.527832H20.4028L15.7436 14.9531H13.0413L10.2543 4.69278H10.212L7.36355 14.9531H4.65913L0 0.527832Z" fill="white"/>
<path d="M20.3287 11.0114V5.01123H23.0331V10.3141C23.0331 12.1225 23.5943 12.7328 24.8629 12.7328C26.0488 12.7328 27.1077 11.7583 27.1077 9.84861V5.01744H29.8608V14.9488H27.1077V13.7715L27.0675 13.7508C26.7067 14.1864 26.2502 14.5372 25.7318 14.7772C25.2135 15.0172 24.6465 15.1401 24.0729 15.137C21.8683 15.137 20.3287 14.0342 20.3287 11.0114Z" fill="white"/>
<path d="M31.86 5.01689H34.5835V6.29762H34.6258C35.026 5.84182 35.5244 5.47804 36.0853 5.23232C36.6462 4.98659 37.2557 4.86499 37.8703 4.8762C40.0325 4.8762 41.551 6.01416 41.551 9.06184V14.9524H38.8254V9.7322C38.8254 7.84111 38.1392 7.24937 36.8707 7.24937C35.4983 7.24937 34.5835 8.1825 34.5835 9.97014V14.9482H31.86V5.01689Z" fill="white"/>
<path d="M43.0652 10.0161C43.0652 7.00986 45.147 4.87669 47.8705 4.87669C48.4494 4.85802 49.0253 4.96443 49.5572 5.18832C50.0892 5.41221 50.5639 5.74806 50.9476 6.1719H50.99V0H53.6944V14.9528H51.0938V13.7342H51.0726C50.3653 14.628 49.3064 15.137 47.9319 15.137C45.1259 15.137 43.0652 13.0845 43.0652 10.0161ZM51.0938 10.0368C51.0938 8.43128 49.9925 7.254 48.4317 7.254C46.9768 7.254 45.8332 8.32989 45.8332 10.0368C45.8332 11.6217 46.9133 12.739 48.4317 12.739C49.9502 12.739 51.0938 11.661 51.0938 10.0368Z" fill="white"/>
<path d="M65.069 10.8498H57.9364C58.2688 12.0478 59.2451 12.7595 60.6175 12.7595C61.0907 12.7748 61.561 12.6817 61.9909 12.4877C62.4208 12.2937 62.7982 12.0042 63.0932 11.6423L64.8615 13.2458C64.0144 14.3237 62.6971 15.1369 60.4311 15.1369C57.3116 15.1369 55.107 13.0844 55.107 9.96429C55.107 6.93731 57.2502 4.86621 60.2659 4.86621C63.1355 4.86621 65.1368 6.97869 65.1368 9.8836C65.1305 10.2188 65.0902 10.6864 65.069 10.8498ZM57.9575 8.94012H62.4282C62.1571 7.88285 61.4307 7.1918 60.2447 7.1918C59.1414 7.1918 58.2688 7.80216 57.9575 8.94012Z" fill="white"/>
<path d="M66.6277 5.01741H69.3533V6.46573H69.3936C69.7381 5.98356 70.1951 5.58838 70.7268 5.3128C71.2586 5.03723 71.8498 4.88917 72.4516 4.88086H72.6634V7.77749C72.3733 7.7568 72.1022 7.7568 71.9349 7.7568C70.2407 7.7568 69.3575 8.85339 69.3575 10.3576V14.9487H66.6277V5.01741Z" fill="white"/>
<path d="M79.3323 7.75055C79.3323 3.64974 81.9626 0.322754 86.7044 0.322754C88.8349 0.322754 90.923 1.22071 92.4902 3.09939L91.1327 4.20011C89.9001 2.71041 88.3796 2.01728 86.7044 2.01728C83.3413 2.01728 81.232 4.42563 81.232 7.75055C81.232 11.2203 83.5933 13.3824 86.7256 13.3824C88.6464 13.3824 90.114 12.4845 91.1539 11.1996L92.5114 12.321C91.2153 13.8935 89.3347 15.0563 86.7256 15.0563C82.7145 15.0563 79.3323 12.4845 79.3323 7.75055Z" fill="white"/>
<path d="M94.2225 1.60377C94.2183 1.36477 94.287 1.12995 94.4199 0.929224C94.5527 0.728496 94.7437 0.570939 94.9686 0.476617C95.1934 0.382295 95.4418 0.355478 95.6823 0.399578C95.9228 0.443678 96.1444 0.556702 96.3189 0.724255C96.4934 0.891809 96.6129 1.10631 96.6622 1.34044C96.7115 1.57458 96.6883 1.81775 96.5957 2.03899C96.5031 2.26023 96.3451 2.44953 96.142 2.58279C95.9389 2.71604 95.6998 2.78722 95.4551 2.78725C95.2944 2.78944 95.1348 2.76048 94.9857 2.70203C94.8365 2.64359 94.7007 2.55683 94.586 2.44677C94.4714 2.33671 94.3803 2.20553 94.3179 2.06083C94.2555 1.91614 94.2231 1.76078 94.2225 1.60377ZM94.5953 5.01766H96.2895V14.949H94.5953V5.01766Z" fill="white"/>
<path d="M99.3391 11.9942V6.44505H98.024V5.01742H99.3391V1.63043L101.033 1.44629V5.01742H104.396V6.44505H101.031V11.7583C101.031 12.9625 101.302 13.5335 102.264 13.5335C102.875 13.502 103.469 13.3267 103.996 13.0225L104.435 14.4708C103.693 14.9076 102.837 15.1233 101.972 15.0915C100.174 15.0687 99.3391 13.9949 99.3391 11.9942Z" fill="white"/>
<path d="M109.886 14.5661L105.561 5.01758H107.399L110.701 12.5674H110.741L113.812 5.01758H115.587L109.822 19H108.069L109.886 14.5661Z" fill="white"/>
</svg>
