<svg width="117" height="16" viewBox="0 0 117 16" fill="none" xmlns="http://www.w3.org/2000/svg">
<path d="M0 0.52832H3.05235L5.86226 10.2677H5.90163L8.48566 0.52832H11.4986L14.0412 10.2552H14.1034L16.9112 0.52832H19.9636L15.4047 14.9757H12.7606L10.0336 4.69966H9.99215L7.20504 14.9757H4.55884L0 0.52832Z" fill="white"/>
<path d="M19.8911 11.0284V5.01904H22.5373V10.3301C22.5373 12.1412 23.0864 12.7525 24.3277 12.7525C25.4881 12.7525 26.5242 11.7744 26.5242 9.85142V5.02526H29.2181V14.9718H26.5242V13.7927L26.4849 13.772C26.1318 14.2083 25.6852 14.5597 25.178 14.8C24.6708 15.0403 24.116 15.1635 23.5548 15.1604C21.3976 15.1604 19.8911 14.0559 19.8911 11.0284Z" fill="white"/>
<path d="M31.1743 5.02499H33.8392V6.30768H33.8806C34.2721 5.85091 34.7597 5.48627 35.3085 5.23981C35.8573 4.99336 36.4537 4.87118 37.0552 4.88201C39.1709 4.88201 40.6567 6.02172 40.6567 9.07407V14.9757H37.9898V9.74546C37.9898 7.85354 37.3184 7.25882 36.0771 7.25882C34.7344 7.25882 33.8392 8.19546 33.8392 9.98584V14.9716H31.1743V5.02499Z" fill="white"/>
<path d="M42.1382 10.0315C42.1382 7.02062 44.1752 4.88211 46.84 4.88211C47.4066 4.86323 47.9704 4.96993 48.491 5.19456C49.0115 5.41918 49.4759 5.75617 49.8509 6.18138H49.8924V0H52.5386V14.9758H49.9939V13.7553H49.9732C49.2811 14.6505 48.245 15.1602 46.9001 15.1602C44.1544 15.1602 42.1382 13.1046 42.1382 10.0315ZM49.9939 10.0522C49.9939 8.44422 48.9164 7.26306 47.3891 7.26306C45.9655 7.26306 44.8466 8.34268 44.8466 10.0522C44.8466 11.6396 45.9034 12.7585 47.3891 12.7585C48.8749 12.7585 49.9939 11.6789 49.9939 10.0522Z" fill="white"/>
<path d="M63.6685 10.8665H56.6894C57.0147 12.0663 57.97 12.7791 59.3128 12.7791C59.7758 12.7943 60.236 12.7011 60.6566 12.5068C61.0772 12.3125 61.4466 12.0226 61.7352 11.6601L63.4655 13.2661C62.6366 14.3457 61.3477 15.1601 59.1304 15.1601C56.0781 15.1601 53.9209 13.1044 53.9209 9.97956C53.9209 6.94793 56.018 4.87158 58.9688 4.87158C61.7766 4.87158 63.7348 6.98937 63.7348 9.89874C63.7286 10.2344 63.6892 10.7028 63.6685 10.8665ZM56.7101 8.95175H61.0845C60.8193 7.89492 60.1085 7.20281 58.9481 7.20281C57.8684 7.20281 57.0147 7.81411 56.7101 8.95175Z" fill="white"/>
<path d="M65.1934 5.02495H67.8603V6.47549H67.8997C68.2368 5.99258 68.684 5.59679 69.2043 5.32079C69.7245 5.04479 70.303 4.89651 70.8919 4.88818H71.0991V7.78926C70.8152 7.76854 70.55 7.76854 70.3863 7.76854C68.7285 7.76854 67.8644 8.86681 67.8644 10.3733V14.9715H65.1934V5.02495Z" fill="white"/>
<path d="M78.2607 0.466309H83.4102C86.7568 0.466309 88.2073 2.38724 88.2073 4.96299C88.2073 7.39368 86.879 8.80484 84.5913 9.27523L88.5969 14.9759H86.4729L82.631 9.43894H80.0366V14.9759H78.2607V0.466309ZM82.9191 7.82469C85.3311 7.82469 86.3734 6.59795 86.3734 4.92361C86.3734 3.05863 85.1674 2.08263 83.1636 2.08263H80.0366V7.82677L82.9191 7.82469Z" fill="white"/>
<path d="M98.4483 10.5001H90.6817C90.9075 12.3651 92.2151 13.5877 94.0946 13.5877C94.6448 13.603 95.1912 13.4911 95.6912 13.2608C96.1912 13.0304 96.6312 12.6877 96.977 12.2594L98.1416 13.2395C97.2837 14.342 96.0362 15.1045 94.0345 15.1045C91.0899 15.1045 89.0073 13.0613 89.0073 10.0173C89.0073 7.01258 91.0795 4.90723 93.9102 4.90723C96.6289 4.90723 98.4876 6.99186 98.4876 9.83285C98.4876 10.0919 98.4483 10.3778 98.4483 10.5001ZM90.7231 9.15317H96.834C96.5874 7.5182 95.5265 6.41372 93.8915 6.41372C92.2959 6.41372 91.0298 7.45603 90.7231 9.15317Z" fill="white"/>
<path d="M100.143 5.0231H101.801V6.82176H101.822C102.21 6.21954 102.747 5.72684 103.38 5.39059C104.013 5.05434 104.721 4.88573 105.438 4.90083C107.585 4.90083 109.014 6.22912 109.014 9.0701V14.9759H107.357V9.54049C107.357 7.21134 106.356 6.41354 104.905 6.41354C103.024 6.41354 101.797 7.76254 101.797 10.0109V14.9842H100.139L100.143 5.0231Z" fill="white"/>
<path d="M111.258 12.0128V6.45515H109.965V5.02327H111.252V1.62278L112.91 1.44043V5.02327H116.201V6.45515H112.914V11.7766C112.914 12.9826 113.179 13.5545 114.12 13.5545C114.718 13.5232 115.3 13.3476 115.815 13.0427L116.246 14.4932C115.517 14.9224 114.679 15.1305 113.834 15.0921C112.077 15.0921 111.258 14.0166 111.258 12.0128Z" fill="white"/>
</svg>
