
<svg width="225" height="24" viewBox="0 0 225 24" fill="none" xmlns="http://www.w3.org/2000/svg">
<path d="M2 10.5C1.17157 10.5 0.5 11.1716 0.5 12C0.5 12.8284 1.17157 13.5 2 13.5L2 10.5ZM224.061 13.0607C224.646 12.4749 224.646 11.5251 224.061 10.9394L214.515 1.39342C213.929 0.80763 212.979 0.80763 212.393 1.39342C211.808 1.9792 211.808 2.92895 212.393 3.51474L220.879 12L212.393 20.4853C211.808 21.0711 211.808 22.0208 212.393 22.6066C212.979 23.1924 213.929 23.1924 214.515 22.6066L224.061 13.0607ZM2 13.5L223 13.5L223 10.5L2 10.5L2 13.5Z" fill="white"/>
</svg>
