<svg width="57" height="57" viewBox="0 0 57 57" fill="none" xmlns="http://www.w3.org/2000/svg">
<path d="M14 28C13.4477 28 13 28.4477 13 29C13 29.5523 13.4477 30 14 30V28ZM40.7071 29.7071C41.0976 29.3166 41.0976 28.6834 40.7071 28.2929L34.3431 21.9289C33.9526 21.5384 33.3195 21.5384 32.9289 21.9289C32.5384 22.3195 32.5384 22.9526 32.9289 23.3431L38.5858 29L32.9289 34.6569C32.5384 35.0474 32.5384 35.6805 32.9289 36.0711C33.3195 36.4616 33.9526 36.4616 34.3431 36.0711L40.7071 29.7071ZM14 30H40V28H14V30Z" fill="white"/>
<circle cx="28.5" cy="28.5" r="27.5" stroke="white" stroke-width="2"/>
</svg>
